<svg width="361" height="287" viewBox="0 0 361 287" fill="none" xmlns="http://www.w3.org/2000/svg">
<g clip-path="url(#clip0_812_79)">
<path d="M193.441 15.3571L194.366 13.9251C194.092 13.1661 193.775 12.4232 193.417 11.6999L192.818 12.1838L193.292 11.4507C192.84 10.5607 192.485 10 192.485 10C191.344 11.865 190.508 13.9001 190.008 16.0286L191.196 17.8661L189.881 16.803C189.834 17.1642 189.81 17.5279 189.809 17.8921C189.809 21.5639 191.007 24.5406 192.485 24.5406C193.963 24.5406 195.161 21.5639 195.161 17.8921C195.133 16.7239 194.927 15.5668 194.549 14.4612L193.441 15.3571Z" fill="#E6E6E6"/>
<path d="M199.993 18.5404L201.659 18.183C202.001 17.452 202.302 16.7023 202.56 15.9374L201.794 15.8559L202.648 15.6729C202.957 14.724 203.102 14.0759 203.102 14.0759C200.978 14.5876 198.949 15.4348 197.091 16.5859L196.633 18.7259L196.454 17.0434C196.166 17.2657 195.892 17.5058 195.634 17.7625C193.04 20.3589 191.784 23.3116 192.829 24.3577C193.874 25.4037 196.824 24.1469 199.418 21.5505C200.224 20.7048 200.896 19.7405 201.409 18.6912L199.993 18.5404Z" fill="#E6E6E6"/>
<path d="M200.601 32.7485C196.738 32.9959 192.528 32.7341 188.049 32.7485V22.4852C192.213 23.069 196.437 23.069 200.601 22.4852V32.7485Z" fill="#E6E6E6"/>
<path d="M198.216 63.1648C194.804 63.3833 191.087 63.1521 187.132 63.1648V54.1023C190.809 54.6178 194.539 54.6178 198.216 54.1023V63.1648Z" fill="#E6E6E6"/>
<path d="M217.684 31.5848H68.5342V35.7547H217.684V31.5848Z" fill="#E6E6E6"/>
<path d="M217.684 61.191H68.5342V65.3609H217.684V61.191Z" fill="#E6E6E6"/>
<path d="M192.686 57.4381C197.288 57.4381 201.018 53.7043 201.018 49.0983C201.018 44.4924 197.288 40.7585 192.686 40.7585C188.084 40.7585 184.354 44.4924 184.354 49.0983C184.354 53.7043 188.084 57.4381 192.686 57.4381Z" fill="#E6E6E6"/>
<path d="M192.686 55.7701C196.368 55.7701 199.352 52.7831 199.352 49.0983C199.352 45.4136 196.368 42.4265 192.686 42.4265C189.005 42.4265 186.021 45.4136 186.021 49.0983C186.021 52.7831 189.005 55.7701 192.686 55.7701Z" fill="white"/>
<path d="M192.686 50.7663C193.606 50.7663 194.352 50.0196 194.352 49.0984C194.352 48.1772 193.606 47.4304 192.686 47.4304C191.766 47.4304 191.02 48.1772 191.02 49.0984C191.02 50.0196 191.766 50.7663 192.686 50.7663Z" fill="#E6E6E6"/>
<path d="M198.52 49.5154V48.6814H191.854V49.5154H198.52Z" fill="#E6E6E6"/>
<path d="M192.269 49.9324H193.103V43.2606H192.269V49.9324Z" fill="#E6E6E6"/>
<path d="M144.507 11.2427H138.994V33.0849H144.507V11.2427Z" fill="#E6E6E6"/>
<path d="M144.507 14.6915H138.994V17.2206H144.507V14.6915Z" fill="#CCCCCC"/>
<path d="M144.507 25.7275H138.994V28.2566H144.507V25.7275Z" fill="#CCCCCC"/>
<path d="M136.008 11.2427H130.495V33.0849H136.008V11.2427Z" fill="#E6E6E6"/>
<path d="M136.008 14.6915H130.495V17.2206H136.008V14.6915Z" fill="#CCCCCC"/>
<path d="M136.008 25.7275H130.495V28.2566H136.008V25.7275Z" fill="#CCCCCC"/>
<path d="M149.258 11.1524L144.317 13.6007L154 33.1753L158.941 30.727L149.258 11.1524Z" fill="#E6E6E6"/>
<path d="M150.786 14.2431L145.846 16.6914L146.967 18.9579L151.908 16.5096L150.786 14.2431Z" fill="#CCCCCC"/>
<path d="M155.679 24.1334L150.738 26.5817L151.859 28.8482L156.8 26.3999L155.679 24.1334Z" fill="#CCCCCC"/>
<path d="M95.3461 40.8489H89.833V62.6911H95.3461V40.8489Z" fill="#E6E6E6"/>
<path d="M95.3461 44.2976H89.833V46.8267H95.3461V44.2976Z" fill="#CCCCCC"/>
<path d="M95.3461 55.3337H89.833V57.8628H95.3461V55.3337Z" fill="#CCCCCC"/>
<path d="M86.8471 40.8489H81.334V62.6911H86.8471V40.8489Z" fill="#E6E6E6"/>
<path d="M86.8471 44.2976H81.334V46.8267H86.8471V44.2976Z" fill="#CCCCCC"/>
<path d="M86.8471 55.3337H81.334V57.8628H86.8471V55.3337Z" fill="#CCCCCC"/>
<path d="M100.096 40.7586L95.1553 43.2069L104.838 62.7815L109.779 60.3332L100.096 40.7586Z" fill="#E6E6E6"/>
<path d="M101.625 43.8493L96.6846 46.2976L97.8057 48.5641L102.746 46.1158L101.625 43.8493Z" fill="#CCCCCC"/>
<path d="M106.517 53.7396L101.576 56.1879L102.697 58.4544L107.638 56.0061L106.517 53.7396Z" fill="#CCCCCC"/>
<path d="M147.007 40.8489H141.494V62.6911H147.007V40.8489Z" fill="#E6E6E6"/>
<path d="M147.007 44.2976H141.494V46.8267H147.007V44.2976Z" fill="#CCCCCC"/>
<path d="M147.007 55.3337H141.494V57.8628H147.007V55.3337Z" fill="#CCCCCC"/>
<path d="M138.507 40.8489H132.994V62.6911H138.507V40.8489Z" fill="#E6E6E6"/>
<path d="M138.507 44.2976H132.994V46.8267H138.507V44.2976Z" fill="#CCCCCC"/>
<path d="M138.507 55.3337H132.994V57.8628H138.507V55.3337Z" fill="#CCCCCC"/>
<path d="M151.757 40.7586L146.816 43.2069L156.499 62.7815L161.44 60.3332L151.757 40.7586Z" fill="#E6E6E6"/>
<path d="M153.286 43.8493L148.345 46.2976L149.466 48.5641L154.407 46.1158L153.286 43.8493Z" fill="#CCCCCC"/>
<path d="M158.178 53.7397L153.237 56.188L154.358 58.4545L159.299 56.0062L158.178 53.7397Z" fill="#CCCCCC"/>
<path d="M29.2665 151.417L30.686 149.221C30.265 148.057 29.7788 146.918 29.2297 145.809L28.3118 146.551L29.0386 145.427C28.3459 144.062 27.8009 143.203 27.8009 143.203C27.8009 143.203 24.954 147.693 24.0029 152.447L25.8245 155.264L23.8079 153.634C23.7361 154.188 23.6991 154.746 23.6973 155.304C23.6973 160.935 25.5345 165.499 27.8009 165.499C30.0673 165.499 31.9045 160.935 31.9045 155.304C31.862 153.513 31.5454 151.739 30.9658 150.043L29.2665 151.417Z" fill="#1DCAAD"/>
<path d="M39.3153 156.298L41.8703 155.75C42.3948 154.629 42.8559 153.48 43.2511 152.307L42.0778 152.182L43.386 151.901C43.8603 150.446 44.0823 149.453 44.0823 149.453C44.0823 149.453 38.8971 150.613 34.8658 153.301L34.1632 156.583L33.889 154.003C33.447 154.344 33.0268 154.712 32.631 155.105C28.6532 159.087 26.7277 163.615 28.3302 165.219C29.9328 166.823 34.4566 164.895 38.4344 160.914C39.6699 159.617 40.6995 158.139 41.4873 156.53L39.3153 156.298Z" fill="#1DCAAD"/>
<path d="M40.2482 178.085C34.3234 178.465 27.8677 178.063 21 178.085V162.348C27.0516 163.29 33.5051 163.194 40.2482 162.348V178.085Z" fill="#3F3D56"/>
<path d="M284.966 162.728H204.976V266.558H284.966V162.728Z" fill="#E6E6E6"/>
<path d="M42 193.203H38V266.203H42V193.203Z" fill="#E6E6E6"/>
<path d="M285.967 178.203H1V186.542H285.967V178.203Z" fill="#E6E6E6"/>
<path d="M44.1615 186.203H35.8291V194.542H44.1615V186.203Z" fill="#E6E6E6"/>
<path d="M251.273 168.774L250.804 170.651H239.139L238.436 168.774H208.726V187.956H281.217V168.774H251.273Z" fill="#3F3D56"/>
<path d="M251.273 192.96L250.804 194.836H239.139L238.436 192.96H208.726V212.141H281.217V192.96H251.273Z" fill="#3F3D56"/>
<path d="M251.273 217.145L250.804 219.021H239.139L238.436 217.145H208.726V236.326H281.217V217.145H251.273Z" fill="#3F3D56"/>
<path d="M251.273 241.33L250.804 243.207H239.139L238.436 241.33H208.726V260.512H281.217V241.33H251.273Z" fill="#3F3D56"/>
<path d="M353.917 265.933C344.812 266.516 334.891 265.899 324.337 265.933V241.747C333.637 243.196 343.554 243.048 353.917 241.747V265.933Z" fill="#3F3D56"/>
<path d="M340.169 243.919H337.669L338.502 195.045H339.335L340.169 243.919Z" fill="#3F3D56"/>
<path d="M351.417 244.249H348.917L349.75 195.375H350.583L351.417 244.249Z" fill="#3F3D56"/>
<path d="M330.171 244.249H327.671L328.504 195.375H329.337L330.171 244.249Z" fill="#3F3D56"/>
<path d="M342.252 163.77L346.288 157.529C345.091 154.22 343.709 150.982 342.148 147.829L339.538 149.938L341.604 146.742C339.635 142.863 338.086 140.419 338.086 140.419C338.086 140.419 329.993 153.183 327.29 166.698L332.468 174.707L326.735 170.073C326.531 171.647 326.426 173.233 326.421 174.821C326.421 190.826 331.644 203.801 338.086 203.801C344.529 203.801 349.751 190.826 349.751 174.821C349.751 169.859 348.63 164.667 347.083 159.865L342.252 163.77Z" fill="#E6E6E6"/>
<path d="M353.501 164.604L357.537 158.362C356.34 155.054 354.958 151.816 353.397 148.663L350.787 150.772L352.853 147.576C350.885 143.697 349.335 141.253 349.335 141.253C349.335 141.253 341.242 154.017 338.539 167.532L343.717 175.541L337.984 170.907C337.78 172.481 337.675 174.067 337.67 175.654C337.67 191.66 342.893 204.635 349.335 204.635C355.778 204.635 361.001 191.66 361.001 175.654C361.001 170.693 359.879 165.501 358.332 160.699L353.501 164.604Z" fill="#1DCAAD"/>
<path d="M332.253 164.604L336.289 158.362C335.092 155.054 333.71 151.816 332.149 148.663L329.539 150.772L331.605 147.576C329.636 143.697 328.087 141.253 328.087 141.253C328.087 141.253 319.994 154.017 317.291 167.532L322.469 175.541L316.736 170.907C316.532 172.481 316.427 174.067 316.422 175.654C316.422 191.66 321.645 204.635 328.087 204.635C334.53 204.635 339.753 191.66 339.753 175.654C339.753 170.693 338.631 165.501 337.084 160.699L332.253 164.604Z" fill="#1DCAAD"/>
<path d="M154.566 176.89H129.985L130.818 166.048H153.732L154.566 176.89Z" fill="#E6E6E6"/>
<path d="M156.231 175.639H128.734V178.141H156.231V175.639Z" fill="#E6E6E6"/>
<path d="M189.353 96.2025H95.406C94.743 96.2025 94.1072 96.4661 93.6384 96.9353C93.1696 97.4045 92.9062 98.0409 92.9062 98.7045V156.04H191.853V98.7045C191.853 98.0409 191.59 97.4045 191.121 96.9353C190.652 96.4661 190.016 96.2025 189.353 96.2025Z" fill="#3F3D56"/>
<path d="M92.9062 156.04V165.423C92.9062 166.086 93.1696 166.723 93.6384 167.192C94.1072 167.661 94.743 167.925 95.406 167.925H189.353C190.016 167.925 190.652 167.661 191.121 167.192C191.59 166.723 191.853 166.086 191.853 165.423V156.04H92.9062Z" fill="#E6E6E6"/>
<path d="M187.062 101.415H97.9053V151.454H187.062V101.415Z" fill="white"/>
<path d="M142.484 164.38C143.865 164.38 144.984 163.26 144.984 161.878C144.984 160.497 143.865 159.376 142.484 159.376C141.104 159.376 139.984 160.497 139.984 161.878C139.984 163.26 141.104 164.38 142.484 164.38Z" fill="#3F3D56"/>
<path d="M150.857 115.54H126.817V116.921H150.857V115.54Z" fill="#3F3D56"/>
<path d="M163.939 120.578H126.817V121.959H163.939V120.578Z" fill="#84A5E3"/>
<path d="M157.071 125.324H126.817V126.706H157.071V125.324Z" fill="#84A5E3"/>
<path d="M144.479 130.053H126.817V131.434H144.479V130.053Z" fill="#3F3D56"/>
<path d="M153.473 134.782H126.817V136.163H153.473V134.782Z" fill="#3F3D56"/>
<path d="M118.805 115.049H115.861V117.995H118.805V115.049Z" fill="#3F3D56"/>
<path d="M118.805 119.795H115.861V122.741H118.805V119.795Z" fill="#3F77DF"/>
<path d="M118.805 124.542H115.861V127.488H118.805V124.542Z" fill="#3F77DF"/>
<path d="M118.805 129.289H115.861V132.235H118.805V129.289Z" fill="#3F3D56"/>
<path d="M118.805 134.035H115.861V136.981H118.805V134.035Z" fill="#3F3D56"/>
<path d="M182.932 112.925H170.317C169.456 107.944 169.456 102.852 170.317 97.8706H182.932C181.51 102.788 181.51 108.008 182.932 112.925Z" fill="#FFF3CD"/>
<path d="M91.1408 120.596L85.951 119.33C83.9706 119.332 82.0144 118.894 80.2239 118.047C78.4335 117.2 76.8536 115.965 75.5986 114.431C74.3436 112.898 73.4448 111.104 72.9673 109.181C72.4899 107.257 72.4457 105.251 72.8379 103.308V103.308C72.8321 98.6724 74.6664 94.2241 77.9374 90.942C81.2084 87.6599 85.6481 85.8127 90.2798 85.8069H90.2798C94.9115 85.8011 99.3558 87.6371 102.635 90.9109C105.914 94.1848 107.76 98.6285 107.766 103.264V103.264C110.708 113.513 101.492 123.121 91.1408 120.596Z" fill="#2F2E41"/>
<path d="M96.8096 122.423C103.896 122.423 109.642 116.673 109.642 109.58C109.642 102.486 103.896 96.7362 96.8096 96.7362C89.7226 96.7362 83.9775 102.486 83.9775 109.58C83.9775 116.673 89.7226 122.423 96.8096 122.423Z" fill="#FFB8B8"/>
<path d="M88.441 116.281C88.441 116.281 84.5356 129.682 82.304 130.799C80.0723 131.916 100.157 133.591 100.157 133.591C100.157 133.591 99.5993 120.748 100.715 119.631C101.831 118.514 88.441 116.281 88.441 116.281Z" fill="#FFB8B8"/>
<path d="M108.526 198.925C108.526 198.925 133.632 196.692 136.98 205.068C140.327 213.444 134.748 263.143 134.748 263.143H124.148V222.379C124.148 222.379 78.9492 209.52 78.9492 205.052C78.9492 200.585 108.526 198.925 108.526 198.925Z" fill="#2F2E41"/>
<path d="M133.075 260.909L138.654 263.142C138.654 263.142 145.349 262.584 142.559 267.61C141.761 269.069 140.644 270.328 139.291 271.295C137.939 272.262 136.386 272.911 134.748 273.194C134.748 273.194 124.148 277.103 123.59 273.194C123.032 269.285 126.38 261.467 126.38 261.467L133.075 260.909Z" fill="#2F2E41"/>
<path d="M94.578 198.925C94.578 198.925 119.684 196.692 123.032 205.068C126.379 213.444 120.8 263.142 120.8 263.142H110.2V222.379C110.2 222.379 78.1159 214.94 78.1159 210.473C78.1159 208.374 75.9296 197.709 79.7823 195.461C84.1306 192.925 94.578 198.925 94.578 198.925Z" fill="#2F2E41"/>
<path d="M119.126 260.909L124.706 263.142C124.706 263.142 131.401 262.584 128.611 267.61C127.812 269.069 126.695 270.328 125.343 271.295C123.991 272.262 122.438 272.911 120.8 273.194C120.8 273.194 110.2 277.103 109.642 273.194C109.084 269.285 112.431 261.467 112.431 261.467L119.126 260.909Z" fill="#2F2E41"/>
<path d="M82.8619 129.124L99.6284 130.948C102.216 131.23 104.649 132.322 106.579 134.07C108.509 135.818 109.838 138.132 110.376 140.681L116.895 171.563C116.895 171.563 119.126 202.276 114.663 203.951C110.2 205.626 104.063 197.25 95.694 198.367C87.3252 199.484 76.4459 201.997 76.4459 201.997C76.4459 201.997 74.7182 147.022 74.4932 142.526C74.0433 133.537 82.8619 129.124 82.8619 129.124Z" fill="#575A89"/>
<path d="M122.577 200.521L129.461 204.578C129.461 204.578 141.809 202.805 141.424 207.149C141.039 211.493 127.559 210.654 127.559 210.654L119.264 205.538L122.577 200.521Z" fill="#FFB8B8"/>
<path d="M71.9022 99.1339C76.4801 99.1339 80.1912 95.4195 80.1912 90.8376C80.1912 86.2557 76.4801 82.5413 71.9022 82.5413C67.3244 82.5413 63.6133 86.2557 63.6133 90.8376C63.6133 95.4195 67.3244 99.1339 71.9022 99.1339Z" fill="#2F2E41"/>
<path d="M79.551 86.3778C79.55 85.1506 79.2769 83.9388 78.7514 82.8301C78.2259 81.7213 77.461 80.7431 76.512 79.966C75.563 79.189 74.4535 78.6324 73.2636 78.3365C72.0736 78.0406 70.8329 78.0127 69.6309 78.2549C70.6914 77.7533 71.8463 77.4828 73.0192 77.4613C74.192 77.4399 75.356 77.6679 76.4342 78.1304C77.5124 78.5929 78.4802 79.2792 79.2735 80.144C80.0669 81.0089 80.6677 82.0325 81.0362 83.1471C81.4048 84.2617 81.5326 85.4419 81.4114 86.6097C81.2901 87.7775 80.9225 88.9062 80.3328 89.9211C79.7431 90.936 78.9448 91.8141 77.9907 92.4971C77.0366 93.1802 75.9485 93.6526 74.7984 93.8833C76.2206 93.2127 77.4227 92.1508 78.2643 90.8218C79.1059 89.4927 79.5522 87.9513 79.551 86.3778V86.3778Z" fill="#2F2E41"/>
<path d="M86.6618 91.0828L97.8366 89.0234L106.43 94.4145C108.543 95.7398 110.232 97.6439 111.296 99.9008C112.361 102.158 112.756 104.673 112.436 107.148L103.829 104.964L101.901 100.127L99.6057 103.893L87.6041 119.352L80.8657 115.057L74.8584 105.635L86.6618 91.0828Z" fill="#2F2E41"/>
<path d="M95.8643 133.874L101.443 131.082C101.443 131.082 113.16 132.757 115.391 140.575C117.623 148.393 127.665 202.559 127.665 202.559L118.181 207.026L104.791 174.08L95.8643 133.874Z" fill="#575A89"/>
<path opacity="0.2" d="M100.613 155.848L106.197 177.541L116.099 201.905L115.756 202.748L103.946 177.948L100.613 155.848Z" fill="black"/>
<path d="M58.9496 275.483L56.9805 274.804L76.0565 218.092L78.814 219.043L58.9496 275.483Z" fill="#3F3D56"/>
<path d="M131.861 275.483L133.831 274.804L114.754 218.092L111.997 219.043L131.861 275.483Z" fill="#3F3D56"/>
<path d="M91.5524 287.195L93.6353 287.203L94.2825 220.908L91.3662 220.898L91.5524 287.195Z" fill="#3F3D56"/>
<path d="M54.1293 184.769L59.8432 207.883C60.6434 211.12 62.3094 214.078 64.6623 216.439C67.0152 218.8 69.9662 220.474 73.1983 221.283H73.1983C89.1337 225.27 105.817 225.163 121.7 220.97L130.231 218.718C135.188 217.41 138.916 213.149 139.268 208.03C139.411 206.22 139.084 204.404 138.318 202.759C138.285 202.688 138.251 202.618 138.218 202.548C137.105 200.261 135.389 198.321 133.254 196.94C131.12 195.559 128.648 194.788 126.108 194.711L117.07 194.419L84.1576 179.824C84.1576 179.824 72.838 174.07 63.5324 173.425C57.3868 173 52.6497 178.784 54.1293 184.769Z" fill="#3F77DF"/>
<path d="M254.762 112.064H222.266V156.264H254.762V112.064Z" fill="#E6E6E6"/>
<path d="M251.013 117.164H226.016V151.164H251.013V117.164Z" fill="white"/>
<path d="M247.965 126.061H235.854V127.443H247.965V126.061Z" fill="#3F3D56"/>
<path d="M232.007 125.297H229.063V128.243H232.007V125.297Z" fill="#3F3D56"/>
<path d="M247.965 131.899H235.854V133.28H247.965V131.899Z" fill="#3F3D56"/>
<path d="M232.007 131.135H229.063V134.081H232.007V131.135Z" fill="#3F3D56"/>
<path d="M247.965 137.737H235.854V139.118H247.965V137.737Z" fill="#3F3D56"/>
<path d="M232.007 136.973H229.063V139.919H232.007V136.973Z" fill="#3F3D56"/>
<path d="M239.764 114.566C239.764 113.875 239.205 113.315 238.515 113.315C237.824 113.315 237.265 113.875 237.265 114.566C237.265 115.257 237.824 115.817 238.515 115.817C239.205 115.817 239.764 115.257 239.764 114.566Z" fill="#3F3D56"/>
</g>
<defs>
<clipPath id="clip0_812_79">
<rect width="361" height="287" fill="white"/>
</clipPath>
</defs>
</svg>
