<svg width="361" height="287" viewBox="0 0 361 287" fill="none" xmlns="http://www.w3.org/2000/svg">
<path d="M16.4789 249.466C18.0047 237.244 25.6087 225.202 37.3099 221.224C32.6953 233.804 32.6963 247.605 37.3127 260.184C39.1108 265.029 41.617 270.232 39.9258 275.114C38.8735 278.153 36.2991 280.477 33.4216 281.931C30.5438 283.384 27.3502 284.077 24.1964 284.756L23.5758 285.267C18.5693 274.006 14.9531 261.689 16.4789 249.466Z" fill="#1DCAAD"/>
<path d="M37.4261 221.455C30.6118 229.061 26.3765 238.612 25.3218 248.753C25.0559 250.932 25.1364 253.139 25.5603 255.293C26.0414 257.378 27.0742 259.296 28.5513 260.849C29.8994 262.324 31.4499 263.678 32.4145 265.454C32.8947 266.371 33.1749 267.378 33.2369 268.41C33.2989 269.442 33.1413 270.476 32.7742 271.443C31.9226 273.876 30.2441 275.859 28.535 277.742C26.6374 279.832 24.6331 281.973 23.8265 284.744C23.7288 285.08 23.2115 284.91 23.3091 284.574C24.7125 279.753 29.4109 277.014 31.6515 272.672C32.697 270.645 33.1359 268.293 32.1557 266.154C31.2986 264.283 29.7009 262.886 28.323 261.404C26.8597 259.91 25.7859 258.082 25.1953 256.079C24.6626 253.954 24.4969 251.753 24.7052 249.573C25.0957 244.655 26.2599 239.83 28.1552 235.273C30.2893 230.06 33.3029 225.249 37.0655 221.048C37.2985 220.788 37.6576 221.197 37.4261 221.455H37.4261Z" fill="white"/>
<path d="M25.4683 245.468C23.7845 245.06 22.3008 244.07 21.2822 242.674C20.2636 241.277 19.7764 239.566 19.9077 237.845C19.9355 237.497 20.4799 237.523 20.4521 237.872C20.3269 239.474 20.7808 241.069 21.732 242.367C22.6832 243.665 24.0689 244.582 25.6391 244.952C25.9803 245.033 25.8075 245.548 25.4683 245.468H25.4683Z" fill="white"/>
<path d="M27.7682 260.19C30.8094 258.382 33.0544 255.497 34.0556 252.113C34.1546 251.777 34.6719 251.948 34.5731 252.283C33.5246 255.803 31.1822 258.8 28.0132 260.675C27.7111 260.854 27.4676 260.368 27.7682 260.19V260.19Z" fill="white"/>
<path d="M30.7941 230.574C31.4127 230.867 32.0946 231.002 32.7785 230.967C33.4625 230.933 34.1271 230.729 34.7127 230.376C35.0125 230.193 35.2556 230.679 34.9578 230.86C34.309 231.248 33.5747 231.472 32.8191 231.512C32.0635 231.552 31.3096 231.407 30.6233 231.089C30.5561 231.065 30.5008 231.016 30.4686 230.952C30.4364 230.888 30.4297 230.815 30.45 230.746C30.473 230.678 30.522 230.622 30.5864 230.59C30.6509 230.557 30.7255 230.552 30.7941 230.574V230.574Z" fill="white"/>
<path d="M72.9762 243.055C72.7923 243.174 72.6084 243.293 72.4243 243.416C69.9599 245.031 67.6314 246.842 65.4615 248.832C65.2913 248.983 65.121 249.139 64.9555 249.294C59.7791 254.144 55.5515 259.909 52.4876 266.296C51.2708 268.838 50.2499 271.47 49.4338 274.167C48.3069 277.891 47.3826 282.019 45.1521 285.066C44.9229 285.386 44.6741 285.692 44.407 285.982H24.2494C24.2035 285.959 24.1575 285.941 24.1115 285.918L23.3066 285.954C23.339 285.812 23.3756 285.666 23.4079 285.524C23.4263 285.441 23.4492 285.359 23.4677 285.276C23.4814 285.221 23.4953 285.166 23.5045 285.116C23.509 285.098 23.5137 285.079 23.5182 285.066C23.5274 285.015 23.5413 284.969 23.5505 284.924C23.7528 284.104 23.9613 283.284 24.1759 282.463C24.1759 282.459 24.1759 282.459 24.1804 282.454C25.8316 276.21 28.0207 270.048 31.079 264.413C31.171 264.243 31.2629 264.069 31.3642 263.9C32.7569 261.367 34.355 258.953 36.1426 256.68C37.1255 255.438 38.1708 254.247 39.2746 253.111C42.1323 250.18 45.4348 247.716 49.0612 245.808C56.291 242.005 64.6611 240.549 72.3877 242.871C72.5853 242.931 72.7786 242.99 72.9762 243.055Z" fill="#1DCAAD"/>
<path d="M72.931 243.309C62.8933 245.295 53.7389 250.381 46.7682 257.845C45.2389 259.425 43.9692 261.236 43.0059 263.21C42.1299 265.163 41.7949 267.315 42.0358 269.44C42.2204 271.427 42.6402 273.438 42.3368 275.434C42.1663 276.454 41.7813 277.427 41.2071 278.288C40.6329 279.149 39.8824 279.879 39.0049 280.431C36.8543 281.863 34.3155 282.44 31.813 282.918C29.0345 283.449 26.14 283.957 23.8211 285.686C23.5401 285.895 23.2302 285.449 23.5108 285.24C27.5454 282.232 32.952 282.863 37.3657 280.739C39.4252 279.748 41.1974 278.133 41.7076 275.838C42.1537 273.83 41.7226 271.756 41.5182 269.746C41.2527 267.676 41.5002 265.572 42.2389 263.619C43.0983 261.603 44.2958 259.746 45.7803 258.13C49.0641 254.438 52.9102 251.283 57.1777 248.781C62.0323 245.899 67.3461 243.865 72.8892 242.768C73.2323 242.7 73.2719 243.242 72.931 243.309H72.931Z" fill="white"/>
<path d="M48.8708 255.31C47.7725 253.975 47.1863 252.295 47.217 250.569C47.2476 248.843 47.8931 247.184 49.0382 245.889C49.2708 245.628 49.6894 245.975 49.4565 246.237C48.388 247.441 47.7868 248.987 47.7616 250.594C47.7363 252.201 48.2886 253.764 49.3187 255.001C49.5423 255.27 49.0931 255.578 48.8708 255.31H48.8708Z" fill="white"/>
<path d="M41.8091 268.445C45.3306 268.825 48.8665 267.869 51.7115 265.767C51.9932 265.558 52.3031 266.005 52.0218 266.213C49.0571 268.395 45.3755 269.383 41.7118 268.979C41.3626 268.941 41.4618 268.407 41.8091 268.445V268.445Z" fill="white"/>
<path d="M62.1249 246.613C62.4418 247.218 62.9045 247.735 63.4715 248.117C64.0386 248.5 64.6921 248.736 65.3734 248.805C65.7229 248.839 65.6233 249.373 65.2761 249.339C64.5236 249.259 63.8022 248.998 63.1748 248.576C62.5474 248.155 62.0332 247.587 61.6769 246.922C61.6381 246.862 61.6236 246.79 61.6364 246.72C61.6492 246.649 61.6883 246.587 61.7458 246.544C61.8053 246.504 61.8785 246.488 61.9495 246.501C62.0205 246.514 62.0835 246.554 62.1249 246.613V246.613Z" fill="white"/>
<path d="M218.054 280.537L223.398 278.746L219.006 257.36L211.119 260.004L218.054 280.537Z" fill="#FFB6B6"/>
<path d="M216.104 279.256L217.609 278.752L222.678 274.405L226.629 275.729L226.629 275.729C228.408 275.133 230.352 275.265 232.032 276.096C233.713 276.928 234.994 278.39 235.592 280.162L235.666 280.379L218.434 286.154L216.104 279.256Z" fill="#2F2E41"/>
<path d="M192.128 277.018L197.615 278.31L205.231 257.843L197.133 255.935L192.128 277.018Z" fill="#FFB6B6"/>
<path d="M191.152 274.903L192.697 275.267L199.306 274.245L201.958 277.449L201.958 277.449C203.785 277.879 205.365 279.015 206.351 280.606C207.337 282.196 207.648 284.112 207.216 285.931L207.163 286.154L189.471 281.986L191.152 274.903Z" fill="#2F2E41"/>
<path d="M145.403 274.032H155.083V258.053H145.403V274.032Z" fill="#CACACA"/>
<path d="M154.598 266.508L153.355 268.332L176.587 284.036L177.829 282.212L154.598 266.508Z" fill="#CACACA"/>
<path d="M145.888 266.508L122.657 282.212L123.9 284.036L147.131 268.332L145.888 266.508Z" fill="#CACACA"/>
<path d="M177.208 286.154C178.888 286.154 180.25 284.797 180.25 283.124C180.25 281.45 178.888 280.093 177.208 280.093C175.528 280.093 174.166 281.45 174.166 283.124C174.166 284.797 175.528 286.154 177.208 286.154Z" fill="#CACACA"/>
<path d="M150.106 286.154C151.786 286.154 153.148 284.797 153.148 283.124C153.148 281.45 151.786 280.093 150.106 280.093C148.426 280.093 147.063 281.45 147.063 283.124C147.063 284.797 148.426 286.154 150.106 286.154Z" fill="#CACACA"/>
<path d="M123.279 286.154C124.959 286.154 126.321 284.797 126.321 283.124C126.321 281.45 124.959 280.093 123.279 280.093C121.598 280.093 120.236 281.45 120.236 283.124C120.236 284.797 121.598 286.154 123.279 286.154Z" fill="#CACACA"/>
<path d="M151.212 267.42H148.999V283.124H151.212V267.42Z" fill="#CACACA"/>
<path d="M148.169 265.216H152.317V244.003H148.169V265.216Z" fill="#CACACA"/>
<path d="M129.153 247.309V242.35C129.154 241.437 129.519 240.562 130.167 239.916C130.815 239.27 131.694 238.907 132.61 238.906H164.937C165.854 238.907 166.732 239.27 167.38 239.916C168.029 240.562 168.393 241.437 168.394 242.35V247.309C168.393 248.222 168.029 249.097 167.38 249.743C166.732 250.388 165.854 250.752 164.937 250.753H132.61C131.694 250.752 130.815 250.388 130.167 249.743C129.519 249.097 129.154 248.222 129.153 247.309Z" fill="#3F3D56"/>
<path d="M109.646 238.164L88.7755 202.417C88.0968 201.251 87.9099 199.865 88.2558 198.562C88.6018 197.26 89.4523 196.147 90.6209 195.468L91.8408 194.761C93.0109 194.085 94.4024 193.899 95.7102 194.243C97.0179 194.588 98.135 195.435 98.8164 196.599L119.687 232.346C120.366 233.512 120.553 234.898 120.207 236.201C119.861 237.504 119.01 238.616 117.842 239.295L116.622 240.002C115.452 240.678 114.06 240.864 112.752 240.52C111.445 240.175 110.327 239.328 109.646 238.164V238.164Z" fill="#3F3D56"/>
<path d="M129.29 247.138C124.778 247.133 120.453 245.346 117.263 242.168C114.073 238.99 112.279 234.681 112.273 230.187H114.113C114.113 232.957 114.877 235.673 116.321 238.039C117.765 240.406 119.834 242.332 122.302 243.607C124.77 244.882 127.542 245.458 130.316 245.271C133.089 245.084 135.758 244.142 138.031 242.548L139.092 244.045C136.226 246.065 132.8 247.146 129.29 247.138V247.138Z" fill="#3F3D56"/>
<path d="M148.605 221.483C148.605 221.483 200.114 205.906 207.932 225.148C215.751 244.389 223.109 266.38 223.109 266.38L212.991 269.587L193.216 236.601C193.216 236.601 145.549 248.513 135.579 234.54L148.605 221.483Z" fill="#2F2E41"/>
<path d="M111.353 182.541L99.3952 181.625L97.0957 196.285C97.0957 196.285 111.813 234.31 137.107 237.975L161.022 216.443L134.536 206.613L111.353 182.541Z" fill="#3F77DF"/>
<path d="M109.955 173.826C117.681 169.984 120.817 160.63 116.96 152.935C113.103 145.239 103.714 142.115 95.9883 145.957C88.2628 149.799 85.1266 159.152 88.9834 166.848C92.8403 174.544 102.23 177.668 109.955 173.826Z" fill="#FFB8B8"/>
<path d="M107.31 176.025C106.588 176.626 105.501 176.943 104.013 176.989C99.6352 177.124 95.334 175.824 91.7692 173.289C88.2044 170.754 85.5728 167.124 84.2782 162.956C83.6268 160.859 83.075 157.73 84.1457 154.734C84.9157 152.582 86.4276 150.776 87.7842 149.253C88.9585 147.934 90.184 146.642 91.4271 145.413C92.912 143.944 94.6822 142.313 96.9025 141.547C98.5294 140.986 100.273 140.936 101.959 140.888C102.547 140.871 103.155 140.853 103.746 140.814C105.214 140.764 106.656 140.406 107.976 139.763C108.247 139.618 108.546 139.533 108.853 139.514C109.16 139.494 109.467 139.54 109.755 139.649C110.047 139.759 110.312 139.931 110.533 140.152C110.753 140.374 110.923 140.639 111.031 140.932C111.245 141.506 111.437 142.025 112.089 142.216C112.324 142.279 112.571 142.284 112.809 142.229C113.046 142.175 113.266 142.064 113.451 141.905C113.548 141.822 113.665 141.763 113.79 141.736C113.916 141.709 114.046 141.713 114.169 141.749C114.293 141.783 114.406 141.847 114.5 141.934C114.593 142.022 114.663 142.132 114.704 142.253L114.758 142.41C114.891 142.319 115.046 142.26 115.207 142.241C115.368 142.222 115.532 142.242 115.684 142.299C115.904 142.378 116.091 142.53 116.213 142.728C116.335 142.927 116.385 143.162 116.356 143.393C116.137 145.299 115.387 147.107 114.19 148.61C113.362 149.628 112.341 150.475 111.186 151.101L111.001 151.203L110.873 151.011C105.677 152.923 104.09 158.346 104.347 162.82L103.892 162.881C103.857 162.735 103.793 162.599 103.703 162.479C103.613 162.359 103.5 162.258 103.371 162.183C103.22 162.088 103.053 162.023 102.878 161.993C102.703 161.963 102.523 161.967 102.35 162.006C102.02 162.109 101.728 162.308 101.511 162.576C101.294 162.845 101.162 163.171 101.132 163.515C101.108 163.873 101.16 164.233 101.283 164.571C101.407 164.908 101.6 165.217 101.849 165.476C102.393 166.014 103.021 166.46 103.709 166.797C104.021 166.973 104.343 167.154 104.649 167.353C106.378 168.49 107.626 170.223 108.153 172.219C108.391 173.132 108.527 174.435 107.829 175.456C107.683 175.669 107.508 175.86 107.31 176.025V176.025Z" fill="#2F2E41"/>
<path d="M209.967 231.048C207.561 251.667 202.414 270.961 202.414 270.961L192.756 269.587L194.956 230.704" fill="#2F2E41"/>
<path d="M161.406 223.942C160.883 223.514 160.272 223.207 159.617 223.04C158.962 222.874 158.278 222.852 157.614 222.977C156.95 223.102 156.321 223.371 155.772 223.764C155.223 224.158 154.768 224.666 154.438 225.254L138.258 222.383L141.636 230.196L156.483 231.725C157.511 232.212 158.682 232.307 159.776 231.991C160.869 231.675 161.808 230.971 162.415 230.011C163.021 229.052 163.254 227.904 163.068 226.785C162.882 225.667 162.291 224.655 161.406 223.942H161.406Z" fill="#FFB6B6"/>
<path d="M150.885 231.812L121.232 229.49L121.173 229.378C121.06 229.165 109.824 207.963 108.171 203.099C107.142 200.17 107.15 196.978 108.193 194.055L108.223 193.984L108.29 193.945C109.657 193.166 111.25 192.873 112.806 193.116C114.362 193.359 115.788 194.123 116.849 195.282C121.945 200.905 125.659 207.63 127.698 214.928L128.853 219.08L150.068 223.814L150.885 231.812Z" fill="#3F77DF"/>
<path d="M262.979 100.467L262.787 100.696C262.436 99.9913 261.971 99.349 261.411 98.7947C260.938 98.3259 260.371 97.9625 259.746 97.7286C259.17 97.5179 258.55 97.4534 257.943 97.5408C257.295 97.642 256.68 97.891 256.144 98.2683C255.537 98.6956 255.009 99.2254 254.585 99.8338C254.114 100.505 253.731 101.234 253.448 102.003C253.138 102.836 252.92 103.701 252.798 104.582C252.667 105.512 252.635 106.453 252.702 107.39C252.734 107.857 252.792 108.322 252.876 108.783C252.956 109.227 253.063 109.666 253.195 110.098C253.321 110.511 253.474 110.916 253.652 111.31C253.821 111.684 254.017 112.046 254.239 112.392L254.077 112.645C253.846 112.285 253.642 111.908 253.466 111.518C253.28 111.108 253.121 110.686 252.99 110.256C252.853 109.807 252.742 109.35 252.658 108.887C252.571 108.408 252.511 107.924 252.477 107.438C252.408 106.463 252.442 105.484 252.578 104.516C252.705 103.6 252.931 102.699 253.254 101.831C253.548 101.031 253.946 100.272 254.436 99.5731C254.878 98.9394 255.427 98.3875 256.059 97.9421C256.616 97.5484 257.257 97.2883 257.932 97.1821C258.564 97.0902 259.209 97.1567 259.81 97.3754C260.46 97.6183 261.051 97.9962 261.544 98.4841C262.128 99.062 262.613 99.7319 262.979 100.467Z" fill="white"/>
<path d="M281.883 147.508C281.898 147.453 281.925 147.403 281.962 147.361C282 147.319 282.047 147.286 282.1 147.266C282.237 147.216 282.384 147.2 282.529 147.22C282.729 147.244 282.925 147.294 283.112 147.368C283.347 147.458 283.573 147.569 283.787 147.7C284.015 147.837 284.23 147.993 284.431 148.165C284.612 148.318 284.777 148.486 284.926 148.669C285.047 148.816 285.147 148.98 285.221 149.156C285.28 149.283 285.297 149.425 285.27 149.562C285.255 149.617 285.228 149.668 285.189 149.71C285.151 149.752 285.103 149.785 285.049 149.805C284.91 149.854 284.76 149.869 284.614 149.847C284.413 149.821 284.215 149.771 284.027 149.696C283.791 149.604 283.565 149.491 283.35 149.359C283.124 149.222 282.91 149.067 282.71 148.895C282.532 148.742 282.368 148.574 282.221 148.391C282.102 148.245 282.004 148.083 281.931 147.91C281.873 147.784 281.857 147.644 281.883 147.508V147.508Z" fill="white"/>
<path d="M288.016 147.573C288.038 147.522 288.072 147.478 288.117 147.445C288.161 147.412 288.213 147.392 288.268 147.386C288.42 147.371 288.574 147.392 288.716 147.447C288.92 147.521 289.116 147.619 289.298 147.737C289.53 147.886 289.749 148.052 289.954 148.235C290.171 148.428 290.374 148.635 290.56 148.857C290.726 149.052 290.875 149.261 291.006 149.482C291.112 149.655 291.194 149.842 291.25 150.038C291.295 150.172 291.295 150.318 291.25 150.452C291.228 150.504 291.193 150.548 291.148 150.581C291.103 150.613 291.05 150.634 290.994 150.639C290.84 150.653 290.685 150.63 290.541 150.573C290.335 150.497 290.139 150.398 289.955 150.277C289.724 150.127 289.505 149.959 289.3 149.773C289.085 149.582 288.884 149.375 288.699 149.155C288.535 148.961 288.388 148.753 288.258 148.535C288.153 148.363 288.072 148.177 288.016 147.984C287.972 147.85 287.972 147.706 288.016 147.573Z" fill="white"/>
<path d="M290.868 153.688C290.888 153.635 290.922 153.589 290.965 153.554C291.009 153.519 291.062 153.496 291.117 153.487C291.27 153.464 291.426 153.478 291.572 153.528C291.781 153.593 291.982 153.682 292.17 153.793C292.409 153.931 292.636 154.089 292.849 154.265C293.075 154.448 293.287 154.648 293.483 154.863C293.658 155.053 293.816 155.257 293.956 155.473C294.069 155.644 294.159 155.829 294.222 156.023C294.272 156.158 294.277 156.305 294.235 156.442C294.215 156.495 294.18 156.541 294.136 156.576C294.091 156.611 294.038 156.634 293.982 156.642C293.827 156.664 293.67 156.648 293.522 156.596C293.311 156.53 293.109 156.439 292.919 156.326C292.68 156.186 292.452 156.028 292.239 155.852C292.015 155.668 291.804 155.468 291.609 155.253C291.437 155.065 291.281 154.862 291.142 154.647C291.031 154.478 290.943 154.295 290.881 154.103C290.832 153.969 290.828 153.824 290.868 153.688V153.688Z" fill="white"/>
<path d="M296.983 156.254C297.004 156.201 297.039 156.154 297.084 156.118C297.13 156.083 297.184 156.06 297.241 156.052C297.399 156.03 297.56 156.046 297.711 156.098C297.927 156.165 298.135 156.258 298.33 156.372C298.577 156.514 298.812 156.676 299.033 156.855C299.266 157.043 299.485 157.248 299.688 157.467C299.868 157.662 300.032 157.871 300.177 158.092C300.294 158.266 300.387 158.455 300.453 158.654C300.504 158.79 300.509 158.94 300.467 159.08C300.445 159.133 300.409 159.181 300.363 159.216C300.317 159.252 300.262 159.274 300.205 159.282C300.044 159.302 299.881 159.286 299.728 159.232C299.51 159.163 299.301 159.069 299.104 158.953C298.857 158.809 298.622 158.646 298.4 158.464C298.169 158.276 297.951 158.071 297.75 157.851C297.572 157.659 297.411 157.452 297.268 157.232C297.153 157.06 297.062 156.873 296.997 156.676C296.946 156.541 296.941 156.393 296.983 156.254V156.254Z" fill="white"/>
<path d="M262.584 105.161L262.27 105.564C262.296 105.529 262.323 105.494 262.35 105.46C262.377 105.426 262.404 105.392 262.432 105.359C262.459 105.326 262.487 105.293 262.516 105.261C262.544 105.229 262.572 105.197 262.6 105.165L262.584 105.161Z" fill="#F2F2F2"/>
<path d="M360.162 287H0.836C0.614057 287 0.401418 286.947 0.244707 286.853C0.0879961 286.759 0 286.632 0 286.5C0 286.368 0.0879961 286.241 0.244707 286.147C0.401418 286.053 0.614057 286 0.836 286H360.162C360.384 286 360.597 286.053 360.754 286.146C360.912 286.24 361 286.367 361 286.5C361 286.633 360.912 286.76 360.754 286.854C360.597 286.947 360.384 287 360.162 287V287Z" fill="#CACACA"/>
<path d="M250.997 196.597C250.997 194.435 251.745 192.681 252.662 192.676H321.766C322.687 192.681 323.43 194.435 323.434 196.597V285.59C323.434 285.79 323.511 285.984 323.65 286.132C323.789 286.281 323.979 286.374 324.185 286.394C324.856 286.456 325.527 286.515 326.199 286.568C326.215 286.568 326.232 286.572 326.248 286.572C326.614 286.605 326.979 286.629 327.344 286.657H327.348C327.536 286.32 327.722 285.979 327.905 285.636C327.968 285.52 328 285.391 328 285.261V191.511C328 190.914 327.975 190.313 327.934 189.72C327.874 188.906 327.77 188.095 327.622 187.292C326.921 183.545 325.335 181.008 323.534 181H250.898C250.635 181.002 250.375 181.055 250.134 181.157C249.78 181.31 249.46 181.527 249.192 181.799C248.828 182.166 248.516 182.58 248.266 183.029C247.378 184.549 246.743 186.816 246.519 189.454C246.519 189.478 246.515 189.502 246.515 189.526C246.457 190.18 246.428 190.845 246.432 191.511L246.374 200.154L246.336 205.309L246.224 221.483L246.183 227.226L246 286.193C246 286.407 246.087 286.612 246.243 286.764C246.399 286.915 246.61 287 246.83 287H250.167C250.387 287 250.599 286.915 250.754 286.764C250.91 286.612 250.997 286.407 250.997 286.193L250.997 196.597Z" fill="#3F3D56"/>
<path d="M251.678 178.226L268.44 178.043L269.928 178.026L270.988 178.013L272.224 178H272.234C272.414 178.001 272.586 178.123 272.713 178.341L274.8 181.952C274.846 182.03 274.884 182.123 274.911 182.225C274.924 182.254 274.935 182.285 274.943 182.319C274.988 182.5 275.007 182.698 274.998 182.895C274.988 183.092 274.951 183.282 274.889 183.448C274.827 183.614 274.742 183.751 274.643 183.848C274.543 183.944 274.431 183.996 274.317 184H252.604C252.473 183.999 252.346 183.935 252.236 183.814C252.126 183.693 252.038 183.521 251.982 183.317L251.812 182.677L251.461 181.376L251.064 179.908C251.022 179.751 251 179.581 251 179.408C251.001 179.097 251.073 178.798 251.199 178.577C251.326 178.356 251.498 178.23 251.678 178.226V178.226Z" fill="#343347"/>
<path d="M303.802 156.456L308.638 177.73L311.727 181.114H313.956L304.769 142.435L304.315 149.006V149.01L303.802 156.456Z" fill="#3F3D56"/>
<path d="M280.534 178.197L308.899 178.017L311.416 178.001L313.211 177.988L315.303 177.976H315.32C315.623 177.976 315.914 178.096 316.13 178.31L319.662 181.842C319.74 181.919 319.804 182.009 319.85 182.109C319.872 182.137 319.89 182.168 319.904 182.201C319.98 182.378 320.012 182.572 319.996 182.765C319.98 182.957 319.917 183.143 319.812 183.306C319.707 183.468 319.564 183.602 319.395 183.697C319.226 183.791 319.037 183.842 318.843 183.846H282.099C281.879 183.845 281.663 183.782 281.477 183.663C281.291 183.545 281.142 183.377 281.047 183.178L280.759 182.551L280.166 181.278L279.494 179.842C279.422 179.689 279.385 179.522 279.386 179.353C279.387 179.049 279.508 178.757 279.723 178.54C279.938 178.324 280.229 178.201 280.534 178.197V178.197Z" fill="#3F3D56"/>
<path opacity="0.17" d="M280.759 182.55L281.049 183.179C281.143 183.378 281.291 183.546 281.477 183.664C281.663 183.782 281.878 183.845 282.098 183.846H318.843C319.037 183.843 319.226 183.792 319.395 183.697C319.564 183.603 319.707 183.469 319.812 183.307C319.916 183.144 319.979 182.958 319.995 182.766C320.011 182.573 319.979 182.38 319.902 182.202C319.889 182.169 319.871 182.138 319.849 182.11L280.759 182.55Z" fill="black"/>
<path opacity="0.17" d="M304.315 149.006V149.01L312.182 181.114H313.956L304.769 142.435L304.315 149.006Z" fill="black"/>
<path d="M294.662 154.888L305.797 70.1738C305.838 69.8563 306.003 69.5679 306.256 69.3722L313.922 59.7781L314.611 59.2479C314.866 59.0547 315.187 58.9692 315.504 59.0099L316.656 59.1644C316.974 59.2054 317.263 59.3709 317.458 59.6246C317.654 59.8782 317.741 60.1993 317.7 60.5171V60.5171L306.16 148.292V148.296L305.455 153.665L304.616 160.04V160.048L303.313 169.968C303.292 170.138 303.235 170.301 303.145 170.447C303.055 170.593 302.934 170.717 302.791 170.811C302.651 170.908 302.491 170.974 302.324 171.004C302.156 171.034 301.984 171.028 301.818 170.987L301.088 170.803C300.808 170.731 300.562 170.562 300.395 170.327L300.069 169.864L299.919 169.646L294.875 155.744C294.698 155.496 294.622 155.19 294.662 154.888V154.888Z" fill="#3F3D56"/>
<path opacity="0.17" d="M313.923 59.7786L299.917 169.648L300.069 169.863L300.394 170.326C300.561 170.561 300.807 170.73 301.087 170.802L301.818 170.986C301.984 171.027 302.157 171.032 302.324 171.002C302.492 170.972 302.652 170.907 302.793 170.811C302.934 170.715 303.053 170.59 303.143 170.445C303.232 170.3 303.29 170.137 303.313 169.968L317.698 60.5185C317.739 60.2007 317.653 59.8793 317.458 59.6251C317.263 59.3708 316.975 59.2044 316.657 59.1626L315.502 59.0107C315.345 58.9896 315.185 58.9998 315.033 59.0408C314.88 59.0819 314.737 59.1529 314.612 59.2498L313.923 59.7786Z" fill="black"/>
<path d="M313.511 62.9207L306.078 73.5297L297.244 140.747L302.033 150.249L313.511 62.9207Z" fill="#84A5E3"/>
</svg>
