<svg width="361" height="269" viewBox="0 0 361 269" fill="none" xmlns="http://www.w3.org/2000/svg">
<g clip-path="url(#clip0_346_6502)">
<path d="M345.906 233.504C346.304 221.631 340.871 209.833 330.301 205.788C332.82 217.922 330.682 231.572 324.386 243.556C321.934 248.224 318.751 253.227 319.625 257.988C320.169 260.95 322.274 263.245 324.801 264.701C327.329 266.157 330.273 266.88 333.181 267.59L333.696 268.095C340.186 257.259 345.508 245.377 345.906 233.504Z" fill="#1DCAAD"/>
<path d="M330.156 206.01C335.454 213.413 338.157 222.906 337.571 232.669C337.485 234.83 337.074 236.966 336.351 239.005C335.553 241.05 334.286 242.878 332.651 244.343C331.14 245.751 329.454 247.039 328.264 248.745C327.676 249.578 327.262 250.52 327.047 251.517C326.832 252.513 326.82 253.543 327.012 254.544C327.455 256.917 328.757 258.867 330.103 260.719C331.598 262.777 333.187 264.885 333.537 267.584C333.579 267.911 334.099 267.754 334.057 267.428C333.448 262.731 329.378 260 327.897 255.754C327.206 253.772 327.144 251.485 328.405 249.427C329.507 247.628 331.245 246.299 332.785 244.884C334.401 243.471 335.695 241.729 336.58 239.773C337.401 237.766 337.892 235.638 338.035 233.474C338.417 228.804 338.037 224.103 336.911 219.555C335.702 214.548 333.546 209.819 330.562 205.621C330.379 205.365 329.974 205.756 330.156 206.01L330.156 206.01Z" fill="white"/>
<path d="M337.929 229.482C339.632 229.088 341.17 228.174 342.329 226.865C343.488 225.557 344.21 223.92 344.395 222.182C344.421 221.844 343.898 221.861 343.871 222.2C343.701 223.818 343.029 225.342 341.948 226.558C340.866 227.775 339.431 228.621 337.844 228.979C337.811 228.984 337.779 228.996 337.75 229.014C337.721 229.031 337.696 229.055 337.676 229.082C337.656 229.109 337.642 229.14 337.635 229.173C337.627 229.206 337.626 229.24 337.631 229.274C337.637 229.307 337.649 229.339 337.667 229.367C337.685 229.396 337.709 229.421 337.737 229.44C337.764 229.459 337.796 229.473 337.829 229.48C337.862 229.487 337.896 229.488 337.929 229.482V229.482Z" fill="white"/>
<path d="M333.498 243.717C332.187 242.807 331.083 241.63 330.26 240.263C329.437 238.895 328.912 237.369 328.721 235.784C328.677 235.458 328.157 235.615 328.201 235.941C328.403 237.589 328.952 239.176 329.812 240.597C330.673 242.018 331.824 243.24 333.191 244.183C333.452 244.361 333.758 243.894 333.498 243.717Z" fill="white"/>
<path d="M335.103 214.957C334.514 215.234 333.864 215.356 333.214 215.311C332.565 215.267 331.938 215.057 331.392 214.701C331.133 214.52 330.827 214.987 331.084 215.167C331.689 215.557 332.382 215.788 333.099 215.839C333.816 215.89 334.535 215.76 335.188 215.46C335.257 215.437 335.315 215.392 335.355 215.333C335.394 215.273 335.412 215.201 335.406 215.13C335.4 215.097 335.387 215.066 335.368 215.039C335.349 215.012 335.324 214.99 335.295 214.973C335.266 214.957 335.234 214.947 335.201 214.944C335.168 214.941 335.135 214.946 335.103 214.957Z" fill="white"/>
<path d="M292.932 226.372C293.089 226.49 293.247 226.609 293.404 226.732C295.509 228.334 297.46 230.129 299.23 232.094C299.37 232.244 299.509 232.397 299.643 232.551C303.885 237.399 307.062 243.082 308.968 249.235C309.75 251.744 310.325 254.312 310.69 256.915C311.2 260.544 311.457 264.56 313.124 267.55C313.293 267.863 313.485 268.164 313.696 268.45L332.944 268.777C332.991 268.756 333.038 268.739 333.085 268.717L333.848 268.766C333.839 268.628 333.826 268.485 333.817 268.347C333.812 268.266 333.802 268.186 333.797 268.106C333.793 268.052 333.788 267.999 333.787 267.95C333.785 267.932 333.783 267.914 333.781 267.901C333.78 267.852 333.774 267.807 333.772 267.762C333.703 266.964 333.63 266.166 333.548 265.367C333.549 265.363 333.549 265.363 333.545 265.358C332.916 259.278 331.761 253.269 329.696 247.757C329.634 247.591 329.572 247.421 329.501 247.255C328.565 244.795 327.404 242.426 326.034 240.178C325.287 238.961 324.469 237.789 323.585 236.667C321.299 233.778 318.508 231.325 315.349 229.429C309.023 225.626 301.252 224.077 293.521 226.204C293.324 226.258 293.13 226.313 292.932 226.372Z" fill="#1DCAAD"/>
<path d="M292.937 226.62C302.123 228.683 310.289 233.814 315.712 241.136C316.943 242.711 317.883 244.493 318.49 246.397C319.03 248.381 319.024 250.473 318.471 252.453C317.994 254.376 317.288 256.318 317.274 258.259C317.263 259.209 317.477 260.148 317.898 260.999C318.319 261.85 318.936 262.59 319.697 263.157C321.534 264.58 323.87 265.181 326.187 265.685C328.76 266.244 331.446 266.783 333.398 268.497C333.635 268.705 333.998 268.277 333.762 268.069C330.366 265.088 325.108 265.612 321.216 263.482C319.4 262.488 317.953 260.894 317.814 258.66C317.693 256.706 318.419 254.703 318.919 252.758C319.484 250.824 319.567 248.78 319.161 246.806C318.661 244.868 317.796 243.042 316.612 241.428C314.041 237.799 310.835 234.666 307.148 232.18C302.88 229.277 298.099 227.212 293.059 226.096C292.741 226.024 292.621 226.549 292.937 226.62Z" fill="white"/>
<path d="M314.09 238.644C316.674 236.029 317.211 232.118 315.36 229.508C315.177 229.251 314.725 229.581 314.907 229.839C316.642 232.284 316.125 235.893 313.709 238.337C313.454 238.594 313.837 238.9 314.09 238.644V238.644Z" fill="white"/>
<path d="M318.838 251.492C317.222 251.669 315.586 251.516 314.031 251.042C312.475 250.568 311.033 249.783 309.79 248.735C309.552 248.528 309.189 248.956 309.426 249.162C310.722 250.251 312.225 251.065 313.846 251.554C315.466 252.044 317.168 252.2 318.85 252.011C319.19 251.98 319.176 251.46 318.839 251.492L318.838 251.492Z" fill="white"/>
<path d="M302.753 229.998C302.368 230.574 301.861 231.059 301.267 231.417C300.674 231.775 300.008 231.998 299.319 232.07C298.98 232.097 298.994 232.617 299.331 232.589C300.092 232.507 300.827 232.26 301.484 231.865C302.141 231.471 302.704 230.938 303.134 230.305C303.181 230.254 303.206 230.188 303.204 230.119C303.202 230.051 303.174 229.986 303.126 229.937C303.068 229.898 302.997 229.882 302.928 229.893C302.858 229.905 302.796 229.942 302.753 229.998V229.998Z" fill="white"/>
<path d="M223.73 247.546L224.123 248.54H223.73V247.546Z" fill="#2F2E41"/>
<path d="M361 268.503C361 268.568 360.987 268.633 360.962 268.694C360.938 268.754 360.901 268.809 360.855 268.855C360.809 268.901 360.754 268.938 360.693 268.963C360.633 268.987 360.568 269 360.503 269H0.496826C0.36506 269 0.238689 268.948 0.145516 268.854C0.0523432 268.761 0 268.635 0 268.503C0 268.371 0.0523432 268.245 0.145516 268.152C0.238689 268.059 0.36506 268.006 0.496826 268.006H360.503C360.568 268.006 360.633 268.019 360.693 268.044C360.754 268.069 360.809 268.105 360.855 268.151C360.901 268.198 360.938 268.252 360.962 268.313C360.987 268.373 361 268.438 361 268.503Z" fill="#CCCCCC"/>
<path d="M59.3402 255.679C58.8392 259.37 56.33 262.701 53.1027 264.876C52.3338 265.396 51.5224 265.85 50.6771 266.233C49.7477 266.653 48.7891 267.004 47.8088 267.285C43.5086 268.542 38.8618 268.596 34.3403 268.621C29.7687 268.651 25.1984 268.68 20.6296 268.709C17.0265 268.73 13.3066 268.73 9.97914 267.348C9.92939 267.33 9.88061 267.309 9.83302 267.285C6.56399 265.874 3.77926 262.772 3.85859 259.224C3.89048 257.973 4.24421 256.753 4.88564 255.679C5.31022 254.958 5.82049 254.29 6.40534 253.692C8.21729 251.813 10.7306 250.339 13.0853 249.154C16.9681 247.204 21.356 244.674 22.4916 240.666C22.6115 240.244 22.6925 239.812 22.7338 239.376C23.001 236.62 21.6608 234.086 19.9532 231.819C19.7862 231.594 19.6109 231.368 19.4314 231.143C19.0473 230.663 18.6506 230.191 18.2582 229.74C18.0912 229.548 17.9242 229.352 17.753 229.155C16.1748 227.327 14.5842 225.373 13.7533 223.189C13.3957 222.275 13.1966 221.307 13.1647 220.325C13.0728 216.781 17.0349 213.211 20.0325 214.885C21.5021 214.743 22.9718 214.597 24.4414 214.447C26.245 214.268 28.0402 214.088 29.8396 213.904H29.8438C30.2488 213.871 30.6454 213.829 31.042 213.787C34.787 213.416 38.5292 213.041 42.2686 212.664C43.9303 212.501 45.8842 212.439 46.9655 213.716C48.1428 215.111 47.5333 217.315 46.3685 218.722C45.2036 220.125 43.5879 221.119 42.4941 222.572C41.0787 224.45 40.7489 226.826 41.1539 229.155C41.2712 229.832 41.4472 230.497 41.6799 231.143C42.0887 232.296 42.6549 233.388 43.3625 234.387C45.8174 237.827 49.4538 240.198 52.6811 242.924C55.9125 245.655 58.9352 249.12 59.3778 253.32C59.3903 253.441 59.4028 253.566 59.407 253.692C59.4539 254.355 59.4315 255.021 59.3402 255.679Z" fill="#E6E6E6"/>
<path d="M33.0842 217.451C29.8264 214.232 27.0515 210.56 24.8458 206.547C22.6467 202.554 21.0224 198.271 20.0211 193.824C19.0059 189.311 18.6696 184.672 19.0235 180.06C19.7572 170.667 23.2281 161.695 29.0069 154.254C29.3598 153.801 29.7211 153.355 30.0909 152.916C30.5032 152.426 31.2037 153.132 30.7943 153.62C24.8972 160.691 21.2027 169.335 20.1679 178.484C19.4195 185.476 20.2552 192.545 22.613 199.169C24.9708 205.793 28.7901 211.801 33.7875 216.747C34.2441 217.198 33.5406 217.901 33.0842 217.451V217.451Z" fill="#E6E6E6"/>
<path d="M28.606 155.098C29.0087 154.948 29.403 154.776 29.7873 154.583C29.8068 154.613 29.8257 154.643 29.8452 154.673L28.606 155.098Z" fill="#E6E6E6"/>
<path d="M36.2851 146.324C36.1223 147.236 35.8284 148.119 35.4125 148.946C34.2642 151.252 32.4351 153.15 30.1729 154.382C30.0476 154.449 29.9182 154.52 29.7888 154.582C29.6343 154.34 29.4756 154.098 29.3253 153.856C28.2597 152.269 27.4719 150.513 26.9957 148.662C26.5114 146.487 26.7744 144.045 28.1689 142.304C29.5591 140.563 32.2144 139.782 34.1391 140.909C34.6948 141.241 35.1663 141.697 35.5169 142.241C35.3248 142.479 35.1328 142.713 34.9407 142.951C34.9238 142.973 34.9057 142.994 34.8864 143.013C34.7194 143.222 34.5483 143.427 34.3813 143.635C33.6841 144.491 32.991 145.351 32.2938 146.203C33.2765 146.384 34.2765 146.452 35.2747 146.408C35.3541 146.403 35.4376 146.399 35.5169 146.395C35.7716 146.378 36.0304 146.358 36.2851 146.324Z" fill="#1DCAAD"/>
<path d="M22.2029 163.446L21.9357 166.928L21.8647 167.871C21.7896 167.834 21.7103 167.796 21.6351 167.758C19.0382 166.469 16.7463 164.641 14.9125 162.395C13.0788 160.15 11.7454 157.539 11.0014 154.737C10.7526 153.765 10.5782 152.775 10.4795 151.777C11.8322 151.568 13.1891 151.355 14.5418 151.146C13.4466 149.722 12.0748 148.533 10.5087 147.652C10.8658 144.167 12.1249 140.836 14.1618 137.987C14.5125 143.823 20.6248 147.535 22.8626 152.933C23.5491 154.622 23.8463 156.445 23.7321 158.265C23.6179 160.085 23.0952 161.855 22.2029 163.446Z" fill="#1DCAAD"/>
<path d="M21.0426 194.027C20.717 194.044 20.3913 194.052 20.0699 194.048C17.2915 194.031 14.546 193.446 12.0017 192.329C9.45739 191.213 7.16793 189.589 5.27367 187.556C3.74027 185.877 2.50734 183.946 1.62889 181.849C1.65812 181.845 1.68316 181.841 1.71239 181.836C3.06509 181.628 4.42197 181.415 5.77467 181.206C4.33801 179.334 2.42858 177.878 0.242793 176.989C-0.0528192 175.103 -0.0753181 173.183 0.175991 171.29C3.23209 176.271 10.3755 176.672 14.8887 180.379C17.0411 182.173 18.5084 184.655 19.0428 187.406C19.176 188.085 19.2473 188.776 19.2558 189.468C19.2599 189.635 19.2599 189.798 19.2558 189.961L19.356 190.186L21.0426 194.027Z" fill="#1DCAAD"/>
<path d="M34.4691 199.793C33.6049 200.853 32.7407 201.922 31.8764 202.983C32.9389 203.178 34.0214 203.242 35.0995 203.175C34.1421 206.604 32.3041 209.723 29.7681 212.222C29.5301 212.456 29.2838 212.685 29.0333 212.902C28.9832 212.948 28.9289 212.994 28.8788 213.04L28.6533 212.401L28.6492 212.397L27.3716 208.861C25.7507 207.231 24.6283 205.173 24.136 202.928V202.92C23.8365 201.606 23.7673 200.25 23.9314 198.912C24.6453 193.113 29.5468 187.898 28.3277 182.183C31.0138 184.358 33.098 187.186 34.3814 190.395C33.6842 191.251 32.9912 192.111 32.2939 192.963C33.2767 193.143 34.2767 193.212 35.2749 193.167C35.6245 194.581 35.815 196.029 35.8427 197.484C35.8469 197.693 35.8469 197.897 35.8427 198.106C35.4043 198.649 34.9618 199.188 34.5234 199.73C34.5065 199.752 34.4884 199.773 34.4691 199.793Z" fill="#1DCAAD"/>
<path d="M254.208 220.021C254.248 219.975 253.941 219.936 253.373 219.904V200.816H225.818V202.352H213.414C211.959 202.354 210.565 202.932 209.536 203.961C208.508 204.989 207.929 206.384 207.928 207.838V215.733C207.929 217.188 208.507 218.582 209.536 219.611C210.564 220.639 211.959 221.218 213.414 221.219L226.127 221.235L231.709 221.244H232.093L237.679 221.252L253.281 221.273H254.625C254.821 221.052 254.02 220.242 254.208 220.021Z" fill="#3F3D56"/>
<path d="M151.121 257.251L145.438 254.533L153.245 230.775L161.634 234.787L151.121 257.251Z" fill="#A0616A"/>
<path d="M189.227 253.421C188.814 253.68 188.4 253.935 187.983 254.189C187.152 254.699 186.313 255.2 185.474 255.692C185.052 255.939 184.626 256.185 184.204 256.427V256.44L184.179 256.444L184.171 256.448L183.528 256.607L182.605 254.168L182.18 253.045L181.578 251.455L180.476 248.545L174.673 233.223L183.695 230.997L184.033 232.379H184.037L184.204 233.064L187.357 245.848L188 248.461L188.02 248.541L188.409 250.102L188.743 251.455L189.114 252.966L189.227 253.421Z" fill="#A0616A"/>
<path d="M243.047 199.613C242.475 200.532 241.891 201.446 241.302 202.352C240.208 204.039 239.085 205.7 237.933 207.337C237.933 207.341 237.929 207.341 237.925 207.345C237.252 207.968 236.51 208.51 235.712 208.961C235.678 208.986 235.641 209.003 235.607 209.024C235.02 209.348 234.395 209.599 233.745 209.771C233.512 209.829 233.274 209.888 233.04 209.946C232.197 210.147 231.362 210.318 230.531 210.468C229.053 210.731 227.591 210.919 226.139 211.036C226.022 211.049 225.905 211.057 225.788 211.065C219.813 211.504 213.998 210.798 207.927 209.642C204.93 209.074 201.869 208.393 198.7 207.688C197.665 207.454 196.626 207.224 195.573 206.995C195.494 206.978 195.411 206.957 195.327 206.94C193.824 206.611 192.296 206.285 190.73 205.963C188.76 205.558 186.727 205.166 184.614 204.794L184.764 207.771C184.889 210.061 185.365 212.318 186.175 214.464C187.077 217.102 187.791 219.19 186.284 223.536L185.558 225.64C185.934 226.685 186.063 227.803 185.935 228.906C185.807 230.009 185.425 231.068 184.819 231.998L184.672 232.22L190.73 247.546L191.123 248.54H188.021L184.205 248.544H177.738L168.407 229.823L167.96 228.93V228.884L168.924 192.908C168.937 192.591 168.962 192.27 169.004 191.952C169.174 190.51 169.629 189.116 170.344 187.851C171.059 186.587 172.018 185.477 173.166 184.588C174.266 183.728 175.526 183.095 176.873 182.727C178.22 182.359 179.626 182.262 181.011 182.442L184.205 182.855L190.73 183.698L195.327 184.295L195.419 184.308L208.975 186.061L209.948 182.095L210.127 182.028L215.835 179.937L235.574 172.701L235.624 172.685L236.923 172.209L237.077 172.459C237.123 172.534 237.169 172.61 237.211 172.685C238.494 174.985 239.539 177.411 240.329 179.924C241.659 184.029 242.753 188.207 243.607 192.437C243.644 192.62 243.678 192.787 243.707 192.938L243.72 192.983C243.732 193.054 243.74 193.1 243.745 193.113C244.2 195.008 243.882 197.321 243.047 199.613Z" fill="#2F2E41"/>
<path d="M152.937 253.372L146.787 250.424L145.822 249.961L144.282 253.743L133.527 256.111C132.995 256.227 132.515 256.511 132.156 256.92C131.796 257.329 131.578 257.842 131.531 258.385C131.484 258.927 131.612 259.47 131.896 259.935C132.18 260.399 132.605 260.76 133.109 260.966L143.618 265.254L146.954 262.252L146.136 266.281L150.093 267.897L154.431 254.09L152.937 253.372Z" fill="#2F2E41"/>
<path d="M217.734 268.168L212.637 268.264L226.804 219.05L231.901 220.624L217.734 268.168Z" fill="#3F3D56"/>
<path d="M251.164 268.262L246.07 268.166L232.092 221.244L231.9 220.626L235.169 219.616C235.817 219.628 236.489 219.636 237.182 219.645L237.679 221.252L251.164 268.262Z" fill="#3F3D56"/>
<path d="M188.588 248.752L182.144 250.985L181.133 251.334L182.7 255.106L176.723 264.355C176.427 264.812 176.285 265.352 176.318 265.895C176.351 266.439 176.556 266.957 176.905 267.375C177.253 267.794 177.727 268.09 178.255 268.22C178.784 268.35 179.34 268.308 179.843 268.099L190.327 263.752L190.585 259.272L192.839 262.71L196.788 261.074L190.155 248.211L188.588 248.752Z" fill="#2F2E41"/>
<path d="M159.007 163.53C159.638 163.752 160.31 163.833 160.976 163.767C161.642 163.701 162.285 163.49 162.86 163.149C163.436 162.807 163.929 162.344 164.306 161.791C164.683 161.238 164.934 160.609 165.042 159.949L181.065 157.159L175.271 151.006L160.943 154.599C159.822 154.492 158.7 154.799 157.791 155.464C156.881 156.128 156.247 157.103 156.008 158.204C155.769 159.305 155.943 160.455 156.495 161.437C157.048 162.419 157.942 163.163 159.007 163.53L159.007 163.53Z" fill="#A0616A"/>
<path d="M237.525 107.691C237.525 107.691 236.792 120.097 238.329 121.701C239.866 123.305 222.523 118.702 222.523 118.702C222.523 118.702 226.833 108.099 226.231 106.829C225.629 105.559 237.525 107.691 237.525 107.691Z" fill="#A0616A"/>
<path d="M169.042 159.403L168.685 149.834L197.881 143.222L220.502 117.484C221.62 116.212 223.005 115.202 224.557 114.525C226.11 113.848 227.792 113.521 229.485 113.568C231.179 113.614 232.841 114.033 234.354 114.794C235.867 115.555 237.194 116.64 238.241 117.971C240.128 120.378 240.984 123.436 240.62 126.474C240.256 129.511 238.702 132.28 236.299 134.173L205.955 158.024L169.042 159.403Z" fill="#3F77DF"/>
<path d="M238.8 114.631L238.741 114.557L222.613 112.965L211.716 132.16C202.349 143.612 209.155 151.509 209.563 152.683L206.312 167.674L207.04 172.692L207.404 174.182L244.518 193.575L236.89 168.162L244.338 144.987C245.99 139.863 246.348 134.41 245.382 129.114C244.416 123.817 242.155 118.842 238.8 114.631Z" fill="#3F77DF"/>
<path d="M246.895 88.3387C250.059 87.7028 252.11 84.6217 251.474 81.4569C250.838 78.2921 247.757 76.242 244.592 76.8778C241.427 77.5137 239.377 80.5948 240.013 83.7597C240.649 86.9245 243.73 88.9746 246.895 88.3387Z" fill="#2F2E41"/>
<path d="M315.851 85.64C313.531 86.9691 310.901 87.6445 308.289 88.2164C300.69 89.8804 292.737 90.7832 285.161 89.0156C277.586 87.248 270.403 82.4393 267.36 75.2803C266.048 72.1947 265.406 68.5934 262.857 66.4145C259.833 63.8284 254.91 64.3822 251.935 67.0242C248.959 69.6663 247.759 73.8854 247.962 77.8594L247.048 80.3395C247.365 81.7542 249.093 82.3902 250.535 82.2392C251.977 82.0881 253.321 81.4122 254.76 81.2329C257.913 80.8397 260.979 82.988 262.484 85.7866C263.988 88.5852 264.2 91.8967 264.031 95.0694C263.863 98.2422 263.347 101.408 263.524 104.58C263.701 107.753 264.674 111.039 266.997 113.206C268.74 114.833 271.069 115.676 273.381 116.26C278.978 117.674 284.824 117.8 290.477 116.628C296.13 115.455 301.444 113.016 306.018 109.493C310.592 105.97 314.307 101.456 316.884 96.2893C319.461 91.1228 320.832 85.4391 320.895 79.6661C320.176 82.2413 318.171 84.3109 315.851 85.64Z" fill="#2F2E41"/>
<path d="M243.881 186.355C243.818 186.088 243.739 185.817 243.655 185.554C242.993 183.562 242.22 181.607 241.342 179.7C240.357 177.529 239.176 175.204 237.769 172.686C237.088 171.467 236.356 170.2 235.573 168.883C235.18 168.223 234.772 167.551 234.349 166.867C234.333 166.835 234.315 166.804 234.295 166.775L234.174 166.574L214.643 169.188L207.37 170.161L206.936 173.784L206.832 174.682C206.828 174.682 206.828 174.682 206.832 174.686L206.54 177.133V177.137L206.151 180.368L206.118 180.364L195.326 178.966L184.203 177.525L178.229 176.753C176.844 176.572 175.438 176.669 174.091 177.038C172.744 177.406 171.484 178.039 170.384 178.899C169.236 179.789 168.277 180.898 167.562 182.163C166.848 183.427 166.392 184.821 166.222 186.263C166.184 186.556 166.159 186.856 166.146 187.153L160.51 200.508C157.137 208.496 154.99 216.946 154.139 225.575L150.006 238.789L150.595 238.843L159.354 239.657L161.667 239.874L166.76 232.439C167.34 231.591 167.892 230.718 168.405 229.825C169.251 228.366 170.002 226.854 170.655 225.299L181.673 199.081C182.525 199.227 183.368 199.366 184.203 199.498C188.065 200.124 191.773 200.635 195.326 201.03C206.878 202.32 216.881 202.421 225.786 201.327C228.287 201.022 230.705 200.621 233.038 200.124C233.894 199.945 234.739 199.751 235.573 199.544C235.769 199.498 235.961 199.452 236.153 199.402C237.878 198.957 239.465 198.086 240.767 196.87C242.068 195.653 243.045 194.13 243.605 192.438C244.275 190.478 244.37 188.368 243.881 186.355Z" fill="#2F2E41"/>
<path d="M243.674 176.309C243.674 177.043 243.452 177.76 243.036 178.365C242.62 178.97 242.03 179.435 241.345 179.699C241.02 179.823 240.678 179.899 240.33 179.924C240.238 179.933 240.142 179.937 240.051 179.937H233.041V213.946C232.936 214.084 232.828 214.222 232.719 214.359C232.118 215.128 231.508 215.896 230.891 216.651C230.757 216.818 230.623 216.981 230.494 217.144C230.289 217.39 230.089 217.637 229.889 217.879C229.818 217.962 229.751 218.042 229.684 218.125C229.342 218.534 228.999 218.943 228.649 219.353V219.357C228.644 219.361 228.644 219.361 228.644 219.365L228.469 219.565C228.189 219.895 227.91 220.229 227.622 220.559C227.23 220.342 226.884 220.051 226.603 219.703C226.428 219.494 226.28 219.264 226.16 219.019C226.156 219.014 226.156 219.01 226.152 219.002C226.147 218.992 226.143 218.983 226.139 218.973C225.905 218.484 225.785 217.949 225.789 217.407V179.937H210.074C209.61 179.94 209.15 179.85 208.721 179.674C208.18 179.458 207.699 179.114 207.32 178.672C206.94 178.23 206.674 177.703 206.542 177.135V177.131C206.346 176.307 206.45 175.44 206.834 174.685C206.83 174.68 206.83 174.68 206.834 174.68C206.996 174.351 207.212 174.05 207.473 173.791V173.787C207.473 173.783 207.473 173.783 207.477 173.779C207.815 173.433 208.219 173.158 208.665 172.97C209.111 172.782 209.59 172.685 210.074 172.685H240.051C241.011 172.685 241.933 173.067 242.612 173.747C243.292 174.426 243.674 175.348 243.674 176.309Z" fill="#3F3D56"/>
<path d="M255.529 219.933C254.716 221.323 253.976 221.327 253.27 220.516C252.895 220.047 252.584 219.531 252.343 218.982C250.025 214.1 247.918 202.67 244.513 206.964C243.841 207.812 243.157 208.654 242.47 209.488C241.192 211.04 239.862 212.72 238.532 214.216C238.531 214.22 238.554 214.063 238.549 214.067C237.893 214.807 237.997 208.802 237.597 207.143C237.512 206.784 237.404 206.629 237.26 206.785C237.236 206.623 237.217 206.461 237.206 206.296C237.186 206.037 237.181 205.776 237.19 205.517C237.196 205.278 237.211 205.036 237.239 204.791L244.688 139.354C244.885 137.639 245.623 136.033 246.796 134.767C247.968 133.501 249.514 132.641 251.208 132.314C252.011 132.166 252.831 132.136 253.642 132.225L255.87 132.479C256.749 132.579 257.606 132.824 258.405 133.204L258.409 133.205C259.937 133.928 261.2 135.11 262.023 136.586C262.845 138.062 263.186 139.758 262.998 141.438L255.529 219.933Z" fill="#3F3D56"/>
<path d="M256.471 105.313C254.988 105.144 253.487 105.269 252.053 105.68C250.619 106.092 249.279 106.782 248.112 107.711C246.944 108.64 245.971 109.79 245.248 111.095C244.524 112.4 244.065 113.834 243.897 115.317L243.897 115.317C243.599 117.936 244.221 120.577 245.656 122.788C247.091 124.998 249.25 126.642 251.763 127.436L249.661 145.9L256.867 146.72L261.515 105.887L256.471 105.313Z" fill="#3F3D56"/>
<path d="M250.928 92.6853C250.976 92.8842 251.021 93.084 251.06 93.2805C251.492 95.449 251.405 97.6891 250.806 99.8175C250.206 101.946 249.112 103.902 247.612 105.527C246.112 107.151 244.249 108.398 242.175 109.165C240.101 109.931 237.875 110.196 235.678 109.938L232.988 109.623C232.966 109.619 232.94 109.62 232.918 109.616L228.482 109.093C228.433 108.92 228.4 108.743 228.384 108.563C221.642 107.159 228.475 96.7198 229.292 89.7463C229.419 88.6605 218.172 91.7123 218.537 90.7319C218.406 90.6943 218.275 90.6568 218.152 90.6176C219.467 87.1918 221.843 84.2762 224.933 82.2964C228.022 80.3165 231.664 79.3762 235.326 79.6127C235.42 79.615 235.52 79.6248 235.615 79.6312C243.743 78.2067 249.124 82.9893 250.595 90.3079C250.752 91.0932 250.863 91.887 250.928 92.6853Z" fill="#2F2E41"/>
<path d="M244.5 96.9748C244.082 100.516 242.275 103.747 239.476 105.957C236.677 108.167 233.116 109.175 229.574 108.759C229.173 108.712 228.776 108.647 228.385 108.563C225.099 107.875 222.19 105.982 220.23 103.256C218.269 100.531 217.399 97.1714 217.791 93.8372C217.914 92.7758 218.165 91.7332 218.538 90.7318C219.681 87.647 221.916 85.0883 224.818 83.5402C227.721 81.9921 231.091 81.5619 234.289 82.3311C237.488 83.1003 240.294 85.0154 242.175 87.7141C244.057 90.4127 244.884 93.7075 244.5 96.9748Z" fill="#A0616A"/>
<path d="M232.988 109.623C232.966 109.619 232.941 109.619 232.919 109.615L228.483 109.093C228.434 108.92 228.401 108.742 228.385 108.563C228.233 107.168 228.907 105.539 229.887 103.73C230.52 102.572 230.861 101.278 230.882 99.9584C230.903 98.6391 230.602 97.3346 230.007 96.1572C229.411 94.9799 228.538 93.965 227.463 93.2002C226.387 92.4353 225.142 91.9435 223.835 91.7669C223.797 91.7617 223.759 91.7565 223.721 91.7513C221.972 91.5332 220.24 91.1924 218.538 90.7316C218.407 90.694 218.276 90.6565 218.153 90.6173C216.998 90.2531 216.13 89.8314 215.688 89.3496C215.878 87.7295 216.386 86.1627 217.182 84.7387C217.977 83.3148 219.046 82.0615 220.326 81.0506C221.606 80.0396 223.073 79.2908 224.643 78.8468C226.212 78.4029 227.854 78.2725 229.474 78.4631L232.047 78.7638C235.292 79.1416 238.255 80.7872 240.291 83.3416C242.239 84.2192 243.942 85.7423 245.419 87.6471C252.841 97.2022 244.988 110.976 232.988 109.623Z" fill="#2F2E41"/>
<path d="M162.659 163.787C163.275 164.049 163.941 164.172 164.609 164.149C165.278 164.126 165.933 163.957 166.53 163.653C167.126 163.349 167.648 162.919 168.06 162.391C168.471 161.864 168.762 161.252 168.912 160.6L185.081 158.844L179.693 152.332L165.165 154.998C164.053 154.819 162.914 155.054 161.963 155.659C161.013 156.264 160.317 157.196 160.008 158.279C159.7 159.363 159.799 160.522 160.287 161.537C160.776 162.552 161.62 163.352 162.659 163.787L162.659 163.787Z" fill="#A0616A"/>
<path d="M171.939 160.312L172.196 150.74L201.756 146.015L225.981 121.782C227.179 120.584 228.625 119.664 230.218 119.088C231.811 118.513 233.511 118.294 235.198 118.449C236.884 118.604 238.516 119.129 239.977 119.985C241.438 120.842 242.693 122.01 243.652 123.406C245.382 125.929 246.04 129.035 245.482 132.043C244.924 135.051 243.195 137.715 240.675 139.45L208.864 161.304L171.939 160.312Z" fill="#3F77DF"/>
<path d="M174.003 178.597C174.003 176.435 173.255 174.681 172.338 174.676H103.234C102.313 174.681 101.57 176.435 101.566 178.597V267.59C101.566 267.79 101.489 267.984 101.35 268.132C101.211 268.281 101.021 268.374 100.815 268.394C100.144 268.456 99.4726 268.515 98.8014 268.568C98.7848 268.568 98.7682 268.572 98.7516 268.572C98.3863 268.605 98.0211 268.629 97.6558 268.657H97.6516C97.4638 268.32 97.278 267.979 97.0945 267.636C97.0325 267.52 97 267.391 97 267.261V173.511C97 172.914 97.0249 172.313 97.0664 171.72C97.1257 170.906 97.2296 170.095 97.3777 169.292C98.0792 165.545 99.6647 163.008 101.466 163H174.102C174.365 163.002 174.625 163.055 174.866 163.157C175.22 163.31 175.54 163.527 175.808 163.799C176.172 164.166 176.484 164.58 176.734 165.029C177.622 166.549 178.257 168.816 178.481 171.454C178.481 171.478 178.485 171.502 178.485 171.526C178.543 172.18 178.572 172.845 178.568 173.511L178.626 182.154L178.664 187.309L178.776 203.483L178.817 209.226L179 268.193C179 268.407 178.913 268.612 178.757 268.764C178.601 268.915 178.39 269 178.17 269H174.833C174.613 269 174.401 268.915 174.246 268.764C174.09 268.612 174.003 268.407 174.003 268.193L174.003 178.597Z" fill="#3F3D56"/>
<path d="M173.322 160.226L156.56 160.043L155.072 160.026L154.012 160.013L152.776 160H152.766C152.586 160.001 152.414 160.123 152.287 160.341L150.2 163.952C150.154 164.03 150.116 164.123 150.089 164.225C150.076 164.254 150.065 164.285 150.057 164.319C150.012 164.5 149.993 164.698 150.002 164.895C150.012 165.092 150.049 165.282 150.111 165.448C150.173 165.614 150.258 165.751 150.357 165.848C150.457 165.944 150.569 165.996 150.683 166H172.396C172.527 165.999 172.654 165.935 172.764 165.814C172.874 165.693 172.962 165.521 173.018 165.317L173.188 164.677L173.539 163.376L173.936 161.908C173.978 161.751 174 161.581 174 161.408C173.999 161.097 173.927 160.798 173.801 160.577C173.674 160.356 173.502 160.23 173.322 160.226Z" fill="#343347"/>
<path d="M121.198 138.456L116.362 159.73L113.273 163.114H111.044L120.231 124.435L120.685 131.006V131.01L121.198 138.456Z" fill="#3F3D56"/>
<path d="M144.466 160.197L116.101 160.017L113.584 160.001L111.789 159.988L109.697 159.976H109.68C109.377 159.976 109.086 160.096 108.87 160.31L105.338 163.842C105.26 163.919 105.196 164.009 105.15 164.109C105.128 164.137 105.11 164.168 105.096 164.201C105.02 164.378 104.988 164.572 105.004 164.765C105.02 164.957 105.083 165.143 105.188 165.306C105.293 165.468 105.436 165.602 105.605 165.697C105.774 165.791 105.963 165.842 106.157 165.846H142.901C143.121 165.845 143.337 165.782 143.523 165.663C143.709 165.545 143.858 165.377 143.953 165.178L144.241 164.551L144.834 163.278L145.506 161.842C145.578 161.689 145.615 161.522 145.614 161.353C145.613 161.049 145.492 160.757 145.277 160.54C145.062 160.324 144.771 160.201 144.466 160.197Z" fill="#3F3D56"/>
<path opacity="0.17" d="M144.241 164.55L143.951 165.179C143.857 165.378 143.709 165.546 143.523 165.664C143.337 165.782 143.122 165.845 142.902 165.846H106.157C105.963 165.843 105.774 165.792 105.605 165.698C105.436 165.603 105.293 165.469 105.188 165.307C105.084 165.144 105.021 164.958 105.005 164.766C104.989 164.573 105.021 164.38 105.098 164.202C105.111 164.169 105.129 164.138 105.151 164.11L144.241 164.55Z" fill="black"/>
<path opacity="0.17" d="M120.685 131.006V131.01L112.818 163.114H111.044L120.231 124.435L120.685 131.006Z" fill="black"/>
<path d="M130.338 136.888L119.203 52.1738C119.162 51.8563 118.997 51.568 118.744 51.3722L111.078 41.7782L110.389 41.248C110.134 41.0548 109.813 40.9693 109.496 41.01L108.344 41.1644C108.026 41.2054 107.737 41.371 107.542 41.6246C107.346 41.8783 107.259 42.1994 107.3 42.5171L118.84 130.292V130.296L119.545 135.665L120.384 142.04V142.048L121.687 151.968C121.708 152.138 121.765 152.301 121.855 152.447C121.945 152.593 122.066 152.717 122.209 152.811C122.349 152.908 122.509 152.974 122.676 153.004C122.844 153.034 123.016 153.028 123.182 152.987L123.912 152.803C124.192 152.731 124.438 152.562 124.605 152.327L124.931 151.864L125.081 151.647L130.125 137.744C130.302 137.496 130.378 137.19 130.338 136.888Z" fill="#3F3D56"/>
<path opacity="0.17" d="M111.077 41.7786L125.083 151.648L124.931 151.863L124.606 152.326C124.439 152.561 124.193 152.73 123.913 152.802L123.182 152.986C123.016 153.027 122.843 153.032 122.676 153.002C122.508 152.972 122.348 152.907 122.207 152.811C122.066 152.715 121.947 152.59 121.857 152.445C121.768 152.3 121.71 152.137 121.687 151.968L107.302 42.5185C107.261 42.2007 107.347 41.8793 107.542 41.6251C107.737 41.3708 108.025 41.2044 108.343 41.1626L109.498 41.0107C109.655 40.9896 109.815 40.9998 109.967 41.0408C110.12 41.0819 110.263 41.1529 110.388 41.2498L111.077 41.7786Z" fill="black"/>
<path d="M111.489 44.9207L118.922 55.5297L127.756 122.747L122.967 132.249L111.489 44.9207Z" fill="#84A5E3"/>
</g>
<defs>
<clipPath id="clip0_346_6502">
<rect width="361" height="269" fill="white"/>
</clipPath>
</defs>
</svg>
