<svg width="361" height="287" viewBox="0 0 361 287" fill="none" xmlns="http://www.w3.org/2000/svg">
<path d="M345.906 251.504C346.304 239.631 340.871 227.833 330.301 223.788C332.82 235.922 330.682 249.572 324.386 261.556C321.934 266.224 318.751 271.227 319.625 275.988C320.169 278.95 322.274 281.245 324.801 282.701C327.329 284.157 330.273 284.88 333.181 285.59L333.696 286.095C340.186 275.259 345.508 263.377 345.906 251.504Z" fill="#1DCAAD"/>
<path d="M330.156 224.01C335.454 231.413 338.157 240.906 337.571 250.669C337.485 252.83 337.074 254.966 336.351 257.005C335.553 259.05 334.286 260.878 332.651 262.343C331.14 263.751 329.454 265.038 328.264 266.745C327.676 267.578 327.262 268.52 327.047 269.517C326.832 270.513 326.82 271.543 327.012 272.544C327.455 274.917 328.757 276.866 330.103 278.719C331.598 280.776 333.187 282.885 333.537 285.584C333.579 285.911 334.099 285.754 334.057 285.428C333.448 280.731 329.378 278 327.897 273.754C327.206 271.772 327.144 269.485 328.405 267.427C329.507 265.627 331.245 264.299 332.785 262.884C334.401 261.471 335.695 259.728 336.58 257.773C337.401 255.765 337.892 253.638 338.035 251.474C338.417 246.804 338.037 242.103 336.911 237.555C335.702 232.548 333.546 227.819 330.562 223.621C330.379 223.365 329.974 223.756 330.156 224.01L330.156 224.01Z" fill="white"/>
<path d="M337.929 247.482C339.632 247.088 341.17 246.174 342.329 244.865C343.488 243.557 344.21 241.92 344.395 240.182C344.421 239.844 343.898 239.861 343.871 240.2C343.701 241.818 343.029 243.342 341.948 244.558C340.866 245.775 339.431 246.621 337.844 246.979C337.811 246.984 337.779 246.996 337.75 247.014C337.721 247.031 337.696 247.055 337.676 247.082C337.656 247.109 337.642 247.14 337.635 247.173C337.627 247.206 337.626 247.24 337.631 247.274C337.637 247.307 337.649 247.339 337.667 247.367C337.685 247.396 337.709 247.421 337.737 247.44C337.764 247.459 337.796 247.473 337.829 247.48C337.862 247.487 337.896 247.488 337.929 247.482V247.482Z" fill="white"/>
<path d="M333.498 261.717C332.187 260.807 331.083 259.63 330.26 258.263C329.437 256.895 328.912 255.369 328.721 253.784C328.677 253.458 328.157 253.615 328.201 253.941C328.403 255.59 328.952 257.176 329.812 258.597C330.673 260.018 331.824 261.24 333.191 262.183C333.452 262.361 333.758 261.894 333.498 261.717V261.717Z" fill="white"/>
<path d="M335.103 232.957C334.514 233.234 333.864 233.356 333.214 233.311C332.565 233.266 331.938 233.057 331.392 232.701C331.133 232.52 330.827 232.987 331.084 233.167C331.689 233.557 332.382 233.788 333.099 233.839C333.816 233.89 334.535 233.76 335.188 233.459C335.257 233.437 335.315 233.392 335.355 233.333C335.394 233.273 335.412 233.201 335.406 233.13C335.4 233.097 335.387 233.066 335.368 233.039C335.349 233.012 335.324 232.99 335.295 232.973C335.266 232.957 335.234 232.947 335.201 232.944C335.168 232.941 335.135 232.946 335.103 232.957V232.957Z" fill="white"/>
<path d="M292.932 244.372C293.089 244.491 293.247 244.609 293.404 244.732C295.509 246.334 297.46 248.129 299.23 250.094C299.37 250.244 299.509 250.397 299.643 250.551C303.885 255.399 307.062 261.082 308.968 267.235C309.75 269.744 310.325 272.312 310.69 274.915C311.2 278.544 311.457 282.56 313.124 285.55C313.293 285.863 313.485 286.164 313.696 286.45L332.944 286.777C332.991 286.756 333.038 286.739 333.085 286.717L333.848 286.766C333.839 286.628 333.826 286.485 333.817 286.347C333.812 286.266 333.802 286.186 333.797 286.106C333.793 286.052 333.788 285.999 333.787 285.95C333.785 285.932 333.783 285.914 333.781 285.901C333.78 285.852 333.774 285.807 333.772 285.763C333.703 284.964 333.63 284.166 333.548 283.367C333.549 283.363 333.549 283.363 333.545 283.358C332.916 277.278 331.761 271.269 329.696 265.757C329.634 265.591 329.572 265.421 329.501 265.255C328.565 262.795 327.404 260.426 326.034 258.178C325.287 256.961 324.469 255.789 323.585 254.667C321.299 251.778 318.508 249.326 315.349 247.429C309.023 243.626 301.252 242.078 293.521 244.204C293.324 244.258 293.13 244.313 292.932 244.372Z" fill="#1DCAAD"/>
<path d="M292.937 244.62C302.123 246.683 310.289 251.814 315.712 259.136C316.943 260.711 317.883 262.493 318.49 264.397C319.03 266.381 319.024 268.473 318.471 270.453C317.994 272.376 317.288 274.318 317.274 276.259C317.263 277.209 317.477 278.148 317.898 278.999C318.319 279.85 318.936 280.59 319.697 281.157C321.534 282.58 323.87 283.181 326.187 283.685C328.76 284.244 331.446 284.783 333.398 286.497C333.635 286.705 333.998 286.277 333.762 286.069C330.366 283.088 325.108 283.612 321.216 281.482C319.4 280.488 317.953 278.894 317.814 276.66C317.693 274.706 318.419 272.703 318.919 270.758C319.484 268.824 319.567 266.78 319.161 264.806C318.661 262.868 317.796 261.042 316.612 259.428C314.041 255.799 310.835 252.666 307.148 250.18C302.88 247.277 298.099 245.212 293.059 244.096C292.741 244.024 292.621 244.549 292.937 244.62V244.62Z" fill="white"/>
<path d="M314.09 256.644C316.674 254.029 317.211 250.118 315.36 247.508C315.177 247.251 314.725 247.581 314.907 247.839C316.642 250.284 316.125 253.893 313.709 256.337C313.454 256.594 313.837 256.9 314.09 256.644V256.644Z" fill="white"/>
<path d="M318.838 269.492C317.222 269.669 315.586 269.516 314.031 269.042C312.475 268.568 311.033 267.783 309.79 266.735C309.552 266.528 309.189 266.956 309.426 267.162C310.722 268.251 312.225 269.065 313.846 269.554C315.466 270.044 317.168 270.2 318.85 270.011C319.19 269.98 319.176 269.46 318.839 269.492L318.838 269.492Z" fill="white"/>
<path d="M302.753 247.998C302.368 248.574 301.861 249.059 301.267 249.417C300.674 249.775 300.008 249.998 299.319 250.07C298.98 250.097 298.994 250.617 299.331 250.589C300.092 250.507 300.827 250.26 301.484 249.865C302.141 249.471 302.704 248.938 303.134 248.305C303.181 248.254 303.206 248.188 303.204 248.119C303.202 248.051 303.174 247.985 303.126 247.937C303.068 247.898 302.997 247.882 302.928 247.893C302.858 247.905 302.796 247.942 302.753 247.998V247.998Z" fill="white"/>
<path d="M223.73 265.546L224.123 266.54H223.73V265.546Z" fill="#2F2E41"/>
<path d="M361 286.503C361 286.568 360.987 286.633 360.963 286.694C360.938 286.754 360.901 286.809 360.855 286.855C360.809 286.901 360.754 286.938 360.693 286.963C360.633 286.987 360.568 287 360.503 287H0.496826C0.36506 287 0.238689 286.948 0.145516 286.854C0.0523432 286.761 0 286.635 0 286.503C0 286.371 0.0523432 286.245 0.145516 286.152C0.238689 286.059 0.36506 286.006 0.496826 286.006H360.503C360.568 286.006 360.633 286.019 360.693 286.044C360.754 286.069 360.809 286.105 360.855 286.151C360.901 286.198 360.938 286.252 360.963 286.313C360.987 286.373 361 286.438 361 286.503V286.503Z" fill="#CCCCCC"/>
<path d="M59.3397 273.679C58.8387 277.37 56.3295 280.701 53.1023 282.876C52.3333 283.396 51.5219 283.85 50.6766 284.233C49.7472 284.653 48.7886 285.004 47.8084 285.285C43.5081 286.542 38.8613 286.596 34.3398 286.621C29.7682 286.651 25.1979 286.68 20.6291 286.709C17.0261 286.73 13.3061 286.73 9.97866 285.348C9.9289 285.33 9.88012 285.309 9.83253 285.285C6.5635 283.874 3.77877 280.772 3.8581 277.223C3.88999 275.973 4.24373 274.752 4.88515 273.679C5.30973 272.958 5.82001 272.29 6.40485 271.692C8.2168 269.813 10.7302 268.339 13.0849 267.153C16.9676 265.204 21.3555 262.674 22.4911 258.666C22.611 258.244 22.6921 257.812 22.7333 257.376C23.0005 254.62 21.6603 252.086 19.9527 249.819C19.7857 249.594 19.6104 249.368 19.4309 249.143C19.0468 248.663 18.6501 248.191 18.2577 247.74C18.0907 247.548 17.9237 247.352 17.7525 247.155C16.1744 245.327 14.5837 243.373 13.7529 241.189C13.3952 240.275 13.1961 239.307 13.1642 238.325C13.0723 234.781 17.0344 231.211 20.0321 232.885C21.5017 232.743 22.9713 232.597 24.4409 232.447C26.2445 232.267 28.0397 232.088 29.8391 231.904H29.8433C30.2483 231.871 30.6449 231.829 31.0415 231.787C34.7865 231.416 38.5287 231.041 42.2681 230.664C43.9298 230.501 45.8837 230.439 46.965 231.716C48.1424 233.111 47.5328 235.315 46.368 236.722C45.2032 238.125 43.5874 239.119 42.4936 240.571C41.0783 242.45 40.7484 244.826 41.1534 247.155C41.2707 247.832 41.4467 248.497 41.6795 249.143C42.0882 250.296 42.6544 251.388 43.362 252.387C45.8169 255.827 49.4533 258.198 52.6806 260.924C55.912 263.655 58.9347 267.12 59.3773 271.32C59.3898 271.441 59.4023 271.566 59.4065 271.692C59.4534 272.355 59.431 273.021 59.3397 273.679V273.679Z" fill="#E6E6E6"/>
<path d="M33.0846 235.451C29.8269 232.232 27.052 228.56 24.8463 224.546C22.6472 220.554 21.0229 216.271 20.0215 211.824C19.0064 207.311 18.6701 202.672 19.0239 198.06C19.7577 188.667 23.2286 179.695 29.0074 172.254C29.3603 171.801 29.7216 171.355 30.0914 170.916C30.5037 170.426 31.2042 171.132 30.7948 171.62C24.8977 178.691 21.2032 187.335 20.1684 196.484C19.42 203.475 20.2557 210.545 22.6134 217.169C24.9712 223.793 28.7906 229.801 33.788 234.747C34.2445 235.197 33.5411 235.901 33.0846 235.451V235.451Z" fill="#E6E6E6"/>
<path d="M28.6064 173.098C29.0092 172.948 29.4035 172.776 29.7878 172.583C29.8072 172.613 29.8262 172.643 29.8457 172.673L28.6064 173.098Z" fill="#E6E6E6"/>
<path d="M36.2856 164.324C36.1227 165.236 35.8288 166.119 35.413 166.946C34.2647 169.252 32.4356 171.15 30.1734 172.382C30.0481 172.449 29.9187 172.52 29.7893 172.582C29.6348 172.34 29.4761 172.098 29.3258 171.856C28.2602 170.269 27.4724 168.513 26.9962 166.662C26.5119 164.487 26.7749 162.045 28.1694 160.304C29.5596 158.563 32.2149 157.782 34.1396 158.909C34.6953 159.241 35.1668 159.697 35.5174 160.241C35.3253 160.479 35.1332 160.713 34.9412 160.951C34.9243 160.973 34.9062 160.994 34.8869 161.013C34.7199 161.222 34.5488 161.427 34.3818 161.635C33.6845 162.491 32.9915 163.351 32.2943 164.203C33.277 164.384 34.277 164.452 35.2752 164.408C35.3545 164.403 35.438 164.399 35.5174 164.395C35.772 164.378 36.0309 164.358 36.2856 164.324Z" fill="#1DCAAD"/>
<path d="M22.2029 181.446L21.9357 184.928L21.8647 185.871C21.7896 185.834 21.7103 185.796 21.6351 185.758C19.0382 184.469 16.7463 182.641 14.9125 180.396C13.0788 178.15 11.7454 175.539 11.0014 172.737C10.7526 171.765 10.5782 170.775 10.4795 169.777C11.8322 169.568 13.1891 169.355 14.5418 169.146C13.4466 167.722 12.0748 166.533 10.5087 165.652C10.8658 162.167 12.1249 158.836 14.1618 155.987C14.5125 161.823 20.6248 165.535 22.8626 170.933C23.5491 172.623 23.8463 174.445 23.7321 176.265C23.6179 178.085 23.0952 179.855 22.2029 181.446V181.446Z" fill="#1DCAAD"/>
<path d="M21.0426 212.027C20.717 212.044 20.3913 212.052 20.0699 212.048C17.2915 212.031 14.546 211.446 12.0017 210.329C9.45739 209.213 7.16793 207.589 5.27367 205.556C3.74027 203.877 2.50734 201.946 1.62889 199.849C1.65812 199.845 1.68316 199.841 1.71239 199.836C3.06509 199.628 4.42197 199.415 5.77467 199.206C4.33801 197.334 2.42858 195.878 0.242793 194.989C-0.0528192 193.103 -0.0753181 191.183 0.175991 189.29C3.23209 194.271 10.3755 194.672 14.8887 198.379C17.0411 200.173 18.5084 202.655 19.0428 205.406C19.176 206.085 19.2473 206.776 19.2558 207.468C19.2599 207.635 19.2599 207.798 19.2558 207.961L19.356 208.186L21.0426 212.027Z" fill="#1DCAAD"/>
<path d="M34.4691 217.793C33.6049 218.853 32.7407 219.922 31.8764 220.983C32.9389 221.178 34.0214 221.242 35.0995 221.175C34.1421 224.604 32.3041 227.723 29.7681 230.222C29.5301 230.456 29.2838 230.685 29.0333 230.902C28.9832 230.948 28.9289 230.994 28.8788 231.04L28.6533 230.401L28.6492 230.397L27.3716 226.861C25.7507 225.231 24.6283 223.173 24.136 220.928V220.92C23.8365 219.606 23.7673 218.25 23.9314 216.912C24.6453 211.113 29.5468 205.899 28.3277 200.183C31.0138 202.358 33.098 205.186 34.3814 208.395C33.6842 209.251 32.9912 210.111 32.2939 210.963C33.2767 211.143 34.2767 211.212 35.2749 211.167C35.6245 212.581 35.815 214.029 35.8427 215.484C35.8469 215.693 35.8469 215.898 35.8427 216.106C35.4043 216.649 34.9618 217.188 34.5234 217.73C34.5065 217.752 34.4884 217.773 34.4691 217.793V217.793Z" fill="#1DCAAD"/>
<path d="M254.208 238.021C254.248 237.975 253.941 237.936 253.373 237.904V218.816H225.818V220.352H213.414C211.959 220.354 210.565 220.932 209.536 221.961C208.508 222.989 207.929 224.384 207.928 225.838V233.733C207.929 235.187 208.507 236.582 209.536 237.611C210.564 238.639 211.959 239.218 213.414 239.219L226.127 239.235L231.709 239.244H232.093L237.679 239.252L253.281 239.273H254.625C254.821 239.052 254.02 238.242 254.208 238.021Z" fill="#3F3D56"/>
<path d="M151.121 275.251L145.438 272.533L153.245 248.775L161.634 252.787L151.121 275.251Z" fill="#A0616A"/>
<path d="M189.227 271.421C188.814 271.68 188.4 271.935 187.983 272.189C187.152 272.699 186.313 273.2 185.474 273.692C185.052 273.939 184.626 274.185 184.204 274.427V274.44L184.179 274.444L184.171 274.448L183.528 274.607L182.605 272.168L182.18 271.045L181.578 269.455L180.476 266.545L174.673 251.223L183.695 248.997L184.033 250.379H184.037L184.204 251.064L187.357 263.848L188 266.461L188.02 266.541L188.409 268.102L188.743 269.455L189.114 270.966L189.227 271.421Z" fill="#A0616A"/>
<path d="M243.047 217.613C242.475 218.532 241.891 219.446 241.302 220.352C240.208 222.039 239.085 223.7 237.933 225.337C237.933 225.341 237.929 225.341 237.925 225.345C237.252 225.968 236.51 226.51 235.712 226.961C235.678 226.986 235.641 227.003 235.607 227.024C235.02 227.349 234.395 227.6 233.745 227.771C233.512 227.829 233.274 227.888 233.04 227.946C232.197 228.147 231.362 228.318 230.531 228.468C229.053 228.731 227.591 228.919 226.139 229.036C226.022 229.049 225.905 229.057 225.788 229.065C219.813 229.504 213.998 228.798 207.927 227.642C204.93 227.074 201.869 226.393 198.7 225.688C197.665 225.454 196.626 225.224 195.573 224.995C195.494 224.978 195.411 224.957 195.327 224.94C193.824 224.611 192.296 224.285 190.73 223.963C188.76 223.559 186.727 223.166 184.614 222.794L184.764 225.771C184.889 228.061 185.365 230.318 186.175 232.464C187.077 235.102 187.791 237.19 186.284 241.536L185.558 243.64C185.934 244.685 186.063 245.803 185.935 246.906C185.807 248.009 185.425 249.068 184.819 249.999L184.672 250.22L190.73 265.546L191.123 266.54H188.021L184.205 266.544H177.738L168.407 247.823L167.96 246.93V246.884L168.924 210.908C168.937 210.591 168.962 210.27 169.004 209.952C169.174 208.51 169.629 207.116 170.344 205.851C171.059 204.587 172.018 203.477 173.166 202.588C174.266 201.728 175.526 201.095 176.873 200.727C178.22 200.359 179.626 200.262 181.011 200.442L184.205 200.855L190.73 201.698L195.327 202.295L195.419 202.308L208.975 204.061L209.948 200.095L210.127 200.028L215.835 197.937L235.574 190.702L235.624 190.685L236.923 190.209L237.077 190.459C237.123 190.535 237.169 190.61 237.211 190.685C238.494 192.985 239.539 195.411 240.329 197.924C241.659 202.029 242.753 206.207 243.607 210.437C243.644 210.62 243.678 210.787 243.707 210.938L243.72 210.983C243.732 211.054 243.74 211.1 243.745 211.113C244.2 213.008 243.882 215.321 243.047 217.613Z" fill="#2F2E41"/>
<path d="M152.937 271.372L146.787 268.424L145.822 267.961L144.282 271.743L133.527 274.111C132.995 274.227 132.515 274.511 132.156 274.92C131.796 275.329 131.578 275.842 131.531 276.385C131.484 276.927 131.612 277.47 131.896 277.935C132.18 278.399 132.605 278.761 133.109 278.966L143.618 283.254L146.954 280.252L146.136 284.281L150.093 285.897L154.431 272.09L152.937 271.372Z" fill="#2F2E41"/>
<path d="M217.734 286.168L212.637 286.264L226.804 237.05L231.901 238.624L217.734 286.168Z" fill="#3F3D56"/>
<path d="M251.164 286.262L246.07 286.166L232.092 239.244L231.9 238.626L235.169 237.616C235.817 237.628 236.489 237.636 237.182 237.645L237.679 239.252L251.164 286.262Z" fill="#3F3D56"/>
<path d="M188.588 266.752L182.144 268.985L181.133 269.334L182.7 273.106L176.723 282.355C176.427 282.812 176.285 283.352 176.318 283.895C176.351 284.438 176.556 284.957 176.905 285.375C177.253 285.794 177.727 286.089 178.255 286.22C178.784 286.35 179.34 286.308 179.843 286.099L190.327 281.752L190.585 277.272L192.839 280.71L196.788 279.073L190.155 266.211L188.588 266.752Z" fill="#2F2E41"/>
<path d="M159.007 181.53C159.638 181.752 160.31 181.833 160.976 181.767C161.642 181.701 162.285 181.49 162.86 181.149C163.436 180.807 163.929 180.344 164.306 179.791C164.683 179.238 164.934 178.609 165.042 177.949L181.065 175.159L175.271 169.006L160.943 172.599C159.822 172.492 158.7 172.799 157.791 173.464C156.881 174.128 156.247 175.103 156.008 176.204C155.769 177.305 155.943 178.455 156.495 179.437C157.048 180.419 157.942 181.163 159.007 181.53L159.007 181.53Z" fill="#A0616A"/>
<path d="M237.525 125.691C237.525 125.691 236.792 138.097 238.329 139.7C239.866 141.304 222.523 136.702 222.523 136.702C222.523 136.702 226.833 126.099 226.231 124.829C225.629 123.559 237.525 125.691 237.525 125.691Z" fill="#A0616A"/>
<path d="M169.042 177.403L168.685 167.834L197.881 161.222L220.502 135.484C221.62 134.212 223.005 133.202 224.557 132.525C226.11 131.848 227.792 131.521 229.485 131.568C231.179 131.614 232.841 132.033 234.354 132.794C235.867 133.555 237.194 134.64 238.241 135.971C240.128 138.378 240.984 141.436 240.62 144.474C240.256 147.511 238.702 150.28 236.299 152.173L205.955 176.024L169.042 177.403Z" fill="#3F77DF"/>
<path d="M238.8 132.631L238.741 132.557L222.613 130.965L211.716 150.16C202.349 161.612 209.155 169.509 209.563 170.683L206.312 185.674L207.04 190.692L207.404 192.182L244.518 211.575L236.89 186.162L244.338 162.987C245.99 157.863 246.348 152.41 245.382 147.114C244.416 141.817 242.155 136.842 238.8 132.631V132.631Z" fill="#3F77DF"/>
<path d="M246.895 106.339C250.059 105.703 252.11 102.622 251.474 99.457C250.838 96.2921 247.757 94.242 244.592 94.8779C241.427 95.5138 239.377 98.5949 240.013 101.76C240.649 104.925 243.73 106.975 246.895 106.339Z" fill="#2F2E41"/>
<path d="M315.851 103.64C313.531 104.969 310.901 105.644 308.289 106.216C300.69 107.88 292.737 108.783 285.161 107.016C277.586 105.248 270.403 100.439 267.36 93.2803C266.048 90.1947 265.406 86.5934 262.857 84.4145C259.833 81.8284 254.91 82.3822 251.935 85.0242C248.959 87.6663 247.759 91.8854 247.962 95.8594L247.048 98.3395C247.365 99.7542 249.093 100.39 250.535 100.239C251.977 100.088 253.321 99.4122 254.76 99.2329C257.913 98.8397 260.979 100.988 262.484 103.787C263.988 106.585 264.2 109.897 264.031 113.069C263.863 116.242 263.347 119.408 263.524 122.58C263.701 125.753 264.674 129.039 266.997 131.206C268.74 132.833 271.069 133.676 273.381 134.26C278.978 135.674 284.824 135.8 290.477 134.628C296.13 133.455 301.444 131.016 306.018 127.493C310.592 123.97 314.307 119.456 316.884 114.289C319.461 109.123 320.832 103.439 320.895 97.6661C320.176 100.241 318.171 102.311 315.851 103.64Z" fill="#2F2E41"/>
<path d="M243.881 204.355C243.818 204.088 243.739 203.817 243.655 203.554C242.993 201.562 242.22 199.608 241.342 197.7C240.357 195.529 239.176 193.204 237.769 190.686C237.088 189.467 236.356 188.2 235.573 186.883C235.18 186.223 234.772 185.551 234.349 184.867C234.333 184.835 234.315 184.804 234.295 184.775L234.174 184.574L214.643 187.188L207.37 188.161L206.936 191.785L206.832 192.682C206.828 192.682 206.828 192.682 206.832 192.686L206.54 195.133V195.137L206.151 198.368L206.118 198.364L195.326 196.966L184.203 195.525L178.229 194.753C176.844 194.572 175.438 194.669 174.091 195.038C172.744 195.406 171.484 196.039 170.384 196.899C169.236 197.789 168.277 198.898 167.562 200.163C166.848 201.427 166.392 202.821 166.222 204.263C166.184 204.556 166.159 204.856 166.146 205.153L160.51 218.508C157.137 226.496 154.99 234.947 154.139 243.575L150.006 256.789L150.595 256.843L159.354 257.657L161.667 257.874L166.76 250.439C167.34 249.591 167.892 248.718 168.405 247.825C169.251 246.366 170.002 244.854 170.655 243.299L181.673 217.081C182.525 217.227 183.368 217.366 184.203 217.498C188.065 218.124 191.773 218.635 195.326 219.03C206.878 220.32 216.881 220.421 225.786 219.327C228.287 219.022 230.705 218.621 233.038 218.124C233.894 217.945 234.739 217.751 235.573 217.544C235.769 217.498 235.961 217.452 236.153 217.402C237.878 216.957 239.465 216.086 240.767 214.87C242.068 213.653 243.045 212.13 243.605 210.438C244.275 208.478 244.37 206.368 243.881 204.355Z" fill="#2F2E41"/>
<path d="M243.674 194.309C243.674 195.043 243.452 195.76 243.036 196.365C242.62 196.97 242.03 197.435 241.345 197.699C241.02 197.823 240.678 197.899 240.33 197.924C240.238 197.933 240.142 197.937 240.051 197.937H233.041V231.946C232.936 232.084 232.828 232.222 232.719 232.359C232.118 233.128 231.508 233.896 230.891 234.651C230.757 234.818 230.623 234.981 230.494 235.144C230.289 235.39 230.089 235.637 229.889 235.879C229.818 235.962 229.751 236.042 229.684 236.125C229.342 236.534 228.999 236.943 228.649 237.353V237.357C228.644 237.361 228.644 237.361 228.644 237.365L228.469 237.565C228.189 237.895 227.91 238.229 227.622 238.559C227.23 238.342 226.884 238.051 226.603 237.703C226.428 237.494 226.28 237.264 226.16 237.019C226.156 237.014 226.156 237.01 226.152 237.002C226.147 236.992 226.143 236.983 226.139 236.973C225.905 236.484 225.785 235.949 225.789 235.407V197.937H210.074C209.61 197.94 209.15 197.85 208.721 197.674C208.18 197.458 207.699 197.114 207.32 196.672C206.94 196.23 206.674 195.703 206.542 195.135V195.131C206.346 194.307 206.45 193.44 206.834 192.685C206.83 192.68 206.83 192.68 206.834 192.68C206.996 192.351 207.212 192.05 207.473 191.791V191.787C207.473 191.783 207.473 191.783 207.477 191.779C207.815 191.433 208.219 191.158 208.665 190.97C209.111 190.782 209.59 190.685 210.074 190.685H240.051C241.011 190.685 241.933 191.067 242.612 191.747C243.292 192.426 243.674 193.348 243.674 194.309V194.309Z" fill="#3F3D56"/>
<path d="M255.529 237.933C254.716 239.323 253.976 239.327 253.27 238.516C252.895 238.047 252.584 237.531 252.343 236.982C250.025 232.1 247.918 220.67 244.513 224.964C243.841 225.812 243.157 226.654 242.47 227.488C241.192 229.04 239.862 230.72 238.532 232.216C238.531 232.22 238.554 232.063 238.549 232.067C237.893 232.807 237.997 226.802 237.597 225.143C237.512 224.784 237.404 224.629 237.26 224.785C237.236 224.623 237.217 224.461 237.206 224.296C237.186 224.037 237.181 223.776 237.19 223.517C237.196 223.278 237.211 223.036 237.239 222.791L244.688 157.354C244.885 155.639 245.623 154.033 246.796 152.767C247.968 151.501 249.514 150.641 251.208 150.314C252.011 150.166 252.831 150.136 253.642 150.225L255.87 150.479C256.749 150.579 257.606 150.824 258.405 151.204L258.409 151.205C259.937 151.928 261.2 153.11 262.023 154.586C262.845 156.062 263.186 157.758 262.998 159.438L255.529 237.933Z" fill="#3F3D56"/>
<path d="M256.471 123.313C254.988 123.144 253.487 123.269 252.053 123.68C250.619 124.092 249.279 124.782 248.112 125.711C246.944 126.64 245.971 127.79 245.248 129.095C244.524 130.4 244.065 131.834 243.897 133.317L243.897 133.317C243.599 135.936 244.221 138.577 245.656 140.788C247.091 142.998 249.25 144.642 251.763 145.436L249.661 163.9L256.867 164.72L261.515 123.887L256.471 123.313Z" fill="#3F3D56"/>
<path d="M250.928 110.685C250.976 110.884 251.021 111.084 251.06 111.28C251.492 113.449 251.405 115.689 250.806 117.817C250.206 119.946 249.112 121.902 247.612 123.527C246.112 125.151 244.249 126.398 242.175 127.165C240.101 127.931 237.875 128.196 235.678 127.938L232.988 127.623C232.966 127.619 232.94 127.62 232.918 127.616L228.482 127.093C228.433 126.92 228.4 126.743 228.384 126.563C221.642 125.159 228.475 114.72 229.292 107.746C229.419 106.66 218.172 109.712 218.537 108.732C218.406 108.694 218.275 108.657 218.152 108.618C219.467 105.192 221.843 102.276 224.933 100.296C228.022 98.3165 231.664 97.3762 235.326 97.6127C235.42 97.615 235.52 97.6248 235.615 97.6312C243.743 96.2067 249.124 100.989 250.595 108.308C250.752 109.093 250.863 109.887 250.928 110.685V110.685Z" fill="#2F2E41"/>
<path d="M244.5 114.975C244.082 118.516 242.275 121.747 239.476 123.957C236.677 126.167 233.116 127.175 229.574 126.759C229.173 126.712 228.776 126.647 228.385 126.563C225.099 125.875 222.19 123.982 220.23 121.256C218.269 118.531 217.399 115.171 217.791 111.837C217.914 110.776 218.165 109.733 218.538 108.732C219.681 105.647 221.916 103.088 224.818 101.54C227.721 99.9921 231.091 99.5619 234.289 100.331C237.488 101.1 240.294 103.015 242.175 105.714C244.057 108.413 244.884 111.708 244.5 114.975V114.975Z" fill="#A0616A"/>
<path d="M232.988 127.623C232.966 127.619 232.941 127.62 232.919 127.615L228.483 127.093C228.434 126.92 228.401 126.742 228.385 126.563C228.233 125.168 228.907 123.539 229.887 121.73C230.52 120.572 230.861 119.278 230.882 117.959C230.903 116.639 230.602 115.335 230.007 114.157C229.411 112.98 228.538 111.965 227.463 111.2C226.387 110.435 225.142 109.944 223.835 109.767C223.797 109.762 223.759 109.757 223.721 109.751C221.972 109.533 220.24 109.192 218.538 108.732C218.407 108.694 218.276 108.657 218.153 108.617C216.998 108.253 216.13 107.831 215.688 107.35C215.878 105.73 216.386 104.163 217.182 102.739C217.977 101.315 219.046 100.062 220.326 99.0506C221.606 98.0397 223.073 97.2909 224.643 96.8469C226.212 96.4029 227.854 96.2725 229.474 96.4632L232.047 96.7639C235.292 97.1417 238.255 98.7873 240.291 101.342C242.239 102.219 243.942 103.742 245.419 105.647C252.841 115.202 244.988 128.976 232.988 127.623Z" fill="#2F2E41"/>
<path d="M162.659 181.787C163.275 182.049 163.941 182.172 164.609 182.149C165.278 182.126 165.933 181.957 166.53 181.653C167.126 181.349 167.648 180.919 168.06 180.391C168.471 179.864 168.762 179.252 168.912 178.6L185.081 176.844L179.693 170.332L165.165 172.998C164.053 172.819 162.914 173.054 161.963 173.659C161.013 174.264 160.317 175.196 160.008 176.279C159.7 177.363 159.799 178.522 160.287 179.537C160.776 180.552 161.62 181.352 162.659 181.787L162.659 181.787Z" fill="#A0616A"/>
<path d="M171.939 178.312L172.196 168.74L201.756 164.015L225.981 139.782C227.179 138.584 228.625 137.664 230.218 137.088C231.811 136.513 233.511 136.294 235.198 136.449C236.884 136.604 238.516 137.129 239.977 137.985C241.438 138.842 242.693 140.01 243.652 141.406V141.406C245.382 143.929 246.04 147.035 245.482 150.043C244.924 153.051 243.195 155.715 240.675 157.45L208.864 179.304L171.939 178.312Z" fill="#3F77DF"/>
<path d="M174.003 196.597C174.003 194.435 173.255 192.681 172.338 192.676H103.234C102.313 192.681 101.57 194.435 101.566 196.597V285.59C101.566 285.79 101.489 285.984 101.35 286.132C101.211 286.281 101.021 286.374 100.815 286.394C100.144 286.456 99.4726 286.515 98.8014 286.568C98.7848 286.568 98.7682 286.572 98.7516 286.572C98.3863 286.605 98.0211 286.629 97.6558 286.657H97.6516C97.4638 286.32 97.278 285.979 97.0945 285.636C97.0325 285.52 97 285.391 97 285.261V191.511C97 190.914 97.0249 190.313 97.0664 189.72C97.1257 188.906 97.2296 188.095 97.3777 187.292C98.0792 183.545 99.6647 181.008 101.466 181H174.102C174.365 181.002 174.625 181.055 174.866 181.157C175.22 181.31 175.54 181.527 175.808 181.799C176.172 182.166 176.484 182.58 176.734 183.029C177.622 184.549 178.257 186.816 178.481 189.454C178.481 189.478 178.485 189.502 178.485 189.526C178.543 190.18 178.572 190.845 178.568 191.511L178.626 200.154L178.664 205.309L178.776 221.483L178.817 227.226L179 286.193C179 286.407 178.913 286.612 178.757 286.764C178.601 286.915 178.39 287 178.17 287H174.833C174.613 287 174.401 286.915 174.246 286.764C174.09 286.612 174.003 286.407 174.003 286.193L174.003 196.597Z" fill="#3F3D56"/>
<path d="M173.322 178.226L156.56 178.043L155.072 178.026L154.012 178.013L152.776 178H152.766C152.586 178.001 152.414 178.123 152.287 178.341L150.2 181.952C150.154 182.03 150.116 182.123 150.089 182.225C150.076 182.254 150.065 182.285 150.057 182.319C150.012 182.5 149.993 182.698 150.002 182.895C150.012 183.092 150.049 183.282 150.111 183.448C150.173 183.614 150.258 183.751 150.357 183.848C150.457 183.944 150.569 183.996 150.683 184H172.396C172.527 183.999 172.654 183.935 172.764 183.814C172.874 183.693 172.962 183.521 173.018 183.317L173.188 182.677L173.539 181.376L173.936 179.908C173.978 179.751 174 179.581 174 179.408C173.999 179.097 173.927 178.798 173.801 178.577C173.674 178.356 173.502 178.23 173.322 178.226V178.226Z" fill="#343347"/>
<path d="M121.198 156.456L116.362 177.73L113.273 181.114H111.044L120.231 142.435L120.685 149.006V149.01L121.198 156.456Z" fill="#3F3D56"/>
<path d="M144.466 178.197L116.101 178.017L113.584 178.001L111.789 177.988L109.697 177.976H109.68C109.377 177.976 109.086 178.096 108.87 178.31L105.338 181.842C105.26 181.919 105.196 182.009 105.15 182.109C105.128 182.137 105.11 182.168 105.096 182.201C105.02 182.378 104.988 182.572 105.004 182.765C105.02 182.957 105.083 183.143 105.188 183.306C105.293 183.468 105.436 183.602 105.605 183.697C105.774 183.791 105.963 183.842 106.157 183.846H142.901C143.121 183.845 143.337 183.782 143.523 183.663C143.709 183.545 143.858 183.377 143.953 183.178L144.241 182.551L144.834 181.278L145.506 179.842C145.578 179.689 145.615 179.522 145.614 179.353C145.613 179.049 145.492 178.757 145.277 178.54C145.062 178.324 144.771 178.201 144.466 178.197V178.197Z" fill="#3F3D56"/>
<path opacity="0.17" d="M144.241 182.55L143.951 183.179C143.857 183.378 143.709 183.546 143.523 183.664C143.337 183.782 143.122 183.845 142.902 183.846H106.157C105.963 183.843 105.774 183.792 105.605 183.697C105.436 183.603 105.293 183.469 105.188 183.307C105.084 183.144 105.021 182.958 105.005 182.766C104.989 182.573 105.021 182.38 105.098 182.202C105.111 182.169 105.129 182.138 105.151 182.11L144.241 182.55Z" fill="black"/>
<path opacity="0.17" d="M120.685 149.006V149.01L112.818 181.114H111.044L120.231 142.435L120.685 149.006Z" fill="black"/>
<path d="M130.338 154.888L119.203 70.1738C119.162 69.8563 118.997 69.5679 118.744 69.3722L111.078 59.7781L110.389 59.2479C110.134 59.0547 109.813 58.9692 109.496 59.0099L108.344 59.1644C108.026 59.2054 107.737 59.3709 107.542 59.6246C107.346 59.8782 107.259 60.1993 107.3 60.5171V60.5171L118.84 148.292V148.296L119.545 153.665L120.384 160.04V160.048L121.687 169.968C121.708 170.138 121.765 170.301 121.855 170.447C121.945 170.593 122.066 170.717 122.209 170.811C122.349 170.908 122.509 170.974 122.676 171.004C122.844 171.034 123.016 171.028 123.182 170.987L123.912 170.803C124.192 170.731 124.438 170.562 124.605 170.327L124.931 169.864L125.081 169.646L130.125 155.744C130.302 155.496 130.378 155.19 130.338 154.888V154.888Z" fill="#3F3D56"/>
<path opacity="0.17" d="M111.077 59.7786L125.083 169.648L124.931 169.863L124.606 170.326C124.439 170.561 124.193 170.73 123.913 170.802L123.182 170.986C123.016 171.027 122.843 171.032 122.676 171.002C122.508 170.972 122.348 170.907 122.207 170.811C122.066 170.715 121.947 170.59 121.857 170.445C121.768 170.3 121.71 170.137 121.687 169.968L107.302 60.5185C107.261 60.2007 107.347 59.8793 107.542 59.6251C107.737 59.3708 108.025 59.2044 108.343 59.1626L109.498 59.0107C109.655 58.9896 109.815 58.9998 109.967 59.0408C110.12 59.0819 110.263 59.1529 110.388 59.2498L111.077 59.7786Z" fill="black"/>
<path d="M111.489 62.9207L118.922 73.5297L127.756 140.747L122.967 150.249L111.489 62.9207Z" fill="#84A5E3"/>
</svg>
