<svg width="361" height="287" viewBox="0 0 361 287" fill="none" xmlns="http://www.w3.org/2000/svg">
<g clip-path="url(#clip0_346_6760)">
<path opacity="0.1" d="M48.3887 23.9316C46.3846 24.761 44.3278 25.8256 43.2265 27.6917C42.06 29.663 42.1996 32.1109 42.4168 34.3917C44.3092 54.173 49.2946 75.2107 40.6857 93.129C36.5069 101.822 29.5174 108.788 23.9581 116.683C18.3988 124.577 14.2014 134.434 16.7825 143.721C19.9344 155.069 31.6983 161.361 39.6278 170.094C44.818 175.804 48.457 182.742 53.2997 188.749C58.1423 194.756 64.7782 200.047 72.5091 200.4C83.6277 200.911 92.674 191.333 103.576 189.114C114.744 186.842 125.99 192.623 135.045 199.543C144.101 206.463 152.337 214.846 162.888 219.166C174.541 223.942 187.676 223.211 199.942 226.08C211.11 228.695 221.392 234.256 232.479 237.221C243.567 240.186 256.562 240.006 265.153 232.433C276.349 222.53 275.468 204.891 282.618 191.791C289.26 179.619 302.262 172.353 311.014 161.593C326.761 142.226 326.246 112.626 312.875 91.563C299.504 70.5006 275.285 57.7473 250.519 54.4267C239.351 52.932 227.85 53.1362 217.113 49.7352C188.374 40.6368 171.271 8.0373 141.929 1.25373C123.278 -3.05098 105.139 4.40413 89.2522 13.5799C75.4625 21.5456 62.7399 17.9929 48.3887 23.9316Z" fill="#3F77DF"/>
<path d="M76.3961 87.8367C76.3961 87.8367 65.8079 97.8047 54.4442 98.1018C49.6723 98.1965 45.0599 99.833 41.2998 102.765C39.5224 104.167 37.8775 105.728 36.3857 107.429" stroke="#535461" stroke-width="2" stroke-miterlimit="10"/>
<path d="M29.2187 107.674C30.745 106.9 36.5711 107.414 36.5711 107.414C36.5711 107.414 33.5495 112.412 32.0231 113.185C31.6576 113.401 31.2514 113.54 30.8298 113.593C30.4082 113.647 29.9802 113.613 29.5722 113.494C29.1643 113.375 28.7852 113.174 28.4583 112.903C28.1315 112.632 27.864 112.297 27.6723 111.919C27.4807 111.541 27.369 111.127 27.3442 110.704C27.3194 110.281 27.382 109.857 27.5281 109.459C27.6743 109.061 27.9008 108.697 28.1938 108.39C28.4867 108.083 28.8398 107.839 29.2311 107.674H29.2187Z" fill="#FF6584"/>
<path d="M35.3517 98.8383C37.0548 99.0178 41.6649 102.608 41.6649 102.608C41.6649 102.608 36.391 105.164 34.7033 104.987C33.9137 104.868 33.2006 104.45 32.7122 103.82C32.2239 103.19 31.998 102.396 32.0815 101.604C32.165 100.812 32.5516 100.082 33.1607 99.5669C33.7698 99.0518 34.5546 98.7908 35.3517 98.8383Z" fill="#FF6584"/>
<path d="M49.8959 91.7174C51.2733 92.7294 53.4387 98.1512 53.4387 98.1512C53.4387 98.1512 47.6033 97.7087 46.2259 96.6998C45.6051 96.1995 45.2014 95.4797 45.0989 94.69C44.9964 93.9004 45.203 93.1018 45.6756 92.4602C46.1482 91.8186 46.8505 91.3834 47.6365 91.245C48.4225 91.1067 49.2317 91.2759 49.8959 91.7174Z" fill="#FF6584"/>
<path d="M62.1157 88.8053C63.6452 89.5697 66.6978 94.5491 66.6978 94.5491C66.6978 94.5491 60.8717 95.0968 59.3423 94.3324C58.9564 94.1644 58.6088 93.9197 58.3208 93.6133C58.0328 93.3069 57.8103 92.9452 57.6669 92.5502C57.5235 92.1553 57.4622 91.7354 57.4867 91.316C57.5113 90.8967 57.6211 90.4867 57.8096 90.1111C57.9981 89.7355 58.2612 89.4021 58.583 89.1312C58.9049 88.8603 59.2786 88.6576 59.6815 88.5355C60.0843 88.4133 60.5079 88.3742 60.9264 88.4206C61.3449 88.467 61.7496 88.5979 62.1157 88.8053Z" fill="#FF6584"/>
<path d="M44.9074 108.243C45.4162 106.612 43.9271 100.967 43.9271 100.967C43.9271 100.967 39.497 104.78 38.9882 106.411C38.8449 106.805 38.7831 107.223 38.8066 107.641C38.8302 108.06 38.9386 108.469 39.1252 108.844C39.3119 109.219 39.5729 109.552 39.8926 109.824C40.2122 110.095 40.5837 110.299 40.9847 110.424C41.3857 110.548 41.8078 110.589 42.2254 110.546C42.6429 110.503 43.0473 110.375 43.4141 110.171C43.7808 109.967 44.1023 109.691 44.359 109.36C44.6157 109.028 44.8022 108.649 44.9074 108.243Z" fill="#FF6584"/>
<path d="M59.1564 104.644C59.1564 102.936 56.0386 97.9965 56.0386 97.9965C56.0386 97.9965 52.9549 102.948 52.958 104.663C52.9605 105.483 53.2897 106.269 53.8732 106.848C54.4568 107.427 55.2468 107.75 56.0696 107.748C56.8924 107.745 57.6805 107.417 58.2605 106.835C58.8406 106.253 59.1651 105.465 59.1626 104.644H59.1564Z" fill="#FF6584"/>
<path d="M72.5244 99.2715C72.8098 97.588 70.5762 92.194 70.5762 92.194C70.5762 92.194 66.6952 96.5637 66.4129 98.2472C66.3175 99.037 66.5308 99.8331 67.0083 100.47C67.4858 101.107 68.191 101.537 68.9774 101.669C69.7638 101.801 70.571 101.626 71.2315 101.18C71.892 100.734 72.355 100.052 72.5244 99.2746V99.2715Z" fill="#FF6584"/>
<path d="M90.1548 61.439C90.1548 61.439 77.4012 54.4511 73.6102 43.7466C72.0527 39.2453 69.0732 35.3696 65.1192 32.7016C63.2324 31.4492 61.2344 30.3718 59.1504 29.4832" stroke="#535461" stroke-width="2" stroke-miterlimit="10"/>
<path d="M56.73 22.7522C57.9368 23.9622 59.2366 29.6534 59.2366 29.6534C59.2366 29.6534 53.5408 28.3226 52.334 27.1095C51.8011 26.5192 51.5162 25.7469 51.5383 24.9528C51.5604 24.1586 51.8878 23.4034 52.4528 22.8434C53.0177 22.2835 53.7769 21.9617 54.5731 21.9447C55.3693 21.9277 56.1416 22.2168 56.73 22.7522Z" fill="#FF6584"/>
<path d="M67.0455 25.8561C67.3991 27.5273 65.3919 33.008 65.3919 33.008C65.3919 33.008 61.3373 28.8023 60.9836 27.128C60.8786 26.7232 60.857 26.3012 60.92 25.8878C60.9831 25.4743 61.1295 25.0779 61.3504 24.7224C61.5714 24.367 61.8622 24.0599 62.2054 23.8197C62.5486 23.5795 62.9371 23.4112 63.3473 23.325C63.7576 23.2388 64.1811 23.2364 64.5923 23.3179C65.0035 23.3995 65.3938 23.5634 65.7397 23.7997C66.0857 24.036 66.38 24.3397 66.605 24.6927C66.8299 25.0456 66.9808 25.4403 67.0486 25.853L67.0455 25.8561Z" fill="#FF6584"/>
<path d="M78.3065 37.4891C77.7667 39.1076 73.259 42.8305 73.259 42.8305C73.259 42.8305 71.8878 37.1579 72.4276 35.5363C72.6872 34.7566 73.2467 34.1117 73.9829 33.7434C74.7192 33.3752 75.5719 33.3138 76.3536 33.5727C77.1352 33.8317 77.7817 34.3898 78.1509 35.1242C78.52 35.8587 78.5816 36.7094 78.322 37.4891H78.3065Z" fill="#FF6584"/>
<path d="M84.8453 48.1813C84.5878 49.8679 80.7751 54.2964 80.7751 54.2964C80.7751 54.2964 78.4607 48.9364 78.7182 47.2498C78.7611 46.833 78.8884 46.4292 79.0924 46.0629C79.2964 45.6966 79.5729 45.3755 79.905 45.119C80.2371 44.8624 80.618 44.6758 81.0246 44.5705C81.4312 44.4652 81.8549 44.4434 82.2702 44.5063C82.6855 44.5692 83.0836 44.7156 83.4405 44.9366C83.7974 45.1576 84.1055 45.4486 84.3463 45.7919C84.5871 46.1353 84.7555 46.5238 84.8412 46.934C84.927 47.3442 84.9284 47.7675 84.8453 48.1782V48.1813Z" fill="#FF6584"/>
<path d="M61.0093 37.8202C62.7217 37.8017 67.6482 34.6513 67.6482 34.6513C67.6482 34.6513 62.6504 31.6185 60.9379 31.637C60.1151 31.6465 59.3298 31.9816 58.7547 32.5686C58.1796 33.1557 57.8618 33.9466 57.8713 34.7673C57.8808 35.5881 58.2167 36.3715 58.8052 36.9452C59.3937 37.5189 60.1865 37.8359 61.0093 37.8264V37.8202Z" fill="#FF6584"/>
<path d="M68.814 50.2423C70.4396 49.7131 74.1965 45.2382 74.1965 45.2382C74.1965 45.2382 68.5162 43.8363 66.8906 44.3655C66.4894 44.4797 66.1155 44.6735 65.7911 44.9351C65.4668 45.1968 65.1986 45.5211 65.0028 45.8885C64.8069 46.256 64.6874 46.659 64.6513 47.0736C64.6152 47.4882 64.6633 47.9058 64.7927 48.3014C64.9221 48.697 65.1302 49.0625 65.4045 49.3761C65.6788 49.6897 66.0136 49.9448 66.389 50.1263C66.7644 50.3078 67.1727 50.4119 67.5894 50.4323C68.006 50.4528 68.4225 50.3892 68.814 50.2454V50.2423Z" fill="#FF6584"/>
<path d="M78.0587 61.2781C79.7526 61.0305 84.2137 57.255 84.2137 57.255C84.2137 57.255 78.8529 54.9154 77.1622 55.1629C76.7458 55.2058 76.3423 55.3322 75.9762 55.5346C75.6101 55.7371 75.2888 56.0114 75.0318 56.3409C74.7747 56.6705 74.5872 57.0486 74.4804 57.4524C74.3737 57.8562 74.35 58.2773 74.4108 58.6905C74.4715 59.1036 74.6155 59.5003 74.834 59.8565C75.0524 60.2127 75.3409 60.5211 75.682 60.7631C76.0231 61.0052 76.4098 61.1758 76.8188 61.2649C77.2278 61.3539 77.6506 61.3594 78.0618 61.2811L78.0587 61.2781Z" fill="#FF6584"/>
<path d="M177.921 230.991C239.945 230.991 290.225 180.834 290.225 118.963C290.225 57.0918 239.945 6.93524 177.921 6.93524C115.898 6.93524 65.6182 57.0918 65.6182 118.963C65.6182 180.834 115.898 230.991 177.921 230.991Z" fill="url(#paint0_linear_346_6760)"/>
<path d="M177.921 229.134C238.917 229.134 288.363 179.809 288.363 118.963C288.363 58.1173 238.917 8.79205 177.921 8.79205C116.926 8.79205 67.4795 58.1173 67.4795 118.963C67.4795 179.809 116.926 229.134 177.921 229.134Z" fill="#3F77DF"/>
<path d="M177.921 206.543C226.409 206.543 265.716 167.332 265.716 118.963C265.716 70.5941 226.409 31.3832 177.921 31.3832C129.433 31.3832 90.126 70.5941 90.126 118.963C90.126 167.332 129.433 206.543 177.921 206.543Z" fill="#DDE1EC"/>
<path opacity="0.3" d="M180.402 46.8568H175.438V124.224H180.402V46.8568Z" fill="#535461"/>
<g opacity="0.1">
<path opacity="0.1" d="M253.306 117.106H183.194V123.296H253.306V117.106Z" fill="black"/>
<path opacity="0.1" d="M133.695 93.9499L130.816 99.433L174.932 122.478L177.81 116.995L133.695 93.9499Z" fill="black"/>
<path opacity="0.1" d="M177.92 129.485C183.06 129.485 187.227 125.328 187.227 120.201C187.227 115.073 183.06 110.917 177.92 110.917C172.78 110.917 168.613 115.073 168.613 120.201C168.613 125.328 172.78 129.485 177.92 129.485Z" fill="black"/>
</g>
<path d="M253.307 115.868H183.195V122.058H253.307V115.868Z" fill="#535461"/>
<path d="M177.831 115.765L133.716 92.7192L130.837 98.2022L174.953 121.248L177.831 115.765Z" fill="#535461"/>
<path d="M177.921 128.247C183.061 128.247 187.228 124.09 187.228 118.963C187.228 113.836 183.061 109.679 177.921 109.679C172.781 109.679 168.614 113.836 168.614 118.963C168.614 124.09 172.781 128.247 177.921 128.247Z" fill="#2F2E41"/>
<g opacity="0.1">
<path opacity="0.1" d="M96.9453 129.485C96.9453 81.1149 136.251 41.9052 184.74 41.9052C198.35 41.8932 211.775 45.0425 223.953 51.1036C236.131 57.1648 246.727 65.9713 254.902 76.8257C239.961 49.7409 211.11 31.3832 177.915 31.3832C129.426 31.3832 90.1202 70.593 90.1202 118.963C90.0917 137.965 96.2869 156.456 107.763 171.622C100.646 158.714 96.9243 144.217 96.9453 129.485Z" fill="black"/>
</g>
<g opacity="0.1">
<path opacity="0.1" d="M222.622 145.899C222.622 145.899 221.968 147.208 221.071 148.78C219.701 148.05 218.377 147.238 217.106 146.348L216.833 146.156L216.688 146.051L218.239 144.343L222.622 145.899Z" fill="black"/>
</g>
<g opacity="0.1">
<path opacity="0.1" d="M212.419 147.595C212.017 147.977 211.69 148.43 211.455 148.932C209.249 147.939 206.931 146.685 206.088 146.221L206.022 146.187C206.443 145.658 206.925 145.182 207.459 144.767C207.459 144.767 213.555 146.605 212.419 147.595Z" fill="black"/>
</g>
<g opacity="0.1">
<path opacity="0.1" d="M224.478 55.884C223.643 56.9697 222.526 57.807 221.249 58.3056C219.972 58.8041 218.582 58.9448 217.231 58.7125C217.153 57.128 216.824 55.5467 215.962 54.5811C213.694 52.0373 223.33 52.4613 223.33 52.4613C223.625 53.6294 224.009 54.7735 224.478 55.884Z" fill="black"/>
</g>
<g opacity="0.1">
<path opacity="0.1" d="M239.806 69.2314C238.763 69.6151 234.727 71.2398 234.281 73.5639C234.005 72.5286 233.797 71.4762 233.66 70.4136L238.624 67.7274C239.095 68.1636 239.493 68.6712 239.806 69.2314Z" fill="black"/>
</g>
<g opacity="0.1">
<path opacity="0.1" d="M209.019 69.4263C208.632 70.532 208.186 71.6167 207.685 72.6758C207.493 71.277 206.702 67.6995 203.571 66.5452C204.192 65.7003 204.626 65.1897 204.626 65.1897L209.019 69.4263Z" fill="black"/>
</g>
<g opacity="0.1">
<path opacity="0.1" d="M230.841 104.334C230.841 104.334 224.4 103.824 218.813 103.582L218.251 103.558C217.457 103.527 216.7 103.502 215.959 103.483C210.536 103.353 204.403 101.463 203.36 101.131C203.751 100.527 204.174 99.9434 204.626 99.3829L213.129 101.24C213.129 101.24 214.47 101.667 217.448 102.982L212.562 99.3829L227.453 102.069C227.453 102.069 227.971 102.004 230.71 103.533L230.841 104.334Z" fill="black"/>
</g>
<g opacity="0.1">
<path opacity="0.1" d="M213.092 49.3666C214.23 49.3666 215.124 48.1627 216.262 48.2246C216.852 48.2556 217.357 48.63 217.844 48.9673C219.685 50.2387 221.733 51.1811 223.897 51.7526C224.738 51.9754 225.628 52.1425 226.472 51.9383C227.316 51.734 228.107 51.0717 228.203 50.2083C228.227 49.8278 228.176 49.4463 228.054 49.0849C227.099 45.7651 224.938 42.9195 221.992 41.1037C220.813 40.3827 219.374 39.8318 218.068 40.2836C216.889 40.689 216.129 41.7907 215.276 42.6975C214.633 43.3764 213.903 43.9675 213.104 44.4553C212.484 44.8297 211.553 45.0742 211.196 45.7612C210.523 47.0424 211.581 49.3542 213.092 49.3666Z" fill="black"/>
</g>
<path opacity="0.05" d="M242.533 77.129C242.533 77.129 241.401 79.8152 241.965 80.6632L242.533 77.129Z" fill="black"/>
<path opacity="0.05" d="M197.33 76.2811C197.33 76.2811 197.898 78.9672 197.33 79.8152V76.2811Z" fill="black"/>
</g>
<g clip-path="url(#clip1_346_6760)">
<path d="M361 285.999H0V286.667H361V285.999Z" fill="#E6E6E6"/>
<path d="M63.0115 270.116C63.0115 269.278 62.8469 268.449 62.5269 267.675C62.207 266.901 61.738 266.198 61.1467 265.606C60.5554 265.013 59.8535 264.544 59.0809 264.223C58.3084 263.902 57.4804 263.737 56.6442 263.737H56.6438V258.831H32.1514V283.111C32.1514 283.958 32.4875 284.771 33.0859 285.37C33.6843 285.97 34.4958 286.306 35.342 286.306H53.4532C54.2994 286.306 55.1109 285.97 55.7093 285.37C56.3077 284.771 56.6438 283.958 56.6438 283.111V276.494C58.3327 276.494 59.9523 275.822 61.1465 274.626C62.3406 273.429 63.0115 271.807 63.0115 270.116ZM56.6438 274.04L56.6438 274.04V266.19C57.6831 266.19 58.6799 266.604 59.4148 267.34C60.1497 268.076 60.5626 269.074 60.5626 270.115C60.5626 271.156 60.1497 272.154 59.4148 272.891C58.6799 273.627 57.6832 274.04 56.6438 274.04V274.04Z" fill="#E6E6E6"/>
<path d="M324.759 262.988C329.555 268.142 329.803 275.719 329.803 275.719C329.803 275.719 322.275 274.938 317.479 269.783C312.683 264.629 312.436 257.052 312.436 257.052C312.436 257.052 319.963 257.833 324.759 262.988Z" fill="#1DCAAD"/>
<path d="M339.858 271.034C334.712 275.837 327.147 276.086 327.147 276.086C327.147 276.086 327.927 268.546 333.074 263.742C338.22 258.938 345.784 258.69 345.784 258.69C345.784 258.69 345.005 266.23 339.858 271.034Z" fill="#1DCAAD"/>
<path d="M338.58 286.333H319.651C319.288 286.334 318.932 286.231 318.624 286.038C318.316 285.845 318.068 285.57 317.91 285.242L313.789 276.757C313.645 276.461 313.578 276.134 313.595 275.805C313.613 275.477 313.713 275.158 313.887 274.879C314.062 274.601 314.304 274.371 314.591 274.212C314.878 274.052 315.201 273.969 315.53 273.969H342.701C343.029 273.969 343.352 274.052 343.64 274.212C343.927 274.371 344.169 274.601 344.343 274.879C344.517 275.158 344.618 275.477 344.635 275.805C344.652 276.134 344.586 276.461 344.442 276.757L340.321 285.242C340.162 285.569 339.915 285.845 339.607 286.038C339.299 286.231 338.943 286.333 338.58 286.333L338.58 286.333Z" fill="#E5E5E5"/>
<path d="M113.683 119.675L108.623 122.71L98.1368 105.676C97.4928 104.63 97.1099 103.444 97.0204 102.219C96.9308 100.994 97.1374 99.7653 97.6225 98.6366C98.1076 97.508 98.857 96.5125 99.8076 95.7342C100.758 94.9558 101.882 94.4174 103.085 94.1643C104.154 93.9393 105.259 93.9454 106.325 94.1823C107.392 94.4192 108.395 94.8813 109.269 95.5376C110.142 96.194 110.865 97.0294 111.388 97.9879C111.912 98.9464 112.225 100.006 112.306 101.095L113.683 119.675Z" fill="#FFB9B9"/>
<path d="M174.402 180.376C182.785 180.376 189.581 173.582 189.581 165.201C189.581 156.82 182.785 150.026 174.402 150.026C166.018 150.026 159.222 156.82 159.222 165.201C159.222 173.582 166.018 180.376 174.402 180.376Z" fill="#FFB9B9"/>
<path d="M187.558 197.574H166.306V174.306L184.522 172.282L187.558 197.574Z" fill="#FFB9B9"/>
<path d="M202.738 286.602H145.055C147.089 254.427 148.699 223.334 145.055 205.668L148.409 189.573C148.874 187.343 150.161 185.37 152.015 184.045C153.868 182.721 156.153 182.142 158.414 182.425L166.306 183.411C171.651 192.805 178.111 192.714 185.534 184.423H195.041C196.309 184.423 197.563 184.675 198.732 185.166C199.9 185.657 200.959 186.375 201.847 187.28C202.734 188.185 203.432 189.258 203.899 190.435C204.367 191.613 204.595 192.872 204.57 194.139C207.046 205.475 207.87 217.109 207.016 228.681L202.738 286.602Z" fill="#575A89"/>
<path d="M105.585 119.675L113.681 115.629L157.197 187.458L145.053 205.668L105.585 119.675Z" fill="#575A89"/>
<path d="M237.368 268.615L240.988 263.957L256.924 276.053C257.903 276.796 258.689 277.763 259.215 278.873C259.742 279.983 259.993 281.203 259.949 282.431C259.905 283.658 259.566 284.857 258.961 285.927C258.357 286.996 257.503 287.904 256.474 288.574C255.558 289.17 254.526 289.564 253.446 289.728C252.366 289.893 251.263 289.824 250.212 289.528C249.16 289.231 248.184 288.713 247.349 288.009C246.514 287.304 245.839 286.429 245.37 285.443L237.368 268.615Z" fill="#FFB9B9"/>
<path d="M236.636 271.402L244.959 267.846L224.867 207.846C222.901 201.976 219.303 196.787 214.495 192.887C209.686 188.987 203.866 186.537 197.715 185.825L196.544 185.689L202.723 213.012L216.179 231.619L236.636 271.402Z" fill="#575A89"/>
<path d="M191.957 156.243C191.957 156.243 194.794 150.004 187.419 147.168C187.419 147.168 181.178 136.96 168.698 143.766C168.698 143.766 160.188 147.168 160.188 156.243C160.188 165.317 157.352 167.018 157.352 167.018C157.352 167.018 161.576 162.686 162.71 159.283C163.845 155.88 172.669 155.108 176.073 158.511C179.476 161.914 187.986 161.347 187.986 161.347L187.419 173.824C187.419 173.824 190.255 166.451 191.39 166.451C192.525 166.451 193.659 156.243 191.957 156.243Z" fill="#2F2E41"/>
</g>
<defs>
<linearGradient id="paint0_linear_346_6760" x1="177.921" y1="230.991" x2="177.921" y2="6.93524" gradientUnits="userSpaceOnUse">
<stop stop-color="#808080" stop-opacity="0.25"/>
<stop offset="0.54" stop-color="#808080" stop-opacity="0.12"/>
<stop offset="1" stop-color="#808080" stop-opacity="0.1"/>
</linearGradient>
<clipPath id="clip0_346_6760">
<rect width="322" height="239" fill="white" transform="translate(16)"/>
</clipPath>
<clipPath id="clip1_346_6760">
<rect width="361" height="195" fill="white" transform="translate(0 92)"/>
</clipPath>
</defs>
</svg>
