<svg width="361" height="230" viewBox="0 0 361 230" fill="none" xmlns="http://www.w3.org/2000/svg">
<path d="M16.4789 192.466C18.0047 180.244 25.6087 168.202 37.3099 164.224C32.6953 176.804 32.6963 190.605 37.3127 203.184C39.1108 208.029 41.617 213.231 39.9258 218.114C38.8735 221.153 36.2991 223.477 33.4216 224.931C30.5438 226.384 27.3502 227.077 24.1964 227.756L23.5758 228.267C18.5693 217.006 14.9531 204.689 16.4789 192.466Z" fill="#1DCAAD"/>
<path d="M37.4261 164.455C30.6118 172.061 26.3765 181.612 25.3218 191.753C25.0559 193.932 25.1364 196.139 25.5603 198.293C26.0414 200.378 27.0742 202.296 28.5513 203.849C29.8994 205.324 31.4499 206.678 32.4145 208.454C32.8947 209.371 33.1749 210.378 33.2369 211.41C33.2989 212.442 33.1413 213.475 32.7742 214.442C31.9226 216.876 30.2441 218.859 28.535 220.742C26.6374 222.832 24.6331 224.973 23.8265 227.744C23.7288 228.08 23.2115 227.909 23.3091 227.574C24.7125 222.753 29.4109 220.014 31.6515 215.671C32.697 213.645 33.1359 211.293 32.1557 209.154C31.2986 207.283 29.7009 205.886 28.323 204.404C26.8597 202.91 25.7859 201.082 25.1953 199.079C24.6626 196.954 24.4969 194.753 24.7052 192.573C25.0957 187.655 26.2599 182.83 28.1552 178.272C30.2893 173.06 33.3029 168.249 37.0655 164.048C37.2985 163.788 37.6576 164.197 37.4261 164.455H37.4261Z" fill="white"/>
<path d="M25.4683 188.468C23.7845 188.06 22.3008 187.07 21.2822 185.674C20.2636 184.277 19.7764 182.566 19.9077 180.845C19.9355 180.497 20.4799 180.523 20.4521 180.872C20.3269 182.474 20.7808 184.069 21.732 185.367C22.6832 186.665 24.0689 187.582 25.6391 187.952C25.9803 188.033 25.8075 188.548 25.4683 188.468H25.4683Z" fill="white"/>
<path d="M27.7682 203.191C30.8094 201.382 33.0544 198.497 34.0556 195.113C34.1546 194.777 34.6719 194.948 34.5731 195.283C33.5246 198.803 31.1822 201.8 28.0132 203.675C27.7111 203.854 27.4676 203.368 27.7682 203.191Z" fill="white"/>
<path d="M30.7941 173.574C31.4127 173.867 32.0946 174.002 32.7785 173.967C33.4625 173.933 34.1271 173.729 34.7127 173.376C35.0125 173.193 35.2556 173.679 34.9578 173.86C34.309 174.248 33.5747 174.472 32.8191 174.512C32.0635 174.552 31.3096 174.407 30.6233 174.089C30.5561 174.065 30.5008 174.016 30.4686 173.952C30.4364 173.888 30.4297 173.815 30.45 173.746C30.473 173.678 30.522 173.622 30.5864 173.59C30.6509 173.557 30.7255 173.552 30.7941 173.574Z" fill="white"/>
<path d="M72.9762 186.055C72.7923 186.174 72.6084 186.293 72.4243 186.416C69.9599 188.031 67.6314 189.842 65.4615 191.832C65.2913 191.983 65.121 192.139 64.9555 192.294C59.7791 197.144 55.5515 202.909 52.4876 209.296C51.2708 211.838 50.2499 214.47 49.4338 217.167C48.3069 220.891 47.3826 225.019 45.1521 228.066C44.9229 228.386 44.6741 228.692 44.407 228.982H24.2494C24.2035 228.959 24.1575 228.941 24.1115 228.918L23.3066 228.954C23.339 228.812 23.3756 228.666 23.4079 228.524C23.4263 228.441 23.4492 228.359 23.4677 228.276C23.4814 228.221 23.4953 228.166 23.5045 228.116C23.509 228.098 23.5137 228.079 23.5182 228.066C23.5274 228.015 23.5413 227.969 23.5505 227.924C23.7528 227.104 23.9613 226.283 24.1759 225.463C24.1759 225.459 24.1759 225.459 24.1804 225.454C25.8316 219.21 28.0207 213.048 31.079 207.413C31.171 207.243 31.2629 207.069 31.3642 206.9C32.7569 204.367 34.355 201.953 36.1426 199.68C37.1255 198.438 38.1708 197.247 39.2746 196.111C42.1323 193.18 45.4348 190.716 49.0612 188.808C56.291 185.005 64.6611 183.549 72.3876 185.871C72.5853 185.931 72.7786 185.99 72.9762 186.055Z" fill="#1DCAAD"/>
<path d="M72.931 186.309C62.8933 188.295 53.7389 193.381 46.7682 200.845C45.2389 202.425 43.9692 204.236 43.0059 206.21C42.1299 208.163 41.7949 210.315 42.0358 212.44C42.2204 214.427 42.6402 216.438 42.3368 218.435C42.1663 219.454 41.7813 220.427 41.2071 221.288C40.6329 222.149 39.8824 222.879 39.0049 223.431C36.8543 224.863 34.3155 225.44 31.813 225.918C29.0345 226.449 26.14 226.957 23.8211 228.686C23.5401 228.895 23.2302 228.449 23.5108 228.24C27.5454 225.232 32.952 225.863 37.3657 223.739C39.4252 222.749 41.1974 221.133 41.7076 218.838C42.1537 216.83 41.7226 214.756 41.5182 212.746C41.2527 210.676 41.5002 208.572 42.2389 206.619C43.0983 204.603 44.2958 202.746 45.7803 201.13C49.0641 197.438 52.9102 194.283 57.1777 191.781C62.0323 188.899 67.3461 186.865 72.8892 185.768C73.2323 185.7 73.2719 186.242 72.931 186.309H72.931Z" fill="white"/>
<path d="M48.8708 198.31C47.7725 196.975 47.1863 195.295 47.217 193.569C47.2476 191.843 47.8931 190.184 49.0382 188.889C49.2708 188.628 49.6894 188.975 49.4565 189.237C48.388 190.441 47.7868 191.987 47.7616 193.594C47.7363 195.201 48.2886 196.764 49.3187 198.001C49.5423 198.27 49.0931 198.578 48.8708 198.31H48.8708Z" fill="white"/>
<path d="M41.8091 211.445C45.3306 211.825 48.8665 210.869 51.7115 208.767C51.9932 208.558 52.3031 209.005 52.0218 209.213C49.0571 211.395 45.3755 212.383 41.7118 211.979C41.3626 211.941 41.4618 211.407 41.8091 211.445V211.445Z" fill="white"/>
<path d="M62.1249 189.613C62.4418 190.218 62.9045 190.735 63.4715 191.117C64.0386 191.5 64.6921 191.736 65.3734 191.805C65.7229 191.839 65.6233 192.373 65.2761 192.339C64.5236 192.26 63.8022 191.998 63.1748 191.576C62.5474 191.155 62.0332 190.587 61.6769 189.922C61.6381 189.862 61.6236 189.79 61.6364 189.72C61.6492 189.65 61.6883 189.587 61.7458 189.544C61.8053 189.504 61.8785 189.488 61.9495 189.501C62.0205 189.514 62.0835 189.554 62.1249 189.613Z" fill="white"/>
<path d="M218.054 223.537L223.398 221.746L219.006 200.36L211.119 203.004L218.054 223.537Z" fill="#FFB6B6"/>
<path d="M216.104 222.256L217.609 221.752L222.678 217.405L226.629 218.729L226.629 218.729C228.408 218.133 230.352 218.265 232.032 219.096C233.713 219.928 234.994 221.39 235.592 223.162L235.666 223.379L218.434 229.154L216.104 222.256Z" fill="#2F2E41"/>
<path d="M192.128 220.018L197.615 221.311L205.231 200.843L197.133 198.935L192.128 220.018Z" fill="#FFB6B6"/>
<path d="M191.152 217.903L192.697 218.267L199.306 217.245L201.958 220.449L201.958 220.449C203.785 220.879 205.365 222.015 206.351 223.606C207.337 225.196 207.648 227.112 207.216 228.931L207.163 229.154L189.471 224.986L191.152 217.903Z" fill="#2F2E41"/>
<path d="M145.403 217.032H155.083V201.053H145.403V217.032Z" fill="#CACACA"/>
<path d="M154.598 209.508L153.355 211.332L176.587 227.036L177.829 225.212L154.598 209.508Z" fill="#CACACA"/>
<path d="M145.888 209.508L122.657 225.212L123.9 227.036L147.131 211.332L145.888 209.508Z" fill="#CACACA"/>
<path d="M177.208 229.154C178.888 229.154 180.25 227.797 180.25 226.124C180.25 224.45 178.888 223.093 177.208 223.093C175.528 223.093 174.166 224.45 174.166 226.124C174.166 227.797 175.528 229.154 177.208 229.154Z" fill="#CACACA"/>
<path d="M150.106 229.154C151.786 229.154 153.148 227.797 153.148 226.124C153.148 224.45 151.786 223.093 150.106 223.093C148.426 223.093 147.063 224.45 147.063 226.124C147.063 227.797 148.426 229.154 150.106 229.154Z" fill="#CACACA"/>
<path d="M123.279 229.154C124.959 229.154 126.321 227.797 126.321 226.124C126.321 224.45 124.959 223.093 123.279 223.093C121.598 223.093 120.236 224.45 120.236 226.124C120.236 227.797 121.598 229.154 123.279 229.154Z" fill="#CACACA"/>
<path d="M151.212 210.42H148.999V226.124H151.212V210.42Z" fill="#CACACA"/>
<path d="M148.169 208.216H152.317V187.003H148.169V208.216Z" fill="#CACACA"/>
<path d="M129.153 190.309V185.35C129.154 184.437 129.519 183.562 130.167 182.916C130.815 182.27 131.694 181.907 132.61 181.906H164.937C165.854 181.907 166.732 182.27 167.38 182.916C168.029 183.562 168.393 184.437 168.394 185.35V190.309C168.393 191.222 168.029 192.097 167.38 192.743C166.732 193.388 165.854 193.752 164.937 193.753H132.61C131.694 193.752 130.815 193.388 130.167 192.743C129.519 192.097 129.154 191.222 129.153 190.309Z" fill="#3F3D56"/>
<path d="M109.646 181.164L88.7755 145.417C88.0968 144.251 87.9099 142.865 88.2558 141.562C88.6018 140.26 89.4523 139.147 90.6209 138.468L91.8408 137.761C93.0109 137.085 94.4024 136.899 95.7102 137.243C97.0179 137.588 98.135 138.435 98.8164 139.599L119.687 175.346C120.366 176.512 120.553 177.898 120.207 179.201C119.861 180.504 119.01 181.616 117.842 182.295L116.622 183.002C115.452 183.678 114.06 183.864 112.752 183.52C111.445 183.175 110.327 182.328 109.646 181.164Z" fill="#3F3D56"/>
<path d="M129.29 190.138C124.778 190.133 120.453 188.346 117.263 185.168C114.073 181.99 112.279 177.681 112.273 173.187H114.113C114.113 175.957 114.877 178.673 116.321 181.039C117.765 183.406 119.834 185.332 122.302 186.607C124.77 187.882 127.542 188.458 130.316 188.271C133.089 188.084 135.758 187.142 138.031 185.548L139.092 187.045C136.226 189.065 132.8 190.146 129.29 190.138Z" fill="#3F3D56"/>
<path d="M148.605 164.483C148.605 164.483 200.114 148.906 207.932 168.148C215.751 187.389 223.109 209.38 223.109 209.38L212.991 212.587L193.216 179.601C193.216 179.601 145.549 191.513 135.579 177.54L148.605 164.483Z" fill="#2F2E41"/>
<path d="M111.353 125.541L99.3952 124.625L97.0957 139.285C97.0957 139.285 111.813 177.31 137.107 180.975L161.022 159.443L134.536 149.613L111.353 125.541Z" fill="#3F77DF"/>
<path d="M109.955 116.826C117.681 112.984 120.817 103.63 116.96 95.9346C113.103 88.2387 103.714 85.1146 95.9883 88.9566C88.2628 92.7986 85.1266 102.152 88.9834 109.848C92.8403 117.544 102.23 120.668 109.955 116.826Z" fill="#FFB8B8"/>
<path d="M107.31 119.025C106.588 119.626 105.501 119.943 104.013 119.989C99.6352 120.124 95.334 118.824 91.7692 116.289C88.2044 113.754 85.5728 110.124 84.2782 105.956C83.6268 103.859 83.075 100.73 84.1457 97.7345C84.9157 95.5818 86.4276 93.7763 87.7842 92.253C88.9585 90.934 90.184 89.6418 91.4271 88.4131C92.912 86.9444 94.6822 85.3133 96.9025 84.5472C98.5294 83.9861 100.273 83.9361 101.959 83.8878C102.547 83.8707 103.155 83.8535 103.746 83.8142C105.214 83.7644 106.656 83.4063 107.976 82.7632C108.247 82.6185 108.546 82.5335 108.853 82.5138C109.16 82.4941 109.467 82.5402 109.755 82.6491C110.047 82.7594 110.312 82.931 110.533 83.1523C110.753 83.3736 110.923 83.6394 111.031 83.9317C111.245 84.5064 111.437 85.0248 112.089 85.2161C112.324 85.2791 112.571 85.2837 112.809 85.2295C113.046 85.1753 113.266 85.064 113.451 84.9053C113.548 84.8216 113.665 84.7634 113.79 84.736C113.916 84.7087 114.046 84.713 114.169 84.7486C114.293 84.7828 114.406 84.8466 114.5 84.9345C114.593 85.0224 114.663 85.1316 114.704 85.2527L114.758 85.4105C114.891 85.3186 115.046 85.2605 115.207 85.2412C115.368 85.2218 115.532 85.2418 115.684 85.2995C115.904 85.3784 116.091 85.5297 116.213 85.7285C116.335 85.9273 116.385 86.1617 116.356 86.3929C116.137 88.2993 115.387 90.1066 114.19 91.6098C113.362 92.6283 112.341 93.4747 111.186 94.1009L111.001 94.2026L110.873 94.0106C105.677 95.9229 104.09 101.346 104.347 105.82L103.892 105.881C103.857 105.735 103.793 105.599 103.703 105.479C103.614 105.359 103.5 105.258 103.371 105.183C103.22 105.088 103.053 105.023 102.878 104.993C102.703 104.963 102.523 104.967 102.35 105.006C102.02 105.109 101.728 105.308 101.511 105.576C101.294 105.845 101.162 106.171 101.132 106.515C101.108 106.873 101.16 107.233 101.283 107.571C101.407 107.908 101.6 108.217 101.849 108.476C102.393 109.014 103.021 109.461 103.709 109.797C104.021 109.973 104.343 110.154 104.649 110.353C106.378 111.49 107.626 113.223 108.153 115.219C108.391 116.132 108.527 117.435 107.829 118.456C107.683 118.669 107.508 118.86 107.31 119.025Z" fill="#2F2E41"/>
<path d="M209.967 174.048C207.561 194.667 202.414 213.961 202.414 213.961L192.756 212.587L194.956 173.704" fill="#2F2E41"/>
<path d="M161.406 166.942C160.883 166.514 160.272 166.207 159.617 166.04C158.962 165.874 158.278 165.852 157.614 165.977C156.95 166.102 156.321 166.371 155.772 166.764C155.223 167.158 154.768 167.666 154.438 168.254L138.258 165.383L141.636 173.196L156.483 174.725C157.511 175.212 158.682 175.307 159.776 174.991C160.869 174.675 161.808 173.971 162.415 173.011C163.021 172.052 163.254 170.904 163.068 169.785C162.882 168.667 162.291 167.655 161.406 166.942H161.406Z" fill="#FFB6B6"/>
<path d="M150.885 174.812L121.232 172.49L121.173 172.379C121.06 172.165 109.824 150.963 108.171 146.099C107.142 143.17 107.15 139.978 108.193 137.055L108.223 136.984L108.29 136.945C109.657 136.166 111.25 135.873 112.806 136.116C114.362 136.36 115.788 137.124 116.849 138.282C121.945 143.905 125.659 150.631 127.698 157.928L128.853 162.08L150.068 166.814L150.885 174.812Z" fill="#3F77DF"/>
<path d="M262.979 43.467L262.787 43.696C262.436 42.9914 261.971 42.349 261.411 41.7948C260.938 41.3259 260.371 40.9626 259.746 40.7287C259.17 40.518 258.55 40.4534 257.943 40.5409C257.295 40.642 256.68 40.891 256.144 41.2684C255.537 41.6957 255.009 42.2255 254.585 42.8338C254.114 43.5047 253.731 44.2337 253.448 45.0027C253.138 45.8365 252.92 46.7015 252.798 47.5824C252.667 48.5123 252.635 49.4533 252.702 50.3899C252.734 50.857 252.792 51.3219 252.876 51.7826C252.956 52.2269 253.063 52.6661 253.195 53.0979C253.321 53.5112 253.474 53.9159 253.652 54.3097C253.821 54.6843 254.017 55.0461 254.239 55.3923L254.077 55.6452C253.846 55.2846 253.642 54.9078 253.466 54.5177C253.28 54.1078 253.121 53.6866 252.99 53.2564C252.853 52.807 252.742 52.3499 252.658 51.8875C252.571 51.408 252.511 50.9241 252.477 50.438C252.408 49.4633 252.442 48.4841 252.578 47.5165C252.705 46.5996 252.931 45.6993 253.254 44.8313C253.548 44.0308 253.946 43.2717 254.436 42.5732C254.878 41.9395 255.427 41.3875 256.059 40.9422C256.616 40.5485 257.257 40.2884 257.931 40.1821C258.564 40.0903 259.209 40.1567 259.81 40.3755C260.46 40.6183 261.051 40.9962 261.544 41.4842C262.128 42.0621 262.613 42.732 262.979 43.467Z" fill="white"/>
<path d="M281.883 90.5079C281.898 90.4534 281.925 90.403 281.962 90.3609C282 90.3188 282.047 90.2863 282.1 90.266C282.237 90.2155 282.384 90.1997 282.529 90.2202C282.729 90.2443 282.925 90.2939 283.112 90.3677C283.347 90.4578 283.573 90.5692 283.787 90.7003C284.015 90.8374 284.23 90.993 284.431 91.1654C284.612 91.3176 284.777 91.4864 284.926 91.6693C285.047 91.8164 285.147 91.9803 285.221 92.1558C285.28 92.2827 285.297 92.4248 285.27 92.5618C285.255 92.6169 285.228 92.6677 285.189 92.7099C285.151 92.7522 285.103 92.7846 285.049 92.8046C284.91 92.8542 284.76 92.8687 284.614 92.8467C284.413 92.8214 284.215 92.7706 284.027 92.6955C283.791 92.604 283.565 92.4913 283.35 92.3588C283.124 92.2219 282.91 92.0666 282.71 91.8947C282.532 91.7423 282.368 91.5735 282.221 91.3908C282.102 91.2452 282.004 91.0832 281.931 90.9097C281.873 90.784 281.857 90.6435 281.883 90.5079Z" fill="white"/>
<path d="M288.016 90.573C288.038 90.5222 288.072 90.4781 288.117 90.4452C288.161 90.4123 288.213 90.3919 288.268 90.386C288.42 90.3706 288.574 90.3916 288.716 90.4474C288.92 90.5215 289.116 90.6188 289.298 90.7374C289.53 90.8856 289.749 91.0521 289.954 91.2354C290.171 91.4276 290.374 91.6353 290.56 91.8567C290.726 92.0523 290.875 92.2613 291.006 92.4816C291.112 92.6552 291.194 92.8423 291.25 93.0378C291.295 93.1724 291.295 93.3178 291.25 93.4524C291.228 93.5035 291.193 93.5479 291.148 93.5807C291.103 93.6135 291.05 93.6336 290.994 93.6388C290.84 93.6529 290.685 93.6303 290.541 93.5729C290.335 93.497 290.139 93.3978 289.955 93.2774C289.724 93.1271 289.505 92.9586 289.3 92.7734C289.085 92.582 288.884 92.3753 288.699 92.1549C288.535 91.9607 288.388 91.7532 288.258 91.5346C288.153 91.3626 288.072 91.1774 288.016 90.9839C287.972 90.8504 287.972 90.7065 288.016 90.573Z" fill="white"/>
<path d="M290.868 96.6877C290.888 96.6353 290.922 96.5892 290.965 96.5539C291.009 96.5187 291.062 96.4956 291.117 96.487C291.27 96.4642 291.426 96.4782 291.572 96.5278C291.781 96.5926 291.982 96.6815 292.17 96.7926C292.409 96.9312 292.636 97.089 292.849 97.2645C293.075 97.4483 293.287 97.6484 293.483 97.8633C293.658 98.0529 293.816 98.2569 293.956 98.4731C294.069 98.6435 294.159 98.8284 294.222 99.0228C294.272 99.1575 294.277 99.3045 294.235 99.442C294.215 99.4947 294.18 99.541 294.136 99.5761C294.091 99.6113 294.038 99.6341 293.982 99.6422C293.827 99.6635 293.67 99.6478 293.522 99.5964C293.311 99.5296 293.109 99.4388 292.919 99.3257C292.68 99.1862 292.452 99.0276 292.239 98.8515C292.015 98.6677 291.804 98.4677 291.609 98.2532C291.437 98.0646 291.281 97.8618 291.142 97.647C291.031 97.4782 290.943 97.2951 290.881 97.1028C290.832 96.9694 290.828 96.8239 290.868 96.6877Z" fill="white"/>
<path d="M296.983 99.2542C297.004 99.2008 297.039 99.1539 297.084 99.1184C297.13 99.0828 297.184 99.0598 297.241 99.0517C297.399 99.0299 297.56 99.0456 297.711 99.0975C297.927 99.1653 298.135 99.2575 298.33 99.3724C298.577 99.5143 298.812 99.6758 299.033 99.8553C299.266 100.043 299.485 100.248 299.688 100.467C299.868 100.662 300.032 100.871 300.177 101.092C300.294 101.266 300.387 101.455 300.453 101.653C300.504 101.79 300.509 101.94 300.467 102.08C300.445 102.133 300.409 102.181 300.363 102.216C300.317 102.252 300.262 102.274 300.205 102.282C300.044 102.302 299.881 102.285 299.728 102.232C299.51 102.163 299.301 102.069 299.104 101.953C298.857 101.809 298.622 101.646 298.4 101.464C298.169 101.276 297.951 101.071 297.75 100.851C297.572 100.659 297.411 100.451 297.268 100.232C297.153 100.06 297.062 99.8728 296.997 99.6762C296.946 99.5407 296.941 99.3926 296.983 99.2542Z" fill="white"/>
<path d="M262.584 48.1606L262.27 48.5642C262.296 48.5291 262.323 48.4944 262.35 48.4602C262.377 48.426 262.404 48.3922 262.432 48.3589C262.459 48.3257 262.487 48.293 262.516 48.2609C262.544 48.2288 262.572 48.1969 262.6 48.1652L262.584 48.1606Z" fill="#F2F2F2"/>
<path d="M360.162 230H0.836C0.614057 230 0.401418 229.947 0.244707 229.853C0.0879961 229.759 0 229.632 0 229.5C0 229.368 0.0879961 229.241 0.244707 229.147C0.401418 229.053 0.614057 229 0.836 229H360.162C360.384 229 360.597 229.053 360.754 229.146C360.912 229.24 361 229.367 361 229.5C361 229.633 360.912 229.76 360.754 229.854C360.597 229.947 360.384 230 360.162 230Z" fill="#CACACA"/>
<path d="M250.997 139.597C250.997 137.435 251.745 135.681 252.662 135.676H321.766C322.687 135.681 323.43 137.435 323.434 139.597V228.59C323.434 228.79 323.511 228.984 323.65 229.132C323.789 229.281 323.979 229.374 324.185 229.394C324.856 229.456 325.527 229.515 326.199 229.568C326.215 229.568 326.232 229.572 326.248 229.572C326.614 229.605 326.979 229.629 327.344 229.657H327.348C327.536 229.32 327.722 228.979 327.905 228.636C327.968 228.52 328 228.391 328 228.261V134.511C328 133.914 327.975 133.313 327.934 132.72C327.874 131.906 327.77 131.095 327.622 130.292C326.921 126.545 325.335 124.008 323.534 124H250.898C250.635 124.002 250.375 124.055 250.134 124.157C249.78 124.31 249.46 124.527 249.192 124.799C248.828 125.166 248.516 125.58 248.266 126.029C247.378 127.549 246.743 129.816 246.519 132.454C246.519 132.478 246.515 132.502 246.515 132.526C246.457 133.18 246.428 133.845 246.432 134.511L246.374 143.154L246.336 148.309L246.224 164.483L246.183 170.226L246 229.193C246 229.407 246.087 229.612 246.243 229.764C246.399 229.915 246.61 230 246.83 230H250.167C250.387 230 250.599 229.915 250.754 229.764C250.91 229.612 250.997 229.407 250.997 229.193L250.997 139.597Z" fill="#3F3D56"/>
<path d="M251.678 121.226L268.44 121.043L269.928 121.026L270.988 121.013L272.224 121H272.234C272.414 121.001 272.586 121.123 272.713 121.341L274.8 124.952C274.846 125.03 274.884 125.123 274.911 125.225C274.924 125.254 274.935 125.285 274.943 125.319C274.988 125.5 275.007 125.698 274.998 125.895C274.988 126.092 274.951 126.282 274.889 126.448C274.827 126.614 274.742 126.751 274.643 126.848C274.543 126.944 274.431 126.996 274.317 127H252.604C252.473 126.999 252.346 126.935 252.236 126.814C252.126 126.693 252.038 126.521 251.982 126.317L251.812 125.677L251.461 124.376L251.064 122.908C251.022 122.751 251 122.581 251 122.408C251.001 122.097 251.073 121.798 251.199 121.577C251.326 121.356 251.498 121.23 251.678 121.226Z" fill="#343347"/>
<path d="M303.802 99.4562L308.638 120.73L311.727 124.114H313.956L304.769 85.4346L304.315 92.0056V92.0101L303.802 99.4562Z" fill="#3F3D56"/>
<path d="M280.534 121.197L308.899 121.017L311.416 121.001L313.211 120.988L315.303 120.976H315.32C315.623 120.976 315.914 121.096 316.13 121.31L319.662 124.842C319.74 124.919 319.804 125.009 319.85 125.109C319.872 125.137 319.89 125.168 319.904 125.201C319.98 125.378 320.012 125.572 319.996 125.765C319.98 125.957 319.917 126.143 319.812 126.306C319.707 126.468 319.564 126.602 319.395 126.697C319.226 126.791 319.037 126.842 318.843 126.846H282.099C281.879 126.845 281.663 126.782 281.477 126.663C281.291 126.545 281.142 126.377 281.047 126.178L280.759 125.551L280.166 124.278L279.494 122.842C279.422 122.689 279.385 122.522 279.386 122.353C279.387 122.049 279.508 121.757 279.723 121.54C279.938 121.324 280.229 121.201 280.534 121.197Z" fill="#3F3D56"/>
<path opacity="0.17" d="M280.759 125.55L281.049 126.179C281.143 126.378 281.291 126.546 281.477 126.664C281.663 126.782 281.878 126.845 282.098 126.846H318.843C319.037 126.843 319.226 126.792 319.395 126.698C319.564 126.603 319.707 126.469 319.812 126.307C319.916 126.144 319.979 125.958 319.995 125.766C320.011 125.573 319.979 125.38 319.902 125.202C319.889 125.169 319.871 125.138 319.849 125.11L280.759 125.55Z" fill="black"/>
<path opacity="0.17" d="M304.315 92.0056V92.0101L312.182 124.114H313.956L304.769 85.4346L304.315 92.0056Z" fill="black"/>
<path d="M294.662 97.888L305.797 13.1738C305.838 12.8563 306.003 12.568 306.256 12.3722L313.922 2.77817L314.611 2.24795C314.866 2.05475 315.187 1.96931 315.504 2.00997L316.656 2.16445C316.974 2.20542 317.263 2.37095 317.458 2.62463C317.654 2.87831 317.741 3.19935 317.7 3.51714L306.16 91.2916V91.2958L305.455 96.6648L304.616 103.04V103.048L303.313 112.968C303.292 113.138 303.235 113.301 303.145 113.447C303.055 113.593 302.934 113.717 302.791 113.811C302.651 113.908 302.491 113.974 302.324 114.004C302.156 114.034 301.984 114.028 301.818 113.987L301.088 113.803C300.808 113.731 300.562 113.562 300.395 113.327L300.069 112.864L299.919 112.647L294.875 98.7439C294.698 98.496 294.622 98.19 294.662 97.888Z" fill="#3F3D56"/>
<path opacity="0.17" d="M313.923 2.77858L299.917 112.648L300.069 112.863L300.394 113.326C300.561 113.561 300.807 113.73 301.087 113.802L301.818 113.986C301.984 114.027 302.157 114.032 302.324 114.002C302.492 113.972 302.652 113.907 302.793 113.811C302.934 113.715 303.053 113.59 303.143 113.445C303.232 113.3 303.29 113.137 303.313 112.968L317.698 3.5185C317.739 3.20068 317.653 2.87932 317.458 2.62506C317.263 2.3708 316.975 2.20445 316.657 2.16257L315.502 2.01073C315.345 1.98955 315.185 1.99979 315.033 2.04083C314.88 2.08188 314.737 2.15291 314.612 2.2498L313.923 2.77858Z" fill="black"/>
<path d="M313.511 5.92072L306.078 16.5297L297.244 83.7471L302.033 93.2489L313.511 5.92072Z" fill="#84A5E3"/>
</svg>
