<svg width="361" height="319" viewBox="0 0 361 319" fill="none" xmlns="http://www.w3.org/2000/svg">
<g clip-path="url(#clip0_346_6562)">
<path d="M193.441 47.1546L194.366 45.7226C194.092 44.9636 193.775 44.2207 193.417 43.4974L192.818 43.9813L193.292 43.2482C192.84 42.3582 192.485 41.7975 192.485 41.7975C191.344 43.6625 190.508 45.6976 190.008 47.8261L191.196 49.6636L189.881 48.6005C189.834 48.9616 189.81 49.3254 189.809 49.6896C189.809 53.3614 191.007 56.3381 192.485 56.3381C193.963 56.3381 195.161 53.3614 195.161 49.6896C195.133 48.5214 194.927 47.3643 194.549 46.2587L193.441 47.1546Z" fill="#E6E6E6"/>
<path d="M199.993 50.3379L201.659 49.9805C202.001 49.2495 202.302 48.4998 202.56 47.7349L201.794 47.6534L202.648 47.4704C202.957 46.5214 203.102 45.8734 203.102 45.8734C200.978 46.3851 198.949 47.2323 197.091 48.3833L196.633 50.5234L196.454 48.8409C196.166 49.0631 195.892 49.3033 195.634 49.56C193.04 52.1563 191.784 55.1091 192.829 56.1552C193.874 57.2012 196.824 55.9444 199.418 53.348C200.224 52.5023 200.896 51.538 201.409 50.4887L199.993 50.3379Z" fill="#E6E6E6"/>
<path d="M200.601 64.5461C196.738 64.7934 192.528 64.5317 188.049 64.5461V54.2828C192.213 54.8665 196.437 54.8665 200.601 54.2828V64.5461Z" fill="#E6E6E6"/>
<path d="M198.216 94.9623C194.804 95.1807 191.087 94.9496 187.132 94.9623V85.8998C190.809 86.4152 194.539 86.4152 198.216 85.8998V94.9623Z" fill="#E6E6E6"/>
<path d="M217.684 63.3823H68.5342V67.5522H217.684V63.3823Z" fill="#E6E6E6"/>
<path d="M217.684 92.9885H68.5342V97.1584H217.684V92.9885Z" fill="#E6E6E6"/>
<path d="M192.686 89.2357C197.288 89.2357 201.018 85.5018 201.018 80.8959C201.018 76.2899 197.288 72.5561 192.686 72.5561C188.084 72.5561 184.354 76.2899 184.354 80.8959C184.354 85.5018 188.084 89.2357 192.686 89.2357Z" fill="#E6E6E6"/>
<path d="M192.686 87.5676C196.368 87.5676 199.352 84.5806 199.352 80.8958C199.352 77.2111 196.368 74.224 192.686 74.224C189.005 74.224 186.021 77.2111 186.021 80.8958C186.021 84.5806 189.005 87.5676 192.686 87.5676Z" fill="white"/>
<path d="M192.686 82.5638C193.606 82.5638 194.352 81.817 194.352 80.8959C194.352 79.9747 193.606 79.2279 192.686 79.2279C191.766 79.2279 191.02 79.9747 191.02 80.8959C191.02 81.817 191.766 82.5638 192.686 82.5638Z" fill="#E6E6E6"/>
<path d="M198.52 81.3129V80.4789H191.854V81.3129H198.52Z" fill="#E6E6E6"/>
<path d="M192.269 81.7299H193.103V75.058H192.269V81.7299Z" fill="#E6E6E6"/>
<path d="M144.507 43.0402H138.994V64.8824H144.507V43.0402Z" fill="#E6E6E6"/>
<path d="M144.507 46.489H138.994V49.0181H144.507V46.489Z" fill="#CCCCCC"/>
<path d="M144.507 57.525H138.994V60.0541H144.507V57.525Z" fill="#CCCCCC"/>
<path d="M136.008 43.0402H130.495V64.8824H136.008V43.0402Z" fill="#E6E6E6"/>
<path d="M136.008 46.489H130.495V49.0181H136.008V46.489Z" fill="#CCCCCC"/>
<path d="M136.008 57.525H130.495V60.0541H136.008V57.525Z" fill="#CCCCCC"/>
<path d="M149.258 42.9499L144.317 45.3982L154 64.9728L158.941 62.5245L149.258 42.9499Z" fill="#E6E6E6"/>
<path d="M150.786 46.0406L145.846 48.4889L146.967 50.7554L151.908 48.3071L150.786 46.0406Z" fill="#CCCCCC"/>
<path d="M155.679 55.9309L150.738 58.3792L151.859 60.6457L156.8 58.1974L155.679 55.9309Z" fill="#CCCCCC"/>
<path d="M95.3461 72.6464H89.833V94.4886H95.3461V72.6464Z" fill="#E6E6E6"/>
<path d="M95.3461 76.0952H89.833V78.6243H95.3461V76.0952Z" fill="#CCCCCC"/>
<path d="M95.3461 87.1313H89.833V89.6604H95.3461V87.1313Z" fill="#CCCCCC"/>
<path d="M86.8471 72.6464H81.334V94.4886H86.8471V72.6464Z" fill="#E6E6E6"/>
<path d="M86.8471 76.0952H81.334V78.6243H86.8471V76.0952Z" fill="#CCCCCC"/>
<path d="M86.8471 87.1313H81.334V89.6604H86.8471V87.1313Z" fill="#CCCCCC"/>
<path d="M100.096 72.5561L95.1553 75.0044L104.838 94.579L109.779 92.1307L100.096 72.5561Z" fill="#E6E6E6"/>
<path d="M101.625 75.6468L96.6846 78.0951L97.8057 80.3616L102.746 77.9133L101.625 75.6468Z" fill="#CCCCCC"/>
<path d="M106.517 85.5371L101.576 87.9854L102.697 90.252L107.638 87.8036L106.517 85.5371Z" fill="#CCCCCC"/>
<path d="M147.007 72.6464H141.494V94.4886H147.007V72.6464Z" fill="#E6E6E6"/>
<path d="M147.007 76.0952H141.494V78.6243H147.007V76.0952Z" fill="#CCCCCC"/>
<path d="M147.007 87.1313H141.494V89.6604H147.007V87.1313Z" fill="#CCCCCC"/>
<path d="M138.507 72.6464H132.994V94.4886H138.507V72.6464Z" fill="#E6E6E6"/>
<path d="M138.507 76.0952H132.994V78.6243H138.507V76.0952Z" fill="#CCCCCC"/>
<path d="M138.507 87.1313H132.994V89.6604H138.507V87.1313Z" fill="#CCCCCC"/>
<path d="M151.757 72.5561L146.816 75.0044L156.499 94.579L161.44 92.1307L151.757 72.5561Z" fill="#E6E6E6"/>
<path d="M153.286 75.6468L148.345 78.0951L149.466 80.3616L154.407 77.9133L153.286 75.6468Z" fill="#CCCCCC"/>
<path d="M158.178 85.5371L153.237 87.9854L154.358 90.2519L159.299 87.8036L158.178 85.5371Z" fill="#CCCCCC"/>
<path d="M29.2665 183.215L30.686 181.019C30.265 179.855 29.7788 178.716 29.2297 177.607L28.3118 178.349L29.0386 177.224C28.3459 175.86 27.8009 175 27.8009 175C27.8009 175 24.954 179.49 24.0029 184.244L25.8245 187.062L23.8079 185.432C23.7361 185.986 23.6991 186.543 23.6973 187.102C23.6973 192.732 25.5345 197.297 27.8009 197.297C30.0673 197.297 31.9045 192.732 31.9045 187.102C31.862 185.31 31.5454 183.536 30.9658 181.841L29.2665 183.215Z" fill="#1DCAAD"/>
<path d="M39.3153 188.096L41.8703 187.548C42.3948 186.427 42.8559 185.277 43.2511 184.104L42.0778 183.979L43.386 183.699C43.8603 182.244 44.0823 181.25 44.0823 181.25C44.0823 181.25 38.8971 182.41 34.8658 185.099L34.1632 188.38L33.889 185.8C33.447 186.141 33.0268 186.509 32.631 186.903C28.6532 190.884 26.7277 195.412 28.3302 197.016C29.9328 198.62 34.4566 196.693 38.4344 192.711C39.6699 191.415 40.6995 189.936 41.4873 188.327L39.3153 188.096Z" fill="#1DCAAD"/>
<path d="M40.2482 209.883C34.3234 210.262 27.8677 209.861 21 209.883V194.145C27.0516 195.088 33.5051 194.991 40.2482 194.145V209.883Z" fill="#3F3D56"/>
<path d="M284.966 194.525H204.976V298.356H284.966V194.525Z" fill="#E6E6E6"/>
<path d="M42 225H38V298H42V225Z" fill="#E6E6E6"/>
<path d="M285.967 210H1V218.34H285.967V210Z" fill="#E6E6E6"/>
<path d="M44.1615 218H35.8291V226.34H44.1615V218Z" fill="#E6E6E6"/>
<path d="M251.273 200.572L250.804 202.448H239.139L238.436 200.572H208.726V219.753H281.217V200.572H251.273Z" fill="#3F3D56"/>
<path d="M251.273 224.757L250.804 226.633H239.139L238.436 224.757H208.726V243.938H281.217V224.757H251.273Z" fill="#3F3D56"/>
<path d="M251.273 248.943L250.804 250.819H239.139L238.436 248.943H208.726V268.124H281.217V248.943H251.273Z" fill="#3F3D56"/>
<path d="M251.273 273.128L250.804 275.004H239.139L238.436 273.128H208.726V292.309H281.217V273.128H251.273Z" fill="#3F3D56"/>
<path d="M353.917 297.73C344.812 298.313 334.891 297.696 324.337 297.73V273.545C333.637 274.994 343.554 274.845 353.917 273.545V297.73Z" fill="#3F3D56"/>
<path d="M340.169 275.716H337.669L338.502 226.842H339.335L340.169 275.716Z" fill="#3F3D56"/>
<path d="M351.417 276.047H348.917L349.75 227.172H350.583L351.417 276.047Z" fill="#3F3D56"/>
<path d="M330.171 276.047H327.671L328.504 227.172H329.337L330.171 276.047Z" fill="#3F3D56"/>
<path d="M342.252 195.568L346.288 189.326C345.091 186.017 343.709 182.779 342.148 179.626L339.538 181.736L341.604 178.54C339.635 174.661 338.086 172.216 338.086 172.216C338.086 172.216 329.993 184.981 327.29 198.495L332.468 206.505L326.735 201.871C326.531 203.445 326.426 205.031 326.421 206.618C326.421 222.624 331.644 235.599 338.086 235.599C344.529 235.599 349.751 222.624 349.751 206.618C349.751 201.656 348.63 196.465 347.083 191.663L342.252 195.568Z" fill="#E6E6E6"/>
<path d="M353.501 196.402L357.537 190.16C356.34 186.851 354.958 183.613 353.397 180.46L350.787 182.57L352.853 179.374C350.885 175.495 349.335 173.05 349.335 173.05C349.335 173.05 341.242 185.815 338.539 199.329L343.717 207.339L337.984 202.705C337.78 204.279 337.675 205.865 337.67 207.452C337.67 223.458 342.893 236.433 349.335 236.433C355.778 236.433 361.001 223.458 361.001 207.452C361.001 202.49 359.879 197.299 358.332 192.497L353.501 196.402Z" fill="#1DCAAD"/>
<path d="M332.253 196.402L336.289 190.16C335.092 186.851 333.71 183.613 332.149 180.46L329.539 182.57L331.605 179.374C329.636 175.495 328.087 173.05 328.087 173.05C328.087 173.05 319.994 185.815 317.291 199.329L322.469 207.339L316.736 202.705C316.532 204.279 316.427 205.865 316.422 207.452C316.422 223.458 321.645 236.433 328.087 236.433C334.53 236.433 339.753 223.458 339.753 207.452C339.753 202.49 338.631 197.299 337.084 192.497L332.253 196.402Z" fill="#1DCAAD"/>
<path d="M154.566 208.687H129.985L130.818 197.846H153.732L154.566 208.687Z" fill="#E6E6E6"/>
<path d="M156.231 207.436H128.734V209.938H156.231V207.436Z" fill="#E6E6E6"/>
<path d="M189.353 128H95.406C94.743 128 94.1072 128.264 93.6384 128.733C93.1696 129.202 92.9062 129.838 92.9062 130.502V187.838H191.853V130.502C191.853 129.838 191.59 129.202 191.121 128.733C190.652 128.264 190.016 128 189.353 128Z" fill="#3F3D56"/>
<path d="M92.9062 187.838V197.22C92.9062 197.884 93.1696 198.52 93.6384 198.989C94.1072 199.458 94.743 199.722 95.406 199.722H189.353C190.016 199.722 190.652 199.458 191.121 198.989C191.59 198.52 191.853 197.884 191.853 197.22V187.838H92.9062Z" fill="#E6E6E6"/>
<path d="M187.062 133.212H97.9053V183.251H187.062V133.212Z" fill="white"/>
<path d="M142.484 196.178C143.865 196.178 144.984 195.058 144.984 193.676C144.984 192.294 143.865 191.174 142.484 191.174C141.104 191.174 139.984 192.294 139.984 193.676C139.984 195.058 141.104 196.178 142.484 196.178Z" fill="#3F3D56"/>
<path d="M150.857 147.337H126.817V148.718H150.857V147.337Z" fill="#3F3D56"/>
<path d="M163.939 152.375H126.817V153.756H163.939V152.375Z" fill="#84A5E3"/>
<path d="M157.071 157.122H126.817V158.503H157.071V157.122Z" fill="#84A5E3"/>
<path d="M144.479 161.851H126.817V163.232H144.479V161.851Z" fill="#3F3D56"/>
<path d="M153.473 166.579H126.817V167.961H153.473V166.579Z" fill="#3F3D56"/>
<path d="M118.805 146.846H115.861V149.792H118.805V146.846Z" fill="#3F3D56"/>
<path d="M118.805 151.593H115.861V154.539H118.805V151.593Z" fill="#3F77DF"/>
<path d="M118.805 156.339H115.861V159.286H118.805V156.339Z" fill="#3F77DF"/>
<path d="M118.805 161.086H115.861V164.032H118.805V161.086Z" fill="#3F3D56"/>
<path d="M118.805 165.833H115.861V168.779H118.805V165.833Z" fill="#3F3D56"/>
<path d="M182.932 144.722H170.317C169.456 139.741 169.456 134.649 170.317 129.668H182.932C181.51 134.585 181.51 139.805 182.932 144.722Z" fill="#FFF3CD"/>
<path d="M91.1408 152.393L85.951 151.127C83.9706 151.129 82.0144 150.691 80.2239 149.844C78.4335 148.997 76.8536 147.762 75.5986 146.229C74.3436 144.695 73.4448 142.902 72.9673 140.978C72.4899 139.054 72.4457 137.049 72.8379 135.106C72.8321 130.47 74.6664 126.022 77.9374 122.739C81.2084 119.457 85.6481 117.61 90.2798 117.604H90.2798C94.9115 117.599 99.3558 119.435 102.635 122.708C105.914 125.982 107.76 130.426 107.766 135.062V135.062C110.708 145.311 101.492 154.919 91.1408 152.393Z" fill="#2F2E41"/>
<path d="M96.8096 154.221C103.896 154.221 109.642 148.47 109.642 141.377C109.642 134.284 103.896 128.534 96.8096 128.534C89.7226 128.534 83.9775 134.284 83.9775 141.377C83.9775 148.47 89.7226 154.221 96.8096 154.221Z" fill="#FFB8B8"/>
<path d="M88.441 148.078C88.441 148.078 84.5356 161.48 82.304 162.597C80.0723 163.714 100.157 165.389 100.157 165.389C100.157 165.389 99.5993 152.545 100.715 151.429C101.831 150.312 88.441 148.078 88.441 148.078Z" fill="#FFB8B8"/>
<path d="M108.526 230.723C108.526 230.723 133.632 228.489 136.98 236.865C140.327 245.241 134.748 294.94 134.748 294.94H124.148V254.176C124.148 254.176 78.9492 241.317 78.9492 236.85C78.9492 232.382 108.526 230.723 108.526 230.723Z" fill="#2F2E41"/>
<path d="M133.075 292.706L138.654 294.94C138.654 294.94 145.349 294.382 142.559 299.407C141.761 300.866 140.644 302.126 139.291 303.093C137.939 304.06 136.386 304.709 134.748 304.991C134.748 304.991 124.148 308.9 123.59 304.991C123.032 301.082 126.38 293.265 126.38 293.265L133.075 292.706Z" fill="#2F2E41"/>
<path d="M94.578 230.723C94.578 230.723 119.684 228.489 123.032 236.865C126.379 245.241 120.8 294.94 120.8 294.94H110.2V254.176C110.2 254.176 78.1159 246.738 78.1159 242.271C78.1159 240.172 75.9296 229.506 79.7823 227.259C84.1306 224.723 94.578 230.723 94.578 230.723Z" fill="#2F2E41"/>
<path d="M119.126 292.706L124.706 294.94C124.706 294.94 131.401 294.382 128.611 299.407C127.812 300.866 126.695 302.126 125.343 303.093C123.991 304.06 122.438 304.709 120.8 304.991C120.8 304.991 110.2 308.9 109.642 304.991C109.084 301.082 112.431 293.265 112.431 293.265L119.126 292.706Z" fill="#2F2E41"/>
<path d="M82.8619 160.922L99.6284 162.746C102.216 163.027 104.649 164.12 106.579 165.868C108.509 167.615 109.838 169.929 110.376 172.478L116.895 203.361C116.895 203.361 119.126 234.073 114.663 235.748C110.2 237.424 104.063 229.048 95.694 230.164C87.3252 231.281 76.4459 233.794 76.4459 233.794C76.4459 233.794 74.7182 178.82 74.4932 174.323C74.0433 165.334 82.8619 160.922 82.8619 160.922Z" fill="#575A89"/>
<path d="M122.577 232.318L129.461 236.376C129.461 236.376 141.809 234.602 141.424 238.946C141.039 243.291 127.559 242.451 127.559 242.451L119.264 237.335L122.577 232.318Z" fill="#FFB8B8"/>
<path d="M71.9022 130.931C76.4801 130.931 80.1912 127.217 80.1912 122.635C80.1912 118.053 76.4801 114.339 71.9022 114.339C67.3244 114.339 63.6133 118.053 63.6133 122.635C63.6133 127.217 67.3244 130.931 71.9022 130.931Z" fill="#2F2E41"/>
<path d="M79.551 118.175C79.55 116.948 79.2769 115.736 78.7514 114.628C78.2259 113.519 77.461 112.541 76.512 111.764C75.563 110.986 74.4535 110.43 73.2636 110.134C72.0736 109.838 70.8329 109.81 69.6309 110.052C70.6914 109.551 71.8463 109.28 73.0192 109.259C74.192 109.237 75.356 109.465 76.4342 109.928C77.5124 110.39 78.4802 111.077 79.2735 111.942C80.0669 112.806 80.6677 113.83 81.0362 114.945C81.4048 116.059 81.5326 117.239 81.4114 118.407C81.2901 119.575 80.9225 120.704 80.3328 121.719C79.7431 122.734 78.9448 123.612 77.9907 124.295C77.0366 124.978 75.9485 125.45 74.7984 125.681C76.2206 125.01 77.4227 123.948 78.2643 122.619C79.1059 121.29 79.5522 119.749 79.551 118.175Z" fill="#2F2E41"/>
<path d="M86.6618 122.88L97.8366 120.821L106.43 126.212C108.543 127.537 110.232 129.441 111.296 131.698C112.361 133.955 112.756 136.47 112.436 138.945L103.829 136.762L101.901 131.925L99.6057 135.691L87.6041 151.149L80.8657 146.854L74.8584 137.432L86.6618 122.88Z" fill="#2F2E41"/>
<path d="M95.8643 165.672L101.443 162.88C101.443 162.88 113.16 164.555 115.391 172.373C117.623 180.19 127.665 234.356 127.665 234.356L118.181 238.823L104.791 205.877L95.8643 165.672Z" fill="#575A89"/>
<path opacity="0.2" d="M100.613 187.645L106.197 209.339L116.099 233.702L115.756 234.546L103.946 209.746L100.613 187.645Z" fill="black"/>
<path d="M58.9496 307.28L56.9805 306.601L76.0565 249.89L78.814 250.841L58.9496 307.28Z" fill="#3F3D56"/>
<path d="M131.861 307.28L133.831 306.601L114.754 249.89L111.997 250.841L131.861 307.28Z" fill="#3F3D56"/>
<path d="M91.5524 318.993L93.6353 319L94.2825 252.705L91.3662 252.695L91.5524 318.993Z" fill="#3F3D56"/>
<path d="M54.1293 216.567L59.8432 239.681C60.6434 242.918 62.3094 245.876 64.6623 248.236C67.0152 250.597 69.9662 252.272 73.1983 253.08H73.1983C89.1337 257.068 105.817 256.96 121.7 252.768L130.231 250.516C135.188 249.207 138.916 244.946 139.268 239.827C139.411 238.018 139.084 236.202 138.318 234.556C138.285 234.485 138.251 234.415 138.218 234.346C137.105 232.058 135.389 230.119 133.254 228.737C131.12 227.356 128.648 226.585 126.108 226.508L117.07 226.217L84.1576 211.622C84.1576 211.622 72.838 205.867 63.5324 205.223C57.3868 204.798 52.6497 210.582 54.1293 216.567Z" fill="#3F77DF"/>
<path d="M254.762 143.861H222.266V188.062H254.762V143.861Z" fill="#E6E6E6"/>
<path d="M251.013 148.961H226.016V182.962H251.013V148.961Z" fill="white"/>
<path d="M247.965 157.859H235.854V159.24H247.965V157.859Z" fill="#3F3D56"/>
<path d="M232.007 157.094H229.063V160.041H232.007V157.094Z" fill="#3F3D56"/>
<path d="M247.965 163.697H235.854V165.078H247.965V163.697Z" fill="#3F3D56"/>
<path d="M232.007 162.932H229.063V165.878H232.007V162.932Z" fill="#3F3D56"/>
<path d="M247.965 169.535H235.854V170.916H247.965V169.535Z" fill="#3F3D56"/>
<path d="M232.007 168.77H229.063V171.716H232.007V168.77Z" fill="#3F3D56"/>
<path d="M239.764 146.363C239.764 145.672 239.205 145.112 238.515 145.112C237.824 145.112 237.265 145.672 237.265 146.363C237.265 147.054 237.824 147.614 238.515 147.614C239.205 147.614 239.764 147.054 239.764 146.363Z" fill="#3F3D56"/>
</g>
<defs>
<clipPath id="clip0_346_6562">
<rect width="361" height="319" fill="white"/>
</clipPath>
</defs>
</svg>
