<svg width="340" height="245" viewBox="0 0 340 245" fill="none" xmlns="http://www.w3.org/2000/svg">
<path d="M160.944 242.324H0V243.027H160.944V242.324Z" fill="#3F3D56"/>
<path d="M40.9124 239.875H45.4882L47.6654 222.149H40.9116L40.9124 239.875Z" fill="#FFB8B8"/>
<path d="M54.3135 244.142L39.9314 244.142L39.9312 238.562L48.7565 238.562C50.2303 238.562 51.6436 239.149 52.6858 240.196C53.7279 241.242 54.3134 242.662 54.3135 244.142L54.3135 244.142Z" fill="#2F2E41"/>
<path d="M16.5649 238.992L21.1012 239.599L25.5923 222.318L18.8978 221.422L16.5649 238.992Z" fill="#FFB8B8"/>
<path d="M29.2876 245L15.0317 243.091L15.7661 237.56L24.514 238.731C25.9748 238.927 27.2984 239.697 28.1936 240.873C29.0889 242.048 29.4824 243.533 29.2876 245Z" fill="#2F2E41"/>
<path d="M23.0662 166.668L48.8212 167.792L47.7015 233.389L40.9827 232.64L35.7571 188.034L23.4394 235.638L16.7207 234.514L23.0662 166.668Z" fill="#2F2E41"/>
<path d="M40.2364 127.685L31.2781 125.848L25.6792 167.043C25.6792 167.043 42.1027 177.914 47.3284 166.669L40.2364 127.685Z" fill="#3F77DF"/>
<path d="M36.3288 122.846C41.392 122.846 45.4965 118.725 45.4965 113.64C45.4965 108.555 41.392 104.434 36.3288 104.434C31.2657 104.434 27.1611 108.555 27.1611 113.64C27.1611 118.725 31.2657 122.846 36.3288 122.846Z" fill="#FFB8B8"/>
<path d="M31.278 125.436L18.2138 129.559C18.2138 129.559 24.5593 161.42 14.1079 177.913C14.1079 177.913 27.1721 191.782 32.771 160.67C32.771 160.67 37.2502 135.556 31.278 125.436Z" fill="#2F2E41"/>
<path d="M40.2363 127.685L49.9412 133.682C49.9412 133.682 55.1668 177.538 49.9412 181.661C44.7155 185.785 40.2363 127.685 40.2363 127.685Z" fill="#2F2E41"/>
<path d="M53.9758 188.022C53.5781 187.642 53.268 187.18 53.0676 186.667C52.8671 186.154 52.7811 185.603 52.8155 185.053C52.85 184.503 53.0041 183.967 53.267 183.483C53.5299 183 53.8952 182.58 54.3372 182.253L50.3916 169.458L57.0478 171.4L59.7742 183.253C60.2713 184.035 60.4654 184.973 60.3198 185.889C60.1743 186.805 59.6991 187.636 58.9844 188.223C58.2697 188.811 57.365 189.116 56.4419 189.078C55.5188 189.041 54.6414 188.665 53.9758 188.022Z" fill="#FFB8B8"/>
<path d="M20.448 184.321C20.0051 183.996 19.6387 183.577 19.3745 183.094C19.1103 182.611 18.9547 182.076 18.9188 181.526C18.8828 180.976 18.9674 180.425 19.1665 179.912C19.3656 179.398 19.6744 178.935 20.0711 178.554L14.5269 166.371L21.3758 167.441L25.5907 178.846C26.1834 179.558 26.4955 180.463 26.4679 181.39C26.4404 182.318 26.075 183.203 25.4411 183.878C24.8072 184.552 23.9488 184.97 23.0285 185.052C22.1082 185.134 21.1901 184.874 20.448 184.321H20.448Z" fill="#FFB8B8"/>
<path d="M21.5728 129.934L18.2134 129.56L9.62842 157.672L18.2134 177.164L24.9322 173.041L17.4669 156.923L23.4391 139.68L21.5728 129.934Z" fill="#2F2E41"/>
<path d="M48.0745 133.308L49.9408 133.682L58.8991 177.539L52.9269 179.413L45.835 153.549L48.0745 133.308Z" fill="#2F2E41"/>
<path d="M30.0291 117.42C30.1526 116.516 30.5081 115.659 31.0606 114.934C31.6131 114.208 32.3438 113.64 33.181 113.283C34.9456 112.557 36.9362 112.864 38.8385 113.003C40.7407 113.142 42.8585 113.021 44.2312 111.691C45.4853 110.477 45.7673 108.461 45.1617 106.82C44.5561 105.179 43.1848 103.906 41.6271 103.122C40.0397 102.391 38.3388 101.939 36.599 101.788C34.0567 101.479 31.4461 101.44 28.9683 102.089C26.4904 102.738 27.1293 104.13 25.6773 106.248C24.2253 108.366 23.7903 111.252 24.8973 113.571C25.6381 115.122 26.9655 116.297 28.2582 117.426" fill="#2F2E41"/>
<path d="M235.095 219.02L235.095 218.318C236.486 218.317 237.898 218.289 239.293 218.233L239.321 218.935C237.917 218.991 236.495 219.02 235.095 219.02ZM230.87 218.939C229.471 218.884 228.052 218.8 226.652 218.689L226.707 217.989C228.098 218.099 229.508 218.183 230.897 218.237L230.87 218.939ZM243.539 218.68L243.484 217.979C244.872 217.868 246.278 217.726 247.66 217.558L247.744 218.256C246.352 218.425 244.937 218.568 243.539 218.68ZM222.446 218.27C221.051 218.103 219.643 217.905 218.261 217.682L218.372 216.988C219.745 217.209 221.143 217.406 222.529 217.572L222.446 218.27ZM251.929 217.663L251.817 216.969C253.189 216.747 254.579 216.492 255.947 216.212L256.086 216.901C254.709 217.182 253.31 217.439 251.929 217.663H251.929ZM214.103 216.924C212.725 216.644 211.338 216.332 209.978 215.998L210.144 215.315C211.495 215.648 212.874 215.957 214.241 216.235L214.103 216.924ZM260.21 215.97L260.042 215.288C261.397 214.953 262.762 214.586 264.098 214.197L264.292 214.872C262.947 215.264 261.574 215.633 260.21 215.97ZM205.894 214.905C204.545 214.514 203.187 214.09 201.858 213.646L202.079 212.979C203.399 213.421 204.748 213.841 206.088 214.23L205.894 214.905ZM268.327 213.609L268.105 212.942C269.426 212.499 270.756 212.022 272.059 211.525L272.308 212.182C270.996 212.683 269.657 213.163 268.327 213.609ZM197.865 212.22C196.552 211.721 195.23 211.187 193.935 210.632L194.209 209.986C195.495 210.536 196.809 211.067 198.113 211.563L197.865 212.22ZM276.217 210.6L275.942 209.953C277.221 209.404 278.505 208.823 279.759 208.224L280.06 208.859C278.798 209.461 277.504 210.047 276.217 210.6ZM190.072 208.887C188.801 208.281 187.527 207.641 186.285 206.985L186.611 206.364C187.844 207.015 189.11 207.65 190.372 208.252L190.072 208.887ZM283.831 206.963L283.506 206.341C284.738 205.69 285.972 205.006 287.174 204.307L287.525 204.915C286.315 205.618 285.072 206.307 283.832 206.963H283.831ZM182.579 204.933C181.359 204.225 180.141 203.484 178.958 202.732L179.333 202.138C180.508 202.886 181.718 203.621 182.929 204.325L182.579 204.933ZM291.135 202.719L290.76 202.126C291.933 201.38 293.11 200.598 294.257 199.801L294.654 200.379C293.5 201.181 292.316 201.968 291.135 202.719H291.135ZM175.43 200.387C174.273 199.584 173.119 198.748 172 197.903L172.42 197.341C173.532 198.181 174.679 199.012 175.828 199.809L175.43 200.387ZM298.079 197.898L297.658 197.337C298.768 196.499 299.878 195.624 300.96 194.737L301.403 195.281C300.314 196.174 299.196 197.055 298.079 197.898ZM168.672 195.282C167.586 194.391 166.502 193.465 165.452 192.53L165.916 192.004C166.959 192.933 168.036 193.852 169.115 194.738L168.672 195.282ZM304.62 192.532L304.156 192.006C305.198 191.078 306.236 190.117 307.241 189.148L307.725 189.655C306.714 190.63 305.669 191.598 304.62 192.532H304.62ZM162.345 189.652C161.336 188.678 160.33 187.669 159.356 186.652L159.86 186.165C160.828 187.175 161.827 188.178 162.83 189.145L162.345 189.652ZM310.715 186.655L310.21 186.167C311.175 185.16 312.133 184.118 313.059 183.07L313.583 183.536C312.651 184.591 311.686 185.64 310.715 186.655V186.655ZM156.489 183.535C155.556 182.479 154.635 181.392 153.75 180.305L154.292 179.86C155.17 180.94 156.086 182.02 157.013 183.068L156.489 183.535ZM316.325 180.304L315.783 179.86C316.667 178.774 317.54 177.658 318.377 176.541L318.936 176.964C318.093 178.088 317.214 179.212 316.325 180.304V180.304ZM151.142 176.969C150.298 175.845 149.467 174.689 148.669 173.532L149.245 173.132C150.037 174.281 150.863 175.43 151.701 176.547L151.142 176.969ZM321.412 173.52L320.837 173.121C321.631 171.967 322.412 170.783 323.158 169.602L323.749 169.979C322.998 171.167 322.212 172.358 321.412 173.52V173.52ZM146.337 169.998C145.587 168.811 144.851 167.592 144.148 166.375L144.754 166.023C145.452 167.232 146.183 168.443 146.928 169.622L146.337 169.998ZM325.943 166.345L325.337 165.992C326.038 164.777 326.721 163.533 327.369 162.296L327.989 162.623C327.336 163.869 326.648 165.121 325.943 166.345H325.943ZM142.108 162.666C141.456 161.423 140.82 160.149 140.218 158.879L140.849 158.577C141.448 159.838 142.079 161.104 142.727 162.339L142.108 162.666ZM329.884 158.821L329.252 158.519C329.851 157.254 330.433 155.958 330.981 154.668L331.624 154.944C331.072 156.243 330.487 157.547 329.884 158.821ZM138.482 155.021C137.931 153.727 137.4 152.407 136.904 151.097L137.558 150.847C138.051 152.148 138.578 153.459 139.125 154.745L138.482 155.021ZM333.208 150.997L332.553 150.748C333.049 149.434 333.525 148.094 333.966 146.766L334.63 146.989C334.186 148.325 333.707 149.674 333.208 150.997ZM135.481 147.1C135.035 145.764 134.611 144.401 134.221 143.049L134.893 142.853C135.281 144.196 135.702 145.55 136.145 146.877L135.481 147.1ZM335.886 142.935L335.213 142.74C335.599 141.4 335.964 140.029 336.297 138.668L336.976 138.835C336.641 140.206 336.274 141.586 335.886 142.935ZM133.125 138.949C132.789 137.581 132.477 136.188 132.196 134.809L132.882 134.669C133.16 136.038 133.471 137.422 133.805 138.781L133.125 138.949ZM337.901 134.694L337.215 134.554C337.492 133.186 337.744 131.79 337.967 130.407L338.657 130.519C338.434 131.911 338.179 133.316 337.901 134.694V134.694ZM131.435 130.635C131.21 129.247 131.011 127.834 130.842 126.433L131.536 126.348C131.704 127.74 131.903 129.144 132.126 130.522L131.435 130.635ZM339.246 126.315L338.551 126.232C338.717 124.841 338.858 123.429 338.968 122.037L339.665 122.093C339.554 123.494 339.413 124.915 339.246 126.315V126.315ZM130.418 122.211C130.305 120.807 130.218 119.382 130.162 117.974L130.861 117.946C130.917 119.344 131.003 120.76 131.115 122.154L130.418 122.211ZM339.917 117.857L339.218 117.829C339.272 116.429 339.3 115.011 339.3 113.614L339.3 113.381H340L340 113.612C340 115.02 339.972 116.447 339.917 117.857H339.917ZM130.773 113.73H130.073L130.073 113.612C130.073 112.242 130.1 110.853 130.152 109.488L130.851 109.515C130.799 110.872 130.773 112.251 130.773 113.614L130.773 113.73ZM339.208 109.167C339.15 107.772 339.063 106.356 338.949 104.959L339.647 104.902C339.761 106.308 339.849 107.733 339.907 109.138L339.208 109.167ZM131.097 105.307L130.399 105.252C130.509 103.844 130.649 102.424 130.814 101.028L131.509 101.111C131.345 102.497 131.206 103.909 131.097 105.307ZM338.523 100.765C338.355 99.3793 338.155 97.9752 337.93 96.5921L338.62 96.4787C338.847 97.8711 339.048 99.2846 339.218 100.68L338.523 100.765ZM132.088 96.9361L131.398 96.8249C131.619 95.4335 131.872 94.0283 132.15 92.6486L132.836 92.7876C132.56 94.1582 132.309 95.5538 132.088 96.9361ZM337.168 92.4462C336.888 91.073 336.576 89.6899 336.241 88.3347L336.92 88.1656C337.257 89.5298 337.571 90.9225 337.854 92.3048L337.168 92.4462ZM133.749 88.673L133.069 88.5063C133.402 87.1386 133.768 85.7586 134.156 84.4043L134.828 84.5986C134.443 85.9439 134.08 87.3146 133.749 88.673H133.749ZM335.149 84.2643C334.759 82.9222 334.337 81.5687 333.893 80.2417L334.556 80.018C335.003 81.3539 335.429 82.7164 335.82 84.0677L335.149 84.2643ZM136.071 80.572L135.407 80.3503C135.85 79.0123 136.327 77.663 136.825 76.3399L137.479 76.5883C136.985 77.9026 136.511 79.2429 136.071 80.572ZM332.475 76.2735C331.978 74.9664 331.449 73.6555 330.903 72.377L331.546 72.1001C332.096 73.3872 332.628 74.7068 333.129 76.0227L332.475 76.2735ZM139.048 72.6666L138.404 72.3914C138.953 71.0932 139.538 69.788 140.14 68.5124L140.772 68.8134C140.174 70.0805 139.594 71.377 139.048 72.6666ZM329.174 68.5461C328.576 67.2865 327.943 66.0217 327.294 64.787L327.912 64.4588C328.566 65.702 329.203 66.9751 329.806 68.2434L329.174 68.5461ZM142.651 65.0344L142.031 64.7081C142.683 63.4596 143.37 62.2069 144.073 60.9845L144.679 61.3359C143.981 62.55 143.299 63.7945 142.651 65.0344L142.651 65.0344ZM325.262 61.106C324.562 59.8963 323.83 58.6861 323.084 57.5087L323.675 57.1316C324.425 58.3169 325.163 59.5354 325.867 60.7529L325.262 61.106ZM146.854 57.7237L146.263 57.348C147.013 56.1561 147.798 54.9636 148.596 53.8037L149.171 54.2029C148.379 55.3551 147.6 56.5396 146.854 57.7237V57.7237ZM320.763 54.0012C319.969 52.8526 319.142 51.7045 318.304 50.5893L318.862 50.1659C319.706 51.2886 320.539 52.4443 321.338 53.6008L320.763 54.0012ZM151.627 50.7793L151.068 50.3572C151.911 49.2301 152.788 48.1053 153.675 47.0139L154.218 47.4582C153.337 48.5423 152.465 49.6597 151.627 50.7793L151.627 50.7793ZM315.709 47.2782C314.827 46.1969 313.91 45.1186 312.984 44.0735L313.507 43.6065C314.439 44.6587 315.362 45.7441 316.251 46.8329L315.709 47.2782ZM156.938 44.2445L156.414 43.7789C157.343 42.7249 158.307 41.6746 159.279 40.6572L159.784 41.1438C158.818 42.1542 157.861 43.1977 156.938 44.2445V44.2445ZM310.134 40.9797C309.165 39.9708 308.165 38.9692 307.161 38.0027L307.645 37.4952C308.656 38.4683 309.663 39.4765 310.637 40.4922L310.134 40.9797ZM162.75 38.1601L162.264 37.6537C163.274 36.678 164.318 35.7091 165.367 34.7734L165.832 35.2987C164.79 36.2282 163.753 37.191 162.75 38.1601L162.75 38.1601ZM304.071 35.1467C303.026 34.2184 301.949 33.2998 300.87 32.4168L301.312 31.8721C302.398 32.7612 303.482 33.6857 304.535 34.6203L304.071 35.1467ZM169.025 32.564L168.581 32.0205C169.667 31.1275 170.784 30.2459 171.902 29.3997L172.323 29.9608C171.213 30.8012 170.103 31.6772 169.025 32.564L169.025 32.564ZM297.561 29.8175C296.445 28.9762 295.297 28.147 294.151 27.353L294.548 26.7745C295.702 27.5738 296.857 28.4085 297.981 29.2555L297.561 29.8175ZM175.722 27.4922L175.324 26.9147C176.477 26.112 177.661 25.3233 178.841 24.5705L179.216 25.1638C178.044 25.9114 176.868 26.6947 175.722 27.4922V27.4922ZM290.643 25.0275C289.463 24.2792 288.253 23.5451 287.045 22.8456L287.395 22.2369C288.61 22.941 289.829 23.6801 291.017 24.4334L290.643 25.0275ZM182.799 22.9789L182.448 22.3709C183.658 21.6663 184.9 20.976 186.14 20.3194L186.466 20.9408C185.235 21.5931 184.001 22.2788 182.799 22.9789V22.9789ZM283.361 20.8106C282.125 20.1604 280.859 19.5264 279.597 18.9265L279.896 18.2914C281.167 18.8953 282.442 19.5335 283.686 20.1882L283.361 20.8106ZM190.21 19.0538L189.909 18.4194C191.171 17.8153 192.463 17.2282 193.751 16.6744L194.026 17.3203C192.747 17.8703 191.464 18.4535 190.21 19.0538V19.0538ZM275.759 17.1966C274.473 16.6482 273.159 16.1192 271.853 15.6241L272.1 14.9667C273.415 15.4651 274.738 15.9978 276.032 16.5499L275.759 17.1966ZM197.907 15.7437L197.658 15.087C198.967 14.5857 200.306 14.1043 201.637 13.656L201.859 14.3223C200.537 14.7675 199.208 15.2458 197.907 15.7437V15.7437ZM267.885 14.2118C266.563 13.7714 265.213 13.3523 263.874 12.9661L264.068 12.2909C265.416 12.6796 266.774 13.1015 268.105 13.5448L267.885 14.2118ZM205.866 13.0627L205.67 12.3881C207.016 11.9949 208.389 11.624 209.752 11.2855L209.92 11.9677C208.566 12.3039 207.202 12.6724 205.866 13.0627V13.0627ZM259.817 11.885C258.466 11.554 257.087 11.2461 255.719 10.9697L255.857 10.2807C257.234 10.559 258.622 10.8691 259.983 11.2021L259.817 11.885ZM214.014 11.039L213.874 10.3507C215.246 10.0686 216.644 9.8106 218.03 9.58363L218.143 10.2771C216.766 10.5027 215.377 10.759 214.014 11.039ZM251.588 10.2217C250.212 10.0014 248.813 9.80614 247.429 9.64178L247.512 8.94387C248.904 9.10943 250.313 9.30587 251.698 9.52787L251.588 10.2217ZM222.299 9.68313L222.214 8.98555C223.606 8.81538 225.021 8.67106 226.419 8.55717L226.475 9.25748C225.087 9.37089 223.682 9.51397 222.299 9.68313H222.299ZM243.252 9.23004C241.865 9.12144 240.454 9.03943 239.061 8.98642L239.087 8.28406C240.49 8.33758 241.91 8.42012 243.306 8.52938L243.252 9.23004ZM230.666 8.99997L230.637 8.29796C232.036 8.23997 233.458 8.20943 234.862 8.20703L234.863 8.90973C233.468 8.91214 232.056 8.9425 230.666 8.99997H230.666Z" fill="#CCCCCC"/>
<path d="M197.972 179.396C235.266 179.396 265.499 149.036 265.499 111.584C265.499 74.1328 235.266 43.7725 197.972 43.7725C160.678 43.7725 130.446 74.1328 130.446 111.584C130.446 149.036 160.678 179.396 197.972 179.396Z" fill="#3F3D56"/>
<path d="M174.006 161.125C193.812 161.125 209.868 138.945 209.868 111.584C209.868 84.2233 193.812 62.043 174.006 62.043C154.199 62.043 138.143 84.2233 138.143 111.584C138.143 138.945 154.199 161.125 174.006 161.125Z" fill="white"/>
<path d="M162.117 137.891C167.645 137.891 172.126 130.812 172.126 122.08C172.126 113.347 167.645 106.269 162.117 106.269C156.589 106.269 152.108 113.347 152.108 122.08C152.108 130.812 156.589 137.891 162.117 137.891Z" fill="#3F3D56"/>
<path d="M330.642 80.3896C334.313 80.3896 337.289 77.4008 337.289 73.7139C337.289 70.0269 334.313 67.0381 330.642 67.0381C326.97 67.0381 323.994 70.0269 323.994 73.7139C323.994 77.4008 326.97 80.3896 330.642 80.3896Z" fill="#3F77DF"/>
<path d="M253.853 19.6759C259.263 19.6759 263.649 15.2713 263.649 9.83797C263.649 4.40461 259.263 0 253.853 0C248.442 0 244.056 4.40461 244.056 9.83797C244.056 15.2713 248.442 19.6759 253.853 19.6759Z" fill="#3F77DF"/>
<path d="M247.363 224.589C251.034 224.589 254.01 221.6 254.01 217.913C254.01 214.226 251.034 211.237 247.363 211.237C243.691 211.237 240.715 214.226 240.715 217.913C240.715 221.6 243.691 224.589 247.363 224.589Z" fill="#3F77DF"/>
</svg>
