<svg width="533" height="232" viewBox="0 0 533 232" fill="none" xmlns="http://www.w3.org/2000/svg">
<g clip-path="url(#clip0_337:4280)">
<path d="M52.2183 95.7068H364.932C366.26 95.7068 367.533 96.2361 368.472 97.1782C369.411 98.1203 369.939 99.398 369.939 100.73C369.939 102.063 369.411 103.34 368.472 104.282C367.533 105.224 366.26 105.754 364.932 105.754H356.075V225.93C356.075 227.262 355.547 228.54 354.608 229.482C353.669 230.424 352.396 230.953 351.068 230.953C349.74 230.953 348.467 230.424 347.528 229.482C346.589 228.54 346.062 227.262 346.062 225.93L345.985 105.754H95.0008L71.8592 225.93C71.8592 227.262 71.3318 228.54 70.3929 229.482C69.4539 230.424 68.1805 230.953 66.8527 230.953C65.5249 230.953 64.2515 230.424 63.3126 229.482C62.3737 228.54 61.8462 227.262 61.8462 225.93L60.3896 105.754H52.2183C50.8905 105.754 49.6171 105.224 48.6782 104.282C47.7393 103.34 47.2118 102.063 47.2118 100.73C47.2118 99.398 47.7393 98.1203 48.6782 97.1782C49.6171 96.2361 50.8905 95.7068 52.2183 95.7068Z" fill="#CCCCCC"/>
<path d="M310.727 73.3231V94.596H363.844C365.236 94.6446 366.624 94.4176 367.929 93.928C369.234 93.4383 370.429 92.6956 371.448 91.7423C372.467 90.789 373.288 89.6437 373.866 88.3718C374.443 87.0999 374.765 85.7264 374.814 84.3296C374.862 82.9328 374.636 81.5401 374.148 80.231C373.66 78.922 372.92 77.7222 371.97 76.7001C371.019 75.6781 369.878 74.8538 368.61 74.2744C367.343 73.695 365.974 73.3717 364.582 73.3231C364.336 73.3145 364.09 73.3145 363.844 73.3231L310.727 73.3231Z" fill="#F2F2F2"/>
<path d="M309.423 94.4324C309.423 94.6493 309.509 94.8574 309.662 95.0108C309.814 95.1642 310.022 95.2505 310.238 95.2505H364.79C367.752 95.2485 370.591 94.0666 372.685 91.9647C374.778 89.8628 375.954 87.0129 375.954 84.0414C375.954 81.0699 374.778 78.22 372.685 76.1181C370.591 74.0162 367.752 72.8343 364.79 72.8322H310.238C310.131 72.8319 310.025 72.8529 309.925 72.8939C309.826 72.9349 309.736 72.9951 309.66 73.0711C309.584 73.1471 309.524 73.2374 309.483 73.3368C309.442 73.4362 309.42 73.5428 309.42 73.6504C309.42 73.758 309.442 73.8646 309.483 73.964C309.524 74.0634 309.584 74.1537 309.66 74.2297C309.736 74.3057 309.826 74.3659 309.925 74.4069C310.025 74.4479 310.131 74.4689 310.238 74.4686H364.79C367.318 74.4724 369.741 75.4827 371.527 77.2775C373.313 79.0723 374.316 81.505 374.316 84.0414C374.316 86.5777 373.313 89.0104 371.527 90.8053C369.741 92.6001 367.318 93.6103 364.79 93.6142H310.238C310.022 93.6143 309.814 93.7005 309.662 93.8539C309.509 94.0073 309.423 94.2154 309.423 94.4324Z" fill="#3F77DF"/>
<path d="M310.727 78.2322H367.807C367.851 78.2325 367.892 78.2155 367.923 78.1851C367.954 78.1548 367.971 78.1134 367.971 78.0701C367.972 78.0268 367.955 77.9851 367.925 77.9542C367.895 77.9232 367.854 77.9056 367.81 77.905H310.727C310.684 77.9054 310.643 77.9228 310.613 77.9535C310.583 77.9841 310.566 78.0255 310.566 78.0686C310.566 78.1117 310.583 78.1531 310.613 78.1837C310.643 78.2144 310.684 78.2318 310.727 78.2322Z" fill="#CCCCCC"/>
<path d="M310.727 82.1596H367.807C367.851 82.1598 367.892 82.1429 367.923 82.1125C367.954 82.0821 367.971 82.0407 367.971 81.9975C367.972 81.9542 367.955 81.9125 367.925 81.8815C367.895 81.8506 367.854 81.8329 367.81 81.8323H310.727C310.684 81.8328 310.643 81.8502 310.613 81.8808C310.583 81.9115 310.566 81.9528 310.566 81.996C310.566 82.0391 310.583 82.0804 310.613 82.1111C310.643 82.1417 310.684 82.1592 310.727 82.1596Z" fill="#CCCCCC"/>
<path d="M310.727 86.0869H367.807C367.851 86.0871 367.892 86.0702 367.923 86.0398C367.954 86.0094 367.971 85.968 367.971 85.9247C367.972 85.8814 367.955 85.8397 367.925 85.8088C367.895 85.7778 367.854 85.7602 367.81 85.7596H310.727C310.684 85.76 310.643 85.7775 310.613 85.8081C310.583 85.8387 310.566 85.8801 310.566 85.9232C310.566 85.9663 310.583 86.0077 310.613 86.0384C310.643 86.069 310.684 86.0864 310.727 86.0869Z" fill="#CCCCCC"/>
<path d="M310.727 90.0141H367.807C367.851 90.0144 367.892 89.9974 367.923 89.967C367.954 89.9367 367.971 89.8953 367.971 89.852C367.972 89.8087 367.955 89.767 367.925 89.7361C367.895 89.7051 367.854 89.6874 367.81 89.6869H310.727C310.684 89.6873 310.643 89.7047 310.613 89.7354C310.583 89.766 310.566 89.8074 310.566 89.8505C310.566 89.8936 310.583 89.935 310.613 89.9656C310.643 89.9963 310.684 90.0137 310.727 90.0141Z" fill="#CCCCCC"/>
<path d="M320.74 50.9109V72.1838H373.857C376.669 72.2819 379.404 71.2554 381.461 69.3301C383.518 67.4048 384.729 64.7383 384.827 61.9174C384.924 59.0964 383.901 56.352 381.983 54.2879C380.064 52.2238 377.406 51.009 374.595 50.9109C374.349 50.9023 374.103 50.9023 373.857 50.9109H320.74Z" fill="#F2F2F2"/>
<path d="M319.436 72.0201C319.436 72.2371 319.522 72.4451 319.675 72.5986C319.827 72.752 320.035 72.8382 320.251 72.8383H374.803C377.766 72.8383 380.608 71.6574 382.703 69.5552C384.798 67.4531 385.975 64.602 385.975 61.6291C385.975 58.6563 384.798 55.8052 382.703 53.7031C380.608 51.6009 377.766 50.42 374.803 50.42H320.251C320.144 50.42 320.038 50.4411 319.939 50.4823C319.84 50.5234 319.75 50.5836 319.674 50.6596C319.599 50.7356 319.539 50.8258 319.498 50.9251C319.457 51.0243 319.436 51.1307 319.436 51.2382C319.436 51.3456 319.457 51.452 319.498 51.5513C319.539 51.6505 319.599 51.7407 319.674 51.8167C319.75 51.8927 319.84 51.9529 319.939 51.9941C320.038 52.0352 320.144 52.0564 320.251 52.0564H374.803C377.334 52.0564 379.76 53.0649 381.549 54.8602C383.339 56.6554 384.344 59.0903 384.344 61.6292C384.344 64.168 383.339 66.6029 381.549 68.3981C379.76 70.1934 377.334 71.202 374.803 71.202H320.251C320.035 71.202 319.827 71.2883 319.675 71.4417C319.522 71.5951 319.436 71.8032 319.436 72.0201Z" fill="#3F3D56"/>
<path d="M320.74 55.82H377.82C377.864 55.8202 377.905 55.8033 377.936 55.7729C377.966 55.7425 377.984 55.7011 377.984 55.6579C377.985 55.6146 377.968 55.5729 377.938 55.5419C377.908 55.511 377.867 55.4933 377.823 55.4927H320.74C320.697 55.4932 320.656 55.5106 320.626 55.5412C320.596 55.5719 320.579 55.6132 320.579 55.6563C320.579 55.6995 320.596 55.7408 320.626 55.7715C320.656 55.8021 320.697 55.8196 320.74 55.82Z" fill="#CCCCCC"/>
<path d="M320.74 59.7473H377.82C377.864 59.7475 377.905 59.7306 377.936 59.7002C377.966 59.6698 377.984 59.6285 377.984 59.5852C377.985 59.5419 377.968 59.5002 377.938 59.4693C377.908 59.4383 377.867 59.4206 377.823 59.42H320.74C320.697 59.4205 320.656 59.4379 320.626 59.4685C320.596 59.4992 320.579 59.5405 320.579 59.5837C320.579 59.6268 320.596 59.6682 320.626 59.6988C320.656 59.7294 320.697 59.7469 320.74 59.7473Z" fill="#CCCCCC"/>
<path d="M320.74 63.6746H377.82C377.864 63.6748 377.905 63.6579 377.936 63.6275C377.966 63.5971 377.984 63.5558 377.984 63.5125C377.985 63.4692 377.968 63.4275 377.938 63.3965C377.908 63.3656 377.867 63.3479 377.823 63.3473H320.74C320.697 63.3478 320.656 63.3652 320.626 63.3958C320.596 63.4265 320.579 63.4679 320.579 63.511C320.579 63.5541 320.596 63.5955 320.626 63.6261C320.656 63.6567 320.697 63.6742 320.74 63.6746Z" fill="#CCCCCC"/>
<path d="M320.74 67.6019H377.82C377.864 67.6021 377.905 67.5852 377.936 67.5548C377.966 67.5244 377.984 67.4831 377.984 67.4398C377.985 67.3965 377.968 67.3548 377.938 67.3238C377.908 67.2929 377.867 67.2752 377.823 67.2746H320.74C320.697 67.2751 320.656 67.2925 320.626 67.3231C320.596 67.3538 320.579 67.3952 320.579 67.4383C320.579 67.4814 320.596 67.5228 320.626 67.5534C320.656 67.584 320.697 67.6015 320.74 67.6019Z" fill="#CCCCCC"/>
<path d="M258.95 170.982V152.434C258.95 151.615 259.274 150.828 259.852 150.248C260.43 149.669 261.213 149.343 262.03 149.343H332.121C332.939 149.343 333.722 149.669 334.3 150.248C334.878 150.828 335.202 151.615 335.202 152.434V170.982H258.95Z" fill="#CCCCCC"/>
<path d="M258.949 177.938H335.202V201.896H258.949V177.938Z" fill="#CCCCCC"/>
<path d="M335.202 208.851V227.4C335.202 228.219 334.878 229.006 334.3 229.585C333.722 230.165 332.939 230.491 332.121 230.491H262.03C261.213 230.491 260.43 230.165 259.852 229.585C259.274 229.006 258.95 228.219 258.95 227.4V208.851H335.202Z" fill="#CCCCCC"/>
<path d="M297.461 163.254C296.185 163.254 295.15 162.216 295.15 160.936C295.15 159.655 296.185 158.617 297.461 158.617C298.737 158.617 299.771 159.655 299.771 160.936C299.771 162.216 298.737 163.254 297.461 163.254Z" fill="white"/>
<path d="M297.461 194.168C296.185 194.168 295.15 193.13 295.15 191.849C295.15 190.569 296.185 189.531 297.461 189.531C298.737 189.531 299.771 190.569 299.771 191.849C299.771 193.13 298.737 194.168 297.461 194.168Z" fill="white"/>
<path d="M297.337 224.426C296.061 224.426 295.026 223.388 295.026 222.108C295.026 220.827 296.061 219.789 297.337 219.789C298.613 219.789 299.648 220.827 299.648 222.108C299.648 223.388 298.613 224.426 297.337 224.426Z" fill="white"/>
<path d="M267.595 128.195V149.467H320.711C323.522 149.564 326.255 148.536 328.31 146.611C330.366 144.686 331.576 142.021 331.673 139.201C331.771 136.381 330.749 133.638 328.832 131.574C326.915 129.51 324.26 128.295 321.45 128.195C321.204 128.186 320.957 128.186 320.711 128.195H267.595Z" fill="#F2F2F2"/>
<path d="M266.29 149.304C266.29 149.521 266.376 149.729 266.529 149.882C266.682 150.036 266.889 150.122 267.105 150.122H321.657C324.62 150.123 327.461 148.943 329.556 146.842C331.652 144.741 332.83 141.892 332.832 138.919C332.833 135.947 331.659 133.096 329.566 130.993C327.473 128.89 324.633 127.706 321.671 127.704H267.105C266.998 127.703 266.892 127.724 266.792 127.765C266.693 127.806 266.603 127.866 266.527 127.942C266.451 128.018 266.391 128.109 266.35 128.208C266.309 128.308 266.288 128.414 266.288 128.522C266.288 128.629 266.309 128.736 266.35 128.835C266.391 128.935 266.451 129.025 266.527 129.101C266.603 129.177 266.693 129.237 266.792 129.278C266.892 129.319 266.998 129.34 267.105 129.34H321.657C324.186 129.343 326.609 130.353 328.395 132.148C330.182 133.943 331.185 136.376 331.185 138.913C331.185 141.449 330.182 143.882 328.395 145.677C326.609 147.472 324.186 148.482 321.657 148.486H267.105C266.889 148.486 266.682 148.572 266.529 148.725C266.376 148.879 266.29 149.087 266.29 149.304Z" fill="#3F3D56"/>
<path d="M267.594 133.104H324.674C324.718 133.104 324.759 133.087 324.79 133.056C324.821 133.026 324.838 132.985 324.838 132.941C324.839 132.898 324.822 132.856 324.792 132.826C324.762 132.795 324.721 132.777 324.677 132.776H267.594C267.551 132.777 267.51 132.794 267.48 132.825C267.45 132.855 267.433 132.897 267.433 132.94C267.433 132.983 267.45 133.024 267.48 133.055C267.51 133.086 267.551 133.103 267.594 133.104H267.594Z" fill="#CCCCCC"/>
<path d="M267.594 137.031H324.674C324.718 137.031 324.759 137.014 324.79 136.984C324.821 136.953 324.838 136.912 324.838 136.869C324.839 136.826 324.822 136.784 324.792 136.753C324.762 136.722 324.721 136.704 324.677 136.704H267.594C267.551 136.704 267.51 136.722 267.48 136.752C267.45 136.783 267.433 136.824 267.433 136.867C267.433 136.91 267.45 136.952 267.48 136.982C267.51 137.013 267.551 137.031 267.594 137.031H267.594Z" fill="#CCCCCC"/>
<path d="M267.594 140.958H324.674C324.718 140.958 324.759 140.942 324.79 140.911C324.821 140.881 324.838 140.839 324.838 140.796C324.839 140.753 324.822 140.711 324.792 140.68C324.762 140.649 324.721 140.632 324.677 140.631H267.594C267.551 140.631 267.51 140.649 267.48 140.679C267.45 140.71 267.433 140.752 267.433 140.795C267.433 140.838 267.45 140.879 267.48 140.91C267.51 140.94 267.551 140.958 267.594 140.958H267.594Z" fill="#CCCCCC"/>
<path d="M267.594 144.885H324.674C324.718 144.886 324.759 144.869 324.79 144.838C324.821 144.808 324.838 144.767 324.838 144.723C324.839 144.68 324.822 144.638 324.792 144.607C324.762 144.577 324.721 144.559 324.677 144.558H267.594C267.551 144.559 267.51 144.576 267.48 144.607C267.45 144.637 267.433 144.679 267.433 144.722C267.433 144.765 267.45 144.806 267.48 144.837C267.51 144.868 267.551 144.885 267.594 144.885H267.594Z" fill="#CCCCCC"/>
<path d="M329.977 43.8143H354.178C354.408 43.8141 354.634 43.867 354.84 43.9689L360.948 47.037C361.149 47.1228 361.321 47.2659 361.441 47.4487C361.562 47.6315 361.626 47.8458 361.626 48.0649C361.626 48.284 361.562 48.4983 361.441 48.6811C361.321 48.8639 361.149 49.007 360.948 49.0928L354.84 52.1609C354.634 52.2628 354.408 52.3157 354.178 52.3155H329.977C329.644 52.3349 329.316 52.2216 329.065 52.0003C328.814 51.779 328.661 51.4674 328.637 51.133V44.9967C328.661 44.6624 328.814 44.3508 329.065 44.1295C329.316 43.9082 329.644 43.795 329.977 43.8143Z" fill="#3F3D56"/>
<path d="M328.637 44.9968V51.1331C328.661 51.4674 328.814 51.779 329.065 52.0003C329.316 52.2216 329.644 52.3349 329.977 52.3155H334.799V43.8143H329.977C329.644 43.795 329.316 43.9082 329.065 44.1295C328.814 44.3509 328.661 44.6624 328.637 44.9968Z" fill="#3F77DF"/>
<path d="M475.067 164.052C471.951 165.152 468.606 165.427 465.353 164.852C462.1 164.277 459.049 162.871 456.495 160.77C449.989 155.291 447.95 146.265 446.29 137.908C444.654 129.668 443.018 121.428 441.382 113.189L451.658 120.289C459.049 125.395 466.606 130.664 471.723 138.06C476.84 145.455 479.073 155.551 474.962 163.554" fill="#E6E6E6"/>
<path d="M474.189 193.981C475.229 186.379 476.299 178.679 475.569 170.995C474.921 164.172 472.846 157.507 468.622 152.042C466.38 149.147 463.652 146.666 460.56 144.712C459.754 144.201 459.012 145.483 459.815 145.992C465.164 149.384 469.302 154.393 471.631 160.297C474.204 166.863 474.617 174.02 474.174 180.994C473.905 185.212 473.337 189.402 472.765 193.587C472.72 193.776 472.748 193.975 472.844 194.144C472.939 194.314 473.095 194.44 473.281 194.498C473.469 194.549 473.671 194.523 473.841 194.427C474.011 194.33 474.136 194.169 474.189 193.981L474.189 193.981Z" fill="#F2F2F2"/>
<path d="M464.171 180.529C462.834 182.567 460.997 184.225 458.836 185.344C456.676 186.463 454.264 187.005 451.834 186.917C445.59 186.62 440.383 182.247 435.697 178.095L421.835 165.814L431.009 165.374C437.607 165.057 444.375 164.761 450.659 166.803C456.943 168.844 462.738 173.757 463.887 180.284" fill="#E6E6E6"/>
<path d="M477.129 198.351C472.122 189.462 466.315 179.584 455.939 176.427C453.054 175.552 450.029 175.238 447.027 175.503C446.081 175.585 446.317 177.049 447.262 176.967C452.294 176.548 457.317 177.881 461.484 180.743C465.495 183.482 468.617 187.289 471.26 191.328C472.879 193.801 474.329 196.379 475.779 198.954C476.243 199.777 477.598 199.183 477.129 198.351L477.129 198.351Z" fill="#F2F2F2"/>
<path d="M485.15 207.706C484.981 205.745 484.28 203.868 483.121 202.279C481.963 200.691 480.392 199.451 478.581 198.697V193.558H469.991V198.858C468.269 199.65 466.786 200.887 465.695 202.441C464.604 203.995 463.943 205.812 463.779 207.706L461.76 231.264H487.17L485.15 207.706Z" fill="#F2F2F2"/>
<path d="M193.041 95.2239L195.596 94.1444L197.349 81.2918H220.691L222.591 94.0918L224.877 95.2387C224.987 95.2936 225.074 95.3839 225.126 95.4951C225.178 95.6062 225.191 95.7316 225.163 95.851C225.135 95.9705 225.067 96.0769 224.971 96.153C224.875 96.2292 224.757 96.2706 224.634 96.2706H193.251C193.126 96.2706 193.005 96.2271 192.908 96.1474C192.811 96.0678 192.744 95.957 192.719 95.8337C192.694 95.7104 192.713 95.5824 192.771 95.4712C192.83 95.3601 192.925 95.2727 193.041 95.2239Z" fill="#E6E6E6"/>
<path d="M151.56 83.0018H266.224C266.826 83.0005 267.402 82.7597 267.827 82.3324C268.252 81.9051 268.491 81.3261 268.491 80.7224V64.4985H149.293V80.7224C149.293 81.3261 149.532 81.9051 149.957 82.3324C150.382 82.7597 150.958 83.0004 151.56 83.0018Z" fill="#CCCCCC"/>
<path d="M149.173 72.1663H268.595V2.74776C268.595 2.01925 268.306 1.32082 267.792 0.805698C267.279 0.290573 266.583 0.000815155 265.857 0H151.912C151.186 0.000815141 150.49 0.290574 149.976 0.805698C149.463 1.32082 149.174 2.01925 149.173 2.74776L149.173 72.1663Z" fill="#3F3D56"/>
<path d="M156.306 67.1279H261.463C262.022 67.1273 262.559 66.9039 262.955 66.5068C263.351 66.1097 263.573 65.5712 263.574 65.0096V7.15673C263.573 6.59509 263.351 6.05662 262.955 5.65946C262.559 5.26231 262.022 5.03891 261.463 5.03827H156.306C155.746 5.03891 155.209 5.26231 154.814 5.65946C154.418 6.05662 154.195 6.59509 154.194 7.15673V65.0096C154.195 65.5712 154.418 66.1097 154.814 66.5068C155.209 66.9039 155.746 67.1273 156.306 67.1279Z" fill="white"/>
<path d="M184.002 87.5413C183.323 86.9121 182.515 86.4399 181.635 86.1579C180.754 85.876 179.823 85.7912 178.906 85.9095C177.99 86.0278 177.11 86.3464 176.329 86.8427C175.549 87.339 174.886 88.0011 174.388 88.7822L160.164 86.2449L156.519 94.5417L176.656 97.8419C178.019 98.5946 179.61 98.8193 181.128 98.4735C182.645 98.1277 183.983 97.2355 184.889 95.9658C185.794 94.6961 186.204 93.1372 186.041 91.5845C185.878 90.0318 185.152 88.5932 184.002 87.5413Z" fill="#FFB6B6"/>
<path d="M170.833 98.1351L156.005 97.9497L154.128 97.9242L123.959 97.5428C123.959 97.5428 115.766 89.7004 108.632 81.6261L109.632 74.3694C110.607 67.2477 114.128 60.7242 119.539 56.0128C129.757 62.863 135.682 76.4223 135.682 76.4223L154.388 80.9116L156.259 81.3606L167.882 84.1474L170.833 98.1351Z" fill="#3F77DF"/>
<path d="M94.9245 142.738H122.604C122.604 143.928 152.861 144.893 152.861 144.893C153.528 145.398 154.137 145.976 154.674 146.618C156.29 148.551 157.172 150.994 157.167 153.517V155.241C157.166 158.1 156.034 160.841 154.019 162.862C152.005 164.883 149.273 166.019 146.424 166.02H94.9245C92.0761 166.018 89.3451 164.882 87.3309 162.861C85.3168 160.84 84.1842 158.099 84.1817 155.241V153.517C84.1857 150.659 85.3188 147.92 87.3326 145.899C89.3464 143.878 92.0765 142.742 94.9245 142.738Z" fill="#E4E4E4"/>
<path d="M115.053 165.592H126.225V230.298H115.053V165.592Z" fill="#E4E4E4"/>
<path d="M158.024 229.905C158.024 231.116 141.094 230.373 120.209 230.373C99.325 230.373 82.3948 231.116 82.3948 229.905C82.3948 228.693 99.325 219.088 120.209 219.088C141.094 219.088 158.024 228.693 158.024 229.905Z" fill="#E4E4E4"/>
<path d="M165.529 222.511L173.844 222.511L177.8 190.33L165.528 190.331L165.529 222.511Z" fill="#FFB6B6"/>
<path d="M163.409 230.599L190.22 230.598V230.257C190.22 227.48 189.12 224.817 187.163 222.853C185.206 220.89 182.552 219.787 179.784 219.787H179.783L163.408 219.787L163.409 230.599Z" fill="#2F2E41"/>
<path d="M190.105 222.511L198.42 222.511L202.375 190.33L190.104 190.331L190.105 222.511Z" fill="#FFB6B6"/>
<path d="M187.984 230.599L214.795 230.598V230.257C214.795 227.48 213.696 224.817 211.739 222.853C209.782 220.89 207.127 219.787 204.36 219.787H204.359L187.984 219.787L187.984 230.599Z" fill="#2F2E41"/>
<path d="M115.621 37.2436C107.636 37.2436 101.163 30.7488 101.163 22.7372C101.163 14.7255 107.636 8.23077 115.621 8.23077C123.606 8.23077 130.078 14.7255 130.078 22.7372C130.078 30.7488 123.606 37.2436 115.621 37.2436Z" fill="#FFB6B6"/>
<path d="M92.2217 122.129C92.2217 122.129 87.3707 147.867 105.828 151.145C124.285 154.422 150.928 156.726 150.928 156.726L162.892 212.737L178.967 211.297C178.967 211.297 176.829 143.872 171.571 138.597C166.314 133.322 133.086 117.527 133.086 117.527L92.2217 122.129Z" fill="#2F2E41"/>
<path d="M128.269 111.343L136.342 119.468C136.342 119.468 194.628 128.888 196.876 142.396C200.271 162.789 204.281 207.136 204.281 207.136L186.757 205.817L179.885 155.407L151.846 149.007L119.945 131.564L128.269 111.343Z" fill="#2F2E41"/>
<path d="M101.709 14.0779C103.136 11.3761 104.949 5.99149 107.83 4.99284C109.429 4.46062 111.083 4.10721 112.76 3.93904L117.656 5.82856L114.991 3.74904C115.51 3.71803 116.029 3.69268 116.547 3.67298L119.85 4.94785L118.16 3.62887C121.24 3.59715 124.419 3.91847 126.806 5.7997C128.84 7.40345 130.856 13.4788 131.182 16.054C131.53 18.5175 131.408 21.0251 130.822 23.4429L129.986 24.2411C129.693 23.5678 129.473 22.865 129.329 22.1447C129.029 20.7989 128.453 19.5306 127.638 18.4205C126.822 17.3105 125.785 16.383 124.593 15.6973L124.547 15.6716C123.144 14.8792 121.442 14.9157 119.832 14.9738L112.19 15.2498C110.352 15.3161 108.372 15.4329 106.938 16.5901C106.027 17.4438 105.311 18.485 104.838 19.6424C104.126 21.0848 102.734 26.5254 102.734 26.5254C102.734 26.5254 101.947 25.4984 101.569 26.2628C100.964 24.2685 100.596 22.2093 100.473 20.1283C100.353 18.0379 100.779 15.9523 101.709 14.0779Z" fill="#2F2E41"/>
<path d="M51.1429 29.1077C52.0651 29.1686 52.9628 29.4317 53.7727 29.8784C54.5827 30.3251 55.2852 30.9446 55.8307 31.6932C56.3762 32.4417 56.7515 33.3012 56.9302 34.2111C57.1088 35.121 57.0865 36.0591 56.8647 36.9593L68.4907 45.5642L65.0023 53.9286L48.7543 41.5454C47.2717 41.0714 46.0139 40.0681 45.2192 38.7257C44.4246 37.3834 44.1483 35.7951 44.4427 34.262C44.7372 32.7289 45.5818 31.3574 46.8167 30.4075C48.0516 29.4575 49.5909 28.995 51.1429 29.1077Z" fill="#FFB6B6"/>
<path d="M53.0141 46.6747L82.1593 79.1532C82.1593 79.1532 96.0971 74.6762 106.876 69.8225L111.719 54.899C112.843 51.4369 113.323 47.7967 113.135 44.1604C98.1916 40.1706 80.8109 55.016 80.8109 55.016L58.9945 37.8693L53.0141 46.6747Z" fill="#3F77DF"/>
<path d="M121.021 124.528C126.221 122.726 131.598 120.862 137.397 120.163L137.646 120.133L137.577 119.891C131.574 98.7402 133.072 85.2103 136.014 64.8867C136.64 60.5029 135.836 56.0336 133.723 52.1459C131.609 48.2582 128.299 45.1606 124.287 43.3153L124.251 43.2992L107.687 42.2431L107.649 42.2408L95.6027 45.7958C93.8698 46.311 92.353 47.3821 91.2847 48.8449C90.2165 50.3078 89.6556 52.0817 89.6882 53.8949C89.8188 60.5788 89.542 68.0411 89.2489 75.9413C88.5915 93.6651 87.9118 111.992 91.7691 123.884L91.7893 123.946L91.8408 123.986C95.3869 126.884 99.8294 128.45 104.403 128.414C109.81 128.414 115.328 126.502 121.021 124.528Z" fill="#3F77DF"/>
<path d="M0.770264 232H532.23C532.434 232 532.63 231.919 532.774 231.774C532.919 231.629 533 231.432 533 231.227C533 231.022 532.919 230.826 532.774 230.681C532.63 230.536 532.434 230.454 532.23 230.454H0.770264C0.565979 230.454 0.370056 230.536 0.225647 230.681C0.0811768 230.826 6.10352e-05 231.022 6.10352e-05 231.227C6.10352e-05 231.432 0.0811768 231.629 0.225647 231.774C0.370056 231.919 0.565979 232 0.770264 232Z" fill="#CCCCCC"/>
</g>
<defs>
<clipPath id="clip0_337:4280">
<rect width="533" height="232" fill="white" transform="matrix(-1 0 0 1 533 0)"/>
</clipPath>
</defs>
</svg>
