<svg width="570" height="370" viewBox="0 0 570 370" fill="none" xmlns="http://www.w3.org/2000/svg">
<g clip-path="url(#clip0_365_455)">
<path d="M430.534 294.646C428.974 284.102 428.561 273.418 429.305 262.784L430.534 245.186C423.759 258.708 425.29 276.506 430.534 294.646V294.646Z" fill="#CACACA"/>
<path d="M435.817 297.59C435.066 291.298 434.868 284.952 435.225 278.625L435.817 268.149C432.557 276.199 433.294 286.793 435.817 297.59Z" fill="#CACACA"/>
<path d="M459.299 310.545V316.434C459.297 316.901 459.111 317.349 458.781 317.68C458.451 318.011 458.005 318.198 457.538 318.2H454.603C454.526 318.2 454.45 318.215 454.378 318.244C454.307 318.274 454.242 318.317 454.188 318.372C454.133 318.427 454.09 318.492 454.06 318.563C454.031 318.635 454.016 318.711 454.016 318.789V367.072C454.014 367.539 453.828 367.987 453.498 368.318C453.168 368.649 452.722 368.836 452.255 368.838H416.449C415.982 368.838 415.534 368.651 415.204 368.32C414.874 367.989 414.688 367.54 414.688 367.072V318.789C414.687 318.633 414.625 318.483 414.515 318.373C414.405 318.263 414.256 318.201 414.101 318.2H410.579C410.112 318.2 409.664 318.013 409.334 317.682C409.004 317.351 408.818 316.902 408.818 316.434V310.545C408.818 310.313 408.863 310.084 408.951 309.869C409.04 309.655 409.169 309.46 409.333 309.296C409.497 309.132 409.691 309.002 409.905 308.913C410.118 308.824 410.348 308.779 410.579 308.779H457.538C458.005 308.78 458.452 308.967 458.782 309.298C459.112 309.629 459.298 310.077 459.299 310.545Z" fill="#F2F2F2"/>
<path d="M454.069 319.437H414.741V321.203H454.069V319.437Z" fill="#E6E6E6"/>
<path d="M454.016 345.43C440.856 350.893 427.552 350.953 414.101 345.43V332.985C427.05 328.622 441.066 328.622 454.016 332.985V345.43Z" fill="#E6E6E6"/>
<path d="M265.016 147.428C276.815 147.428 286.38 137.833 286.38 125.998C286.38 114.162 276.815 104.567 265.016 104.567C253.217 104.567 243.652 114.162 243.652 125.998C243.652 137.833 253.217 147.428 265.016 147.428Z" fill="#2F2E41"/>
<path d="M270.968 105.157C274.665 105.158 278.299 106.12 281.515 107.952C284.73 109.783 287.416 112.419 289.312 115.604C291.207 118.788 292.246 122.412 292.327 126.12C292.408 129.828 291.529 133.493 289.775 136.758C291.627 134.433 292.976 131.747 293.736 128.871C294.496 125.994 294.651 122.99 294.19 120.051C293.728 117.111 292.662 114.3 291.058 111.797C289.453 109.293 287.347 107.153 284.873 105.511C282.398 103.869 279.61 102.763 276.686 102.262C273.761 101.761 270.765 101.877 267.888 102.602C265.01 103.326 262.315 104.645 259.974 106.472C257.632 108.3 255.696 110.596 254.289 113.216C256.286 110.701 258.823 108.67 261.71 107.275C264.598 105.88 267.763 105.156 270.968 105.157Z" fill="#2F2E41"/>
<path d="M225.094 125.952C259.754 125.952 287.851 97.7679 287.851 63.0007C287.851 28.2335 259.754 0.0490723 225.094 0.0490723C190.435 0.0490723 162.337 28.2335 162.337 63.0007C162.337 97.7679 190.435 125.952 225.094 125.952Z" fill="#2F2E41"/>
<path d="M175.84 23.9421C186.654 11.7431 201.769 4.23558 217.997 3.00406C234.224 1.77255 250.293 6.91337 262.813 17.3415C262.3 16.8522 261.792 16.3589 261.259 15.8834C248.819 4.79911 232.499 -0.875456 215.888 0.107375C199.278 1.09021 183.736 8.64997 172.681 21.1245C161.625 33.599 155.961 49.967 156.934 66.6295C157.907 83.2921 165.436 98.8851 177.868 109.98C178.401 110.456 178.949 110.904 179.493 111.358C167.702 100.107 160.73 84.7004 160.049 68.3906C159.367 52.0809 165.03 36.1435 175.84 23.9421Z" fill="#2F2E41"/>
<path d="M224.562 125.419C246.886 125.419 264.982 107.266 264.982 84.8737C264.982 62.4813 246.886 44.3286 224.562 44.3286C202.239 44.3286 184.143 62.4813 184.143 84.8737C184.143 107.266 202.239 125.419 224.562 125.419Z" fill="#FFB8B8"/>
<path d="M245.21 136.426L201.956 138.376C201.956 138.376 205.566 160.815 182.165 162.949C158.764 165.083 137.491 158.681 128.981 174.685C120.472 190.69 124.14 247.678 124.14 247.678C124.14 247.678 140.095 305.295 152.859 313.831C165.623 322.367 277.309 310.63 277.309 310.63L324.05 251.428L322.467 205.772C321.64 181.93 299.94 164.03 276.568 168.442C276.109 168.529 275.647 168.622 275.181 168.722C275.181 168.722 270.047 164.873 255.959 157.807C247.344 153.486 245.21 136.426 245.21 136.426Z" fill="#CACACA"/>
<path d="M151.319 161.882C151.319 161.882 161.599 180.593 157.344 207.268C153.09 233.942 170.942 290.358 170.942 290.358L183.706 287.157C183.706 287.157 175.196 231.674 177.324 218.87C179.451 206.067 180.038 168.284 169.401 161.882C158.764 155.48 151.319 161.882 151.319 161.882Z" fill="#2F2E41"/>
<path d="M274.433 171.693L278.904 289.824L287.414 295.159C287.414 295.159 299.646 165.521 293.264 165.521H280.278C279.51 165.521 278.749 165.673 278.039 165.968C277.329 166.263 276.683 166.696 276.14 167.241C275.597 167.786 275.165 168.433 274.871 169.145C274.577 169.858 274.426 170.621 274.426 171.392C274.426 171.492 274.428 171.592 274.433 171.693Z" fill="#2F2E41"/>
<path d="M176.792 287.69C179.729 287.69 182.11 285.301 182.11 282.355C182.11 279.409 179.729 277.02 176.792 277.02C173.854 277.02 171.473 279.409 171.473 282.355C171.473 285.301 173.854 287.69 176.792 287.69Z" fill="#3F77DF"/>
<path d="M283.159 293.025C286.097 293.025 288.478 290.636 288.478 287.69C288.478 284.744 286.097 282.355 283.159 282.355C280.222 282.355 277.841 284.744 277.841 287.69C277.841 290.636 280.222 293.025 283.159 293.025Z" fill="#3F77DF"/>
<path d="M189.993 34.1919V74.7371H199.354L211.267 61.9333L209.671 74.7371H251.048L248.495 61.9333L253.601 74.7371H260.195V34.1919H189.993Z" fill="#2F2E41"/>
<path d="M183.611 82.2062C185.373 82.2062 186.802 79.5789 186.802 76.3379C186.802 73.0968 185.373 70.4695 183.611 70.4695C181.849 70.4695 180.42 73.0968 180.42 76.3379C180.42 79.5789 181.849 82.2062 183.611 82.2062Z" fill="#FFB8B8"/>
<path d="M265.514 82.2062C267.276 82.2062 268.705 79.5789 268.705 76.3379C268.705 73.0968 267.276 70.4695 265.514 70.4695C263.751 70.4695 262.323 73.0968 262.323 76.3379C262.323 79.5789 263.751 82.2062 265.514 82.2062Z" fill="#FFB8B8"/>
<path d="M354.045 358.262V361.836C354.047 362.817 353.866 363.789 353.511 364.703C353.354 365.111 353.163 365.505 352.942 365.881C352.242 367.059 351.25 368.034 350.061 368.711C348.873 369.389 347.529 369.744 346.162 369.744H84.0408C82.6739 369.744 81.3304 369.389 80.1419 368.711C78.9533 368.034 77.9606 367.059 77.261 365.881C77.0397 365.505 76.8493 365.111 76.6917 364.703C76.3367 363.789 76.1555 362.817 76.1575 361.836V358.262C76.1572 357.224 76.3608 356.195 76.7566 355.236C77.1524 354.277 77.7327 353.405 78.4643 352.671C79.196 351.937 80.0647 351.354 81.0207 350.957C81.9768 350.559 83.0016 350.354 84.0366 350.354H99.15V348.688C99.1499 348.644 99.1583 348.602 99.1747 348.562C99.1912 348.522 99.2153 348.485 99.2457 348.455C99.2761 348.424 99.3123 348.4 99.3521 348.383C99.3918 348.367 99.4345 348.358 99.4776 348.358H107.362C107.449 348.358 107.533 348.392 107.594 348.454C107.656 348.516 107.691 348.599 107.691 348.687V350.354H112.616V348.688C112.615 348.644 112.624 348.602 112.64 348.562C112.657 348.522 112.681 348.485 112.711 348.455C112.742 348.424 112.778 348.4 112.818 348.383C112.857 348.367 112.9 348.358 112.943 348.358H120.828C120.915 348.358 120.998 348.392 121.06 348.454C121.121 348.516 121.156 348.599 121.156 348.687V350.354H126.087V348.688C126.087 348.644 126.095 348.602 126.112 348.562C126.128 348.522 126.152 348.485 126.183 348.455C126.213 348.424 126.249 348.4 126.289 348.383C126.329 348.367 126.372 348.358 126.415 348.358H134.299C134.386 348.358 134.47 348.392 134.531 348.454C134.593 348.516 134.628 348.599 134.628 348.687V350.354H139.553V348.688C139.553 348.644 139.561 348.602 139.577 348.562C139.594 348.522 139.618 348.485 139.648 348.455C139.679 348.424 139.715 348.4 139.755 348.383C139.795 348.367 139.837 348.358 139.88 348.358H147.765C147.852 348.358 147.935 348.392 147.997 348.454C148.059 348.516 148.093 348.599 148.093 348.687V350.354H153.018V348.688C153.018 348.644 153.027 348.602 153.043 348.562C153.059 348.522 153.084 348.485 153.114 348.455C153.144 348.424 153.181 348.4 153.22 348.383C153.26 348.367 153.303 348.358 153.346 348.358H161.23C161.317 348.358 161.401 348.392 161.462 348.454C161.524 348.516 161.559 348.599 161.559 348.687V350.354H166.49V348.688C166.49 348.644 166.498 348.602 166.514 348.562C166.531 348.522 166.555 348.485 166.585 348.455C166.616 348.424 166.652 348.4 166.692 348.383C166.732 348.367 166.774 348.358 166.817 348.358H174.702C174.789 348.358 174.872 348.392 174.934 348.454C174.996 348.516 175.03 348.599 175.03 348.687V350.354H179.955V348.688C179.955 348.644 179.964 348.602 179.98 348.562C179.996 348.522 180.021 348.485 180.051 348.455C180.081 348.424 180.118 348.4 180.157 348.383C180.197 348.367 180.24 348.358 180.283 348.358H242.036C242.079 348.358 242.121 348.366 242.161 348.383C242.201 348.399 242.237 348.423 242.268 348.454C242.298 348.485 242.323 348.521 242.339 348.561C242.356 348.601 242.364 348.643 242.364 348.687V350.354H247.295V348.688C247.295 348.644 247.303 348.602 247.32 348.562C247.336 348.522 247.36 348.485 247.391 348.455C247.421 348.424 247.457 348.4 247.497 348.383C247.537 348.367 247.58 348.358 247.623 348.358H255.507C255.594 348.359 255.677 348.394 255.739 348.455C255.8 348.517 255.835 348.601 255.836 348.688V350.354H260.761V348.688C260.761 348.644 260.769 348.602 260.785 348.562C260.802 348.522 260.826 348.485 260.856 348.455C260.887 348.424 260.923 348.4 260.963 348.383C261.003 348.367 261.045 348.358 261.088 348.358H268.973C269.016 348.358 269.058 348.366 269.098 348.383C269.138 348.399 269.174 348.424 269.205 348.454C269.235 348.485 269.26 348.521 269.276 348.561C269.293 348.601 269.301 348.643 269.301 348.687V350.354H274.226V348.688C274.226 348.645 274.235 348.602 274.251 348.562C274.267 348.522 274.292 348.485 274.322 348.455C274.352 348.424 274.389 348.4 274.428 348.383C274.468 348.367 274.511 348.358 274.554 348.358H282.438C282.481 348.358 282.524 348.366 282.564 348.383C282.604 348.399 282.64 348.424 282.671 348.454C282.701 348.485 282.725 348.521 282.742 348.561C282.758 348.601 282.767 348.643 282.767 348.687V350.354H287.698V348.688C287.698 348.645 287.706 348.602 287.723 348.562C287.739 348.522 287.763 348.485 287.793 348.455C287.824 348.424 287.86 348.4 287.9 348.383C287.94 348.367 287.982 348.358 288.025 348.358H295.91C295.996 348.359 296.078 348.394 296.139 348.456C296.199 348.518 296.233 348.601 296.233 348.688V350.354H301.163V348.688C301.163 348.645 301.172 348.602 301.188 348.562C301.205 348.522 301.229 348.485 301.259 348.455C301.289 348.424 301.326 348.4 301.365 348.383C301.405 348.367 301.448 348.358 301.491 348.358H309.375C309.418 348.358 309.461 348.366 309.501 348.383C309.541 348.399 309.577 348.424 309.608 348.454C309.638 348.485 309.662 348.521 309.679 348.561C309.695 348.601 309.704 348.643 309.704 348.687V350.354H314.629V348.688C314.629 348.645 314.637 348.602 314.654 348.562C314.67 348.522 314.694 348.485 314.725 348.455C314.755 348.424 314.791 348.4 314.831 348.383C314.871 348.367 314.913 348.358 314.957 348.358H322.841C322.884 348.358 322.927 348.366 322.967 348.383C323.006 348.399 323.043 348.424 323.073 348.454C323.104 348.485 323.128 348.521 323.144 348.561C323.161 348.601 323.17 348.643 323.17 348.687V350.354H346.162C348.252 350.354 350.257 351.186 351.736 352.668C353.214 354.15 354.045 356.161 354.045 358.258L354.045 358.262Z" fill="#3F3D56"/>
<path d="M570 368.822H0V370H570V368.822Z" fill="#3F3D56"/>
<path d="M332.939 207.741H92.8333C91.9655 207.741 91.1061 207.912 90.3043 208.245C89.5025 208.578 88.7739 209.067 88.1603 209.682C87.5466 210.298 87.0598 211.029 86.7277 211.833C86.3956 212.637 86.2246 213.499 86.2246 214.37V348.567C86.2246 350.326 86.9209 352.012 88.1602 353.255C89.3996 354.498 91.0806 355.197 92.8333 355.197H332.939C334.691 355.197 336.372 354.498 337.612 353.255C338.851 352.012 339.547 350.326 339.547 348.567V214.37C339.547 212.612 338.851 210.926 337.612 209.682C336.372 208.439 334.691 207.741 332.939 207.741Z" fill="#3F3D56"/>
<path d="M213.078 269.313C221.183 269.313 227.753 262.722 227.753 254.592C227.753 246.463 221.183 239.872 213.078 239.872C204.973 239.872 198.403 246.463 198.403 254.592C198.403 262.722 204.973 269.313 213.078 269.313Z" fill="#3F77DF"/>
<path d="M303.923 157.342L378.005 82.4435H412.98V81.2659H377.515L377.343 81.4407L303.088 156.515L303.923 157.342Z" fill="#3F3D56"/>
<path d="M541.531 51.6934H455.699V59.3655H541.531V51.6934Z" fill="#3F77DF"/>
<path d="M445.238 64.2168H427.067V45.9897H445.238V64.2168ZM428.241 63.0392H444.064V47.1674H428.241L428.241 63.0392Z" fill="#3F3D56"/>
<path d="M541.531 77.2671H455.699V84.9392H541.531V77.2671Z" fill="#3F77DF"/>
<path d="M445.238 89.7905H427.067V71.5637H445.238V89.7905ZM428.241 88.6129H444.064V72.7413H428.241L428.241 88.6129Z" fill="#3F3D56"/>
<path d="M541.531 102.841H455.699V110.513H541.531V102.841Z" fill="#3F77DF"/>
<path d="M445.238 115.364H427.067V97.1375H445.238V115.364ZM428.241 114.187H444.064V98.3151H428.241L428.241 114.187Z" fill="#3F3D56"/>
</g>
<defs>
<clipPath id="clip0_365_455">
<rect width="570" height="370" fill="white"/>
</clipPath>
</defs>
</svg>
