<svg width="268" height="174" viewBox="0 0 268 174" fill="none" xmlns="http://www.w3.org/2000/svg">
<g clip-path="url(#clip0_371_901)">
<path d="M268 81.6923C268 88.6149 265.387 95.2827 260.684 100.362C255.98 105.442 249.532 108.56 242.629 109.092C242.396 109.11 242.16 109.127 241.924 109.138V83.0558C241.924 82.7951 241.866 82.5377 241.754 82.3024C241.642 82.0671 241.478 81.8598 241.276 81.6959C241.252 81.6718 241.226 81.6506 241.198 81.6324C241.172 81.6116 241.145 81.5928 241.117 81.5761C240.869 81.4168 240.586 81.322 240.292 81.3005C239.999 81.2789 239.704 81.3313 239.436 81.4528L239.144 80.8115C239.463 80.6659 239.811 80.5903 240.162 80.5896L220.091 63.3013C220.246 63.1251 220.408 62.9525 220.57 62.7798C224.354 58.7917 229.247 56.0297 234.617 54.8509C239.987 53.672 245.588 54.1303 250.694 56.1667C255.801 58.203 260.18 61.7238 263.265 66.2742C266.35 70.8245 267.999 76.1952 268 81.6923Z" fill="#F2F2F2"/>
<path d="M6.96902 100.431C6.86921 99.9209 6.88242 99.3953 7.00773 98.8911C7.13304 98.3869 7.3674 97.9163 7.6943 97.5124C8.0212 97.1085 8.43269 96.7812 8.89979 96.5536C9.36689 96.3259 9.87823 96.2034 10.3978 96.1947L26.2413 77.3374L30.1967 82.3938L14.05 99.9438C14.0067 100.817 13.6444 101.645 13.0318 102.269C12.4191 102.894 11.5987 103.272 10.7259 103.332C9.85304 103.392 8.98853 103.13 8.29612 102.595C7.60372 102.06 7.13153 101.29 6.96904 100.431H6.96902Z" fill="#FFB8B8"/>
<path d="M82.2043 77.2208C82.0934 77.3812 81.9953 77.55 81.911 77.7258L64.6114 80.1983L61.9845 76.8637L56.4331 80.1699L61.6514 88.3046L82.75 82.0861C83.3067 82.59 84.0038 82.9125 84.7483 83.0107C85.4929 83.1089 86.2497 82.9781 86.9181 82.6358C87.5866 82.2935 88.1349 81.7558 88.4902 81.0943C88.8456 80.4327 88.9911 79.6787 88.9074 78.9325C88.8237 78.1863 88.5148 77.4832 88.0217 76.9168C87.5287 76.3504 86.8748 75.9475 86.1472 75.7617C85.4195 75.5759 84.6525 75.616 83.9482 75.8766C83.2439 76.1373 82.6356 76.6061 82.2043 77.2208Z" fill="#FFB8B8"/>
<path d="M52.6543 140.226L55.7157 143.274L68.9298 132.918L64.4116 128.42L52.6543 140.226Z" fill="#FFB8B8"/>
<path d="M58.7891 151.994L49.1679 142.415L52.8692 138.699L58.7731 144.576C59.2613 145.062 59.6489 145.64 59.9139 146.275C60.1789 146.911 60.316 147.593 60.3175 148.282C60.319 148.97 60.1848 149.653 59.9225 150.29C59.6603 150.927 59.2751 151.506 58.7891 151.994L58.7891 151.994Z" fill="#2F2E41"/>
<path d="M36.3811 169.459H40.7012L42.7562 152.798H36.3804L36.3811 169.459Z" fill="#FFB8B8"/>
<path d="M49.0327 173.469L35.4555 173.469L35.4552 168.224L43.7867 168.224C44.4756 168.224 45.1577 168.36 45.7942 168.623C46.4307 168.887 47.009 169.273 47.4961 169.76C47.9832 170.247 48.3697 170.825 48.6333 171.462C48.897 172.098 49.0327 172.78 49.0327 173.469Z" fill="#2F2E41"/>
<path d="M35.4423 156.591L30.5215 120.306C29.7514 114.823 29.9904 109.245 31.2267 103.847C32.2365 99.5097 33.6006 96.505 35.2814 94.9172C35.5466 94.6684 35.8862 94.5133 36.248 94.4759L52.4948 92.7837C52.8077 92.7518 53.1233 92.8094 53.4047 92.95C53.6861 93.0906 53.9217 93.3084 54.084 93.5778L54.6181 94.4676C54.6829 94.5757 54.7352 94.6908 54.7739 94.8107L58.2089 105.458C58.2602 105.619 58.343 105.768 58.4524 105.896C58.5618 106.025 58.6956 106.13 58.8462 106.207C64.2545 108.968 81.8222 118.287 80.8168 122.308C79.8722 126.086 71.0281 132.212 68.34 133.999C68.0663 134.182 67.7439 134.278 67.4146 134.276C67.0854 134.273 66.7644 134.172 66.4935 133.985L62.0314 130.932C61.8135 130.783 61.6345 130.584 61.5093 130.352C61.3842 130.12 61.3164 129.861 61.3118 129.597C61.3072 129.333 61.3659 129.072 61.4828 128.835C61.5998 128.598 61.7717 128.393 61.9843 128.237L65.0614 125.97C65.2497 125.831 65.3966 125.643 65.4863 125.427C65.576 125.211 65.605 124.975 65.5704 124.744C65.5357 124.512 65.4386 124.295 65.2895 124.115C65.1404 123.934 64.945 123.798 64.7242 123.721L48.1984 117.923C48.0128 117.858 47.8148 117.836 47.6195 117.859C47.4243 117.883 47.237 117.951 47.072 118.058C46.9071 118.165 46.7689 118.308 46.6681 118.477C46.5673 118.646 46.5066 118.836 46.4906 119.032L43.4435 156.267C43.4099 156.667 43.2328 157.04 42.945 157.319C42.6572 157.598 42.2781 157.763 41.878 157.784L37.1634 158.02C37.1347 158.021 37.1062 158.022 37.0778 158.022C36.6777 158.023 36.2907 157.879 35.9896 157.615C35.6885 157.352 35.4938 156.987 35.4423 156.591Z" fill="#2F2E41"/>
<path d="M42.8935 62.7427C47.6733 62.7427 51.5482 58.8685 51.5482 54.0894C51.5482 49.3103 47.6733 45.436 42.8935 45.436C38.1136 45.436 34.2388 49.3103 34.2388 54.0894C34.2388 58.8685 38.1136 62.7427 42.8935 62.7427Z" fill="#FFB8B8"/>
<path d="M34.7984 93.4352L28.4277 70.1945L28.5368 70.1209C28.6737 70.0287 42.4051 60.9629 58.4818 68.2687L58.7733 68.4359L54.9983 92.5582C54.916 93.1087 54.6441 93.6132 54.2296 93.9847C53.815 94.3563 53.2838 94.5715 52.7275 94.5934L37.1938 95.1908C37.1625 95.1919 37.1313 95.1926 37.1003 95.1926C36.5766 95.1938 36.0672 95.0222 35.651 94.7045C35.2348 94.3867 34.9351 93.9405 34.7984 93.4352Z" fill="#CCCCCC"/>
<path d="M28.1855 85.3244L22.8797 79.2239C22.6241 78.9308 22.4803 78.5569 22.4734 78.1681C22.4665 77.7793 22.5971 77.4006 22.8422 77.0986L28.3888 70.2478L32.6467 71.4089L34.9041 79.3085L30.7881 85.1877C30.6445 85.394 30.4556 85.5646 30.2357 85.6865C30.0159 85.8084 29.771 85.8782 29.52 85.8906C29.4903 85.892 29.4608 85.8928 29.4312 85.8928C29.1949 85.8932 28.9613 85.8427 28.7463 85.7446C28.5313 85.6465 28.34 85.5032 28.1855 85.3244Z" fill="#CCCCCC"/>
<path d="M57.5257 84.0536C57.2747 84.0412 57.0298 83.9714 56.8099 83.8495C56.5901 83.7277 56.4011 83.557 56.2576 83.3507L52.1416 77.4716L54.1214 69.156L58.0417 68.0869L58.7732 68.4359L64.2035 75.2616C64.4485 75.5636 64.5791 75.9423 64.5723 76.3311C64.5654 76.7199 64.4215 77.0938 64.166 77.3869L58.8602 83.4874C58.7057 83.6662 58.5144 83.8095 58.2994 83.9076C58.0844 84.0057 57.8508 84.0562 57.6144 84.0558C57.585 84.0558 57.5553 84.055 57.5257 84.0536Z" fill="#CCCCCC"/>
<path d="M241.924 81.3295C241.927 81.4172 241.897 81.5029 241.839 81.5691C241.779 81.6401 241.692 81.6841 241.599 81.6914C241.506 81.6986 241.414 81.6686 241.343 81.6079L240.162 80.5897L220.091 63.3014L163.796 14.8046C163.474 14.5298 163.065 14.379 162.643 14.3796C162.22 14.3803 161.811 14.5323 161.491 14.8082L85.6811 80.6601L84.9975 81.252C84.9712 81.2753 84.9415 81.2943 84.9094 81.3084C84.853 81.3334 84.791 81.3431 84.7296 81.3366C84.6416 81.3272 84.5601 81.2858 84.5006 81.2203C84.47 81.1857 84.4465 81.1453 84.4316 81.1016C84.4166 81.0578 84.4104 81.0115 84.4133 80.9654C84.4162 80.9192 84.4283 80.8741 84.4487 80.8326C84.4691 80.7911 84.4975 80.7541 84.5323 80.7236L84.6274 80.639L161.029 14.2762C161.478 13.8906 162.05 13.6781 162.642 13.6768C163.234 13.6755 163.807 13.8855 164.257 14.2691L220.57 62.7799L241.801 81.0724C241.838 81.1045 241.868 81.1439 241.889 81.1881C241.91 81.2324 241.922 81.2805 241.924 81.3295Z" fill="#3F3D56"/>
<path d="M199.122 91.7335L198.195 89.1827L195.002 80.3747L188.124 61.4094L180.435 40.2103L166.569 1.97312C166.297 1.22747 165.74 0.620074 165.021 0.283957C164.302 -0.0521588 163.478 -0.0896045 162.732 0.17982L82.5629 29.2426C81.8169 29.5146 81.2092 30.0712 80.873 30.7904C80.5368 31.5096 80.4995 32.3327 80.7693 33.0794L100.428 87.2872L100.763 88.2138L121.398 97.5644L127.198 100.193L128.139 100.619L152.696 111.749L153.647 111.403L169.755 105.566L194.051 96.7576L197.324 95.5703C198.071 95.2986 198.679 94.7422 199.016 94.0231C199.353 93.3039 199.391 92.4806 199.122 91.7335Z" fill="#E6E6E6"/>
<path d="M165.505 46.5803C165.105 45.4829 164.286 44.5889 163.228 44.0942C162.17 43.5995 160.958 43.5446 159.86 43.9415L128.139 55.4447L112.821 60.9972C112.277 61.1939 111.777 61.4959 111.349 61.886C110.922 62.2761 110.575 62.7465 110.33 63.2705C110.084 63.7945 109.945 64.3618 109.919 64.9398C109.892 65.5179 109.981 66.0954 110.178 66.6394C110.375 67.1833 110.678 67.6831 111.068 68.1101C111.459 68.5371 111.93 68.883 112.454 69.1279C112.978 69.3729 113.546 69.5121 114.124 69.5376C114.702 69.5631 115.28 69.4745 115.823 69.2767L128.139 64.8129L162.865 52.2245C163.963 51.8246 164.857 51.0059 165.352 49.9479C165.847 48.8898 165.902 47.6788 165.505 46.5803Z" fill="white"/>
<path d="M171.09 61.9836C170.69 60.8862 169.871 59.9922 168.813 59.4975C167.755 59.0028 166.543 58.9479 165.445 59.3448L160.071 61.2931L128.139 72.8703L118.406 76.397C117.309 76.7959 116.414 77.614 115.92 78.6718C115.425 79.7295 115.371 80.9403 115.769 82.038C116.167 83.1357 116.984 84.0306 118.042 84.526C119.099 85.0215 120.31 85.0768 121.408 84.68L128.139 82.2385L168.45 67.6243C168.542 67.5926 168.63 67.5538 168.718 67.515C169.742 67.066 170.556 66.2447 170.997 65.2176C171.437 64.1905 171.47 63.0344 171.09 61.9836Z" fill="white"/>
<path d="M176.735 77.549C176.336 76.4518 175.518 75.5578 174.46 75.063C173.402 74.5683 172.192 74.5133 171.093 74.9101L156.022 80.3746L144.355 84.606L128.139 90.4827L124.051 91.9659C123.107 92.31 122.308 92.9662 121.787 93.826C121.266 94.6857 121.054 95.6975 121.186 96.694C121.227 96.9906 121.298 97.2822 121.398 97.5643L127.198 100.193L128.139 99.8508H128.146L157.573 89.1826L174.095 83.1932C175.194 82.7942 176.089 81.9756 176.583 80.9172C177.078 79.8589 177.133 78.6474 176.735 77.549H176.735Z" fill="white"/>
<path d="M143.707 31.4375C143.307 30.3401 142.488 29.446 141.43 28.9514C140.371 28.4567 139.16 28.4018 138.062 28.7986L119.844 35.4011C118.746 35.7999 117.852 36.6181 117.357 37.6758C116.863 38.7336 116.809 39.9444 117.206 41.0421C117.604 42.1398 118.422 43.0347 119.479 43.5301C120.537 44.0255 121.748 44.0809 122.846 43.6841L128.611 41.5949L132.427 40.2102L141.067 37.0781C142.165 36.6791 143.059 35.861 143.554 34.8035C144.049 33.746 144.103 32.5355 143.707 31.4375Z" fill="white"/>
<path d="M216.409 40.2102H131.134C130.631 40.2107 130.136 40.3378 129.695 40.5798C129.254 40.8218 128.881 41.1708 128.611 41.5948C128.302 42.0749 128.138 42.6339 128.139 43.2049V100.619L152.696 111.749L156.156 113.316L161.621 115.793C161.941 115.938 162.289 116.013 162.64 116.013C162.991 116.013 163.338 115.938 163.658 115.793L169.123 113.316L186.228 105.565L202.169 98.3394L219.404 90.532V43.2049C219.403 42.4108 219.088 41.6494 218.526 41.0879C217.964 40.5264 217.203 40.2107 216.409 40.2102Z" fill="#3F77DF"/>
<path d="M198.79 80.3748H148.753C147.615 80.3754 146.522 80.8163 145.702 81.6052C144.882 82.394 144.399 83.4694 144.355 84.6061C144.349 84.6635 144.347 84.7211 144.348 84.7787C144.35 85.9462 144.814 87.0655 145.64 87.891C146.466 88.7166 147.585 89.1811 148.753 89.1827H198.79C199.958 89.1827 201.078 88.7187 201.904 87.8928C202.731 87.0669 203.195 85.9468 203.195 84.7787C203.195 83.6107 202.731 82.4906 201.904 81.6647C201.078 80.8387 199.958 80.3748 198.79 80.3748Z" fill="white"/>
<path d="M201.641 97.8075C200.847 97.1281 199.835 96.7557 198.79 96.7576H148.753C147.585 96.7576 146.464 97.2216 145.638 98.0475C144.812 98.8734 144.348 99.9935 144.348 101.162C144.348 102.33 144.812 103.45 145.638 104.276C146.464 105.102 147.585 105.566 148.753 105.566H186.228L202.169 98.3395C202.009 98.1475 201.832 97.9696 201.641 97.8075Z" fill="white"/>
<path d="M156.156 113.316L161.622 115.793C161.942 115.938 162.289 116.013 162.64 116.013C162.991 116.013 163.338 115.938 163.658 115.793L169.124 113.316H156.156Z" fill="white"/>
<path d="M187.599 61.5996C187.288 60.7518 186.725 60.0197 185.985 59.5023C185.245 58.985 184.364 58.7074 183.462 58.707H164.081C163.235 58.7078 162.407 58.9521 161.696 59.4106C160.985 59.8692 160.421 60.5227 160.071 61.2931C159.81 61.8635 159.675 62.4837 159.676 63.111C159.678 64.2785 160.143 65.3977 160.968 66.2233C161.794 67.0488 162.913 67.5134 164.081 67.515H183.462C184.17 67.5151 184.868 67.3442 185.497 67.0169C186.125 66.6896 186.665 66.2155 187.071 65.6349C187.477 65.0543 187.737 64.3843 187.829 63.6818C187.921 62.9793 187.842 62.265 187.599 61.5996Z" fill="white"/>
<path d="M184.519 105.566L167.415 113.317L163.366 115.152C163.138 115.255 162.89 115.308 162.64 115.308C162.39 115.308 162.142 115.255 161.914 115.152L157.865 113.317H156.156L161.622 115.793C161.942 115.938 162.289 116.013 162.64 116.013C162.991 116.013 163.338 115.938 163.658 115.793L169.124 113.317L186.228 105.566H184.519ZM184.519 105.566L167.415 113.317L163.366 115.152C163.138 115.255 162.89 115.308 162.64 115.308C162.39 115.308 162.142 115.255 161.914 115.152L157.865 113.317H156.156L161.622 115.793C161.942 115.938 162.289 116.013 162.64 116.013C162.991 116.013 163.338 115.938 163.658 115.793L169.124 113.317L186.228 105.566H184.519ZM184.519 105.566L167.415 113.317L163.366 115.152C163.138 115.255 162.89 115.308 162.64 115.308C162.39 115.308 162.142 115.255 161.914 115.152L157.865 113.317H156.156L161.622 115.793C161.942 115.938 162.289 116.013 162.64 116.013C162.991 116.013 163.338 115.938 163.658 115.793L169.124 113.317L186.228 105.566H184.519ZM241.924 81.3295C241.794 81.2002 241.651 81.0845 241.498 80.9842C241.152 80.7598 240.755 80.6264 240.343 80.5962C239.932 80.566 239.519 80.6401 239.144 80.8116L201.641 97.8075L184.519 105.566L167.415 113.317L163.366 115.152C163.138 115.255 162.89 115.308 162.64 115.308C162.39 115.308 162.142 115.255 161.914 115.152L157.865 113.317L153.647 111.403L128.146 99.8509L128.139 99.8474L121.187 96.6942L100.428 87.2872L86.1359 80.8116C85.9905 80.7443 85.838 80.6935 85.6813 80.6601C85.3362 80.5739 84.976 80.5666 84.6277 80.639C84.0704 80.753 83.5695 81.0557 83.2094 81.4959C82.8493 81.9362 82.6521 82.4871 82.6509 83.0559V171.534C82.6516 172.188 82.9117 172.815 83.3741 173.277C83.8366 173.739 84.4635 173.999 85.1175 174H240.162C240.816 173.999 241.443 173.739 241.906 173.277C242.368 172.815 242.628 172.188 242.629 171.534V83.0559C242.63 82.4102 242.377 81.7899 241.924 81.3295V81.3295ZM241.924 171.534C241.924 172.001 241.738 172.449 241.408 172.779C241.078 173.11 240.63 173.295 240.162 173.295H85.1175C84.6503 173.295 84.2022 173.11 83.8719 172.779C83.5415 172.449 83.3558 172.001 83.3556 171.534V83.0559C83.3558 82.7614 83.4297 82.4718 83.5706 82.2133C83.7116 81.9548 83.9151 81.7357 84.1626 81.5761C84.3367 81.4646 84.5285 81.3836 84.7298 81.3365C84.7892 81.3237 84.8492 81.3143 84.9096 81.3084C84.9785 81.2984 85.0479 81.2937 85.1175 81.2943C85.368 81.2946 85.6155 81.3486 85.8434 81.4528L100.763 88.2138L121.398 97.5644L127.198 100.193L128.139 100.619L152.696 111.749L156.156 113.317L161.622 115.793C161.942 115.938 162.289 116.013 162.64 116.013C162.991 116.013 163.338 115.938 163.658 115.793L169.124 113.317L186.228 105.566L202.169 98.3395L239.437 81.4528C239.705 81.3313 239.999 81.279 240.293 81.3005C240.586 81.3221 240.87 81.4168 241.117 81.5761C241.146 81.5928 241.173 81.6117 241.198 81.6325C241.227 81.6506 241.253 81.6719 241.276 81.6959C241.479 81.8599 241.642 82.0671 241.754 82.3024C241.866 82.5377 241.925 82.7952 241.924 83.0559L241.924 171.534ZM184.519 105.566L167.415 113.317L163.366 115.152C163.138 115.255 162.89 115.308 162.64 115.308C162.39 115.308 162.142 115.255 161.914 115.152L157.865 113.317H156.156L161.622 115.793C161.942 115.938 162.289 116.013 162.64 116.013C162.991 116.013 163.338 115.938 163.658 115.793L169.124 113.317L186.228 105.566H184.519ZM184.519 105.566L167.415 113.317L163.366 115.152C163.138 115.255 162.89 115.308 162.64 115.308C162.39 115.308 162.142 115.255 161.914 115.152L157.865 113.317H156.156L161.622 115.793C161.942 115.938 162.289 116.013 162.64 116.013C162.991 116.013 163.338 115.938 163.658 115.793L169.124 113.317L186.228 105.566H184.519ZM127.198 100.193L128.139 100.619V99.8509L127.198 100.193ZM184.519 105.566L167.415 113.317L163.366 115.152C163.138 115.255 162.89 115.308 162.64 115.308C162.39 115.308 162.142 115.255 161.914 115.152L157.865 113.317H156.156L161.622 115.793C161.942 115.938 162.289 116.013 162.64 116.013C162.991 116.013 163.338 115.938 163.658 115.793L169.124 113.317L186.228 105.566H184.519Z" fill="#3F3D56"/>
<path d="M61.8509 174H22.0326C21.9391 174 21.8495 173.963 21.7834 173.897C21.7173 173.831 21.6802 173.741 21.6802 173.648C21.6802 173.554 21.7173 173.465 21.7834 173.399C21.8495 173.333 21.9391 173.295 22.0326 173.295H61.8509C61.9444 173.295 62.034 173.333 62.1001 173.399C62.1662 173.465 62.2033 173.554 62.2033 173.648C62.2033 173.741 62.1662 173.831 62.1001 173.897C62.034 173.963 61.9444 174 61.8509 174Z" fill="#3F3D56"/>
<path d="M39.6023 60.4176C38.9522 60.0877 38.4117 59.5766 38.0461 58.946C37.6805 58.3154 37.5056 57.5923 37.5425 56.8644C37.5794 56.1364 37.8265 55.4348 38.254 54.8444C38.6815 54.254 39.2709 53.8001 39.951 53.5376C42.5627 52.53 45.4905 54.5865 48.2281 54.0018C50.9566 53.4191 52.535 50.1575 51.8837 47.4449C51.2325 44.7323 48.862 42.6891 46.2481 41.7133C44.541 41.0777 42.7128 40.8339 40.8987 41.0002C39.0846 41.1664 37.3312 41.7384 35.7681 42.6738C34.2211 43.6366 32.9327 44.9626 32.015 46.5366C31.0972 48.1105 30.5778 49.8847 30.502 51.7051C30.4664 53.527 30.9116 55.3262 31.7928 56.9213C32.6739 58.5165 33.9598 59.8514 35.5211 60.7916C36.2169 61.1926 37.0267 61.5146 37.8093 61.334C38.4517 61.1254 39.0569 60.8161 39.6023 60.4176Z" fill="#2F2E41"/>
<path d="M36.7979 42.4629C34.495 39.4089 31.3863 36.8999 27.7688 35.656C24.1514 34.4121 20.0176 34.512 16.6202 36.2698C13.2227 38.0277 10.689 41.5189 10.4246 45.3346C9.98443 51.685 15.4116 57.0832 15.9685 63.4245C16.1451 65.4344 15.8188 67.4567 15.019 69.3092C14.2193 71.1617 12.9713 72.7863 11.3873 74.0364C9.80331 75.2866 7.93318 76.1233 5.94534 76.4709C3.95749 76.8186 1.91437 76.6664 0 76.0281C1.36353 77.1503 2.94443 77.9784 4.6434 78.4605C6.34236 78.9426 8.12268 79.0682 9.87252 78.8294C11.6195 78.5672 13.2862 77.9197 14.7518 76.9336C16.2175 75.9476 17.4452 74.6478 18.3462 73.1285C19.5676 71.0066 20.0691 68.5419 20.264 66.1014C20.5699 62.2427 20.1556 58.3607 19.042 54.6534C18.4333 52.6307 17.6077 50.5492 17.9937 48.4725C18.2138 47.3923 18.7464 46.4005 19.5255 45.6204C20.3045 44.8404 21.2956 44.3064 22.3757 44.0848C24.1211 43.7578 25.9057 44.2904 27.5723 44.9034C29.2389 45.5163 30.9192 46.2257 32.6946 46.2663C34.4699 46.3069 36.4036 45.4944 37.0897 43.8567L36.7979 42.4629Z" fill="#2F2E41"/>
</g>
<defs>
<clipPath id="clip0_371_901">
<rect width="268" height="174" fill="white"/>
</clipPath>
</defs>
</svg>
