<svg width="340" height="340" viewBox="0 0 340 340" fill="none" xmlns="http://www.w3.org/2000/svg">
<rect x="0.5" y="0.5" width="149" height="149" rx="3.5" stroke="#84A5E3"/>
<path d="M77 63.12V59C77 57.9 76.1 57 75 57C73.9 57 73 57.9 73 59V63.12C64 64.12 57 71.74 57 80.98C57 83.2 58.8 85 61.02 85H67C67 89.42 70.58 93 75 93C79.42 93 83 89.42 83 85H88.98C91.2 85 93 83.2 93 80.98C93 71.74 86 64.12 77 63.12ZM75 81H61C61 73.28 67.28 67 75 67C82.72 67 89 73.28 89 81H75Z" fill="#84A5E3"/>
<rect x="190.5" y="190.5" width="149" height="149" rx="3.5" stroke="#84A5E3"/>
<path d="M271 267V251C271 247.68 268.32 245 265 245C261.68 245 259 247.68 259 251V267C256.58 268.82 255 271.74 255 275C255 280.52 259.48 285 265 285C270.52 285 275 280.52 275 275C275 271.74 273.42 268.82 271 267ZM263 263V251C263 249.9 263.9 249 265 249C266.1 249 267 249.9 267 251V253H265V255H267V257V259H265V261H267V263H263Z" fill="#84A5E3"/>
<rect x="0.5" y="190.5" width="149" height="149" rx="3.5" stroke="#84A5E3"/>
<path d="M76.32 246.16C75.56 245.5 74.42 245.5 73.66 246.16C63.9 254.76 59 262.24 59 268.6C59 278.56 66.6 285 75 285C83.4 285 91 278.56 91 268.6C91 262.24 86.1 254.76 76.32 246.16ZM66.66 269C67.4 269 68 269.52 68.14 270.24C68.96 274.68 72.7 276.2 75.42 275.98C76.28 275.94 77 276.62 77 277.48C77 278.28 76.36 278.94 75.56 278.98C71.3 279.24 66.32 276.8 65.18 270.74C65.02 269.84 65.74 269 66.66 269Z" fill="#84A5E3"/>
<rect x="190.5" y="0.5" width="149" height="149" rx="3.5" stroke="#84A5E3"/>
<path d="M265 91C267.2 91 269 89.2 269 87V63C269 60.8 267.2 59 265 59C262.8 59 261 60.8 261 63V87C261 89.2 262.8 91 265 91ZM253 91C255.2 91 257 89.2 257 87V79C257 76.8 255.2 75 253 75C250.8 75 249 76.8 249 79V87C249 89.2 250.8 91 253 91ZM273 73V87C273 89.2 274.8 91 277 91C279.2 91 281 89.2 281 87V73C281 70.8 279.2 69 277 69C274.8 69 273 70.8 273 73Z" fill="#84A5E3"/>
</svg>
