<svg width="340" height="340" viewBox="0 0 340 340" fill="none" xmlns="http://www.w3.org/2000/svg">
<rect x="0.5" y="0.5" width="149" height="149" rx="3.5" fill="#F8F9FD" stroke="#84A5E3"/>
<path d="M77 45.12V41C77 39.9 76.1 39 75 39C73.9 39 73 39.9 73 41V45.12C64 46.12 57 53.74 57 62.98C57 65.2 58.8 67 61.02 67H67C67 71.42 70.58 75 75 75C79.42 75 83 71.42 83 67H88.98C91.2 67 93 65.2 93 62.98C93 53.74 86 46.12 77 45.12ZM75 63H61C61 55.28 67.28 49 75 49C82.72 49 89 55.28 89 63H75Z" fill="#84A5E3"/>
<path d="M20.9693 101.528H24.7293V103H19.1453V91.88H20.9693V101.528ZM34.2387 94.184V103H32.4147V101.96C32.1267 102.323 31.748 102.611 31.2787 102.824C30.82 103.027 30.3294 103.128 29.8067 103.128C29.1134 103.128 28.4894 102.984 27.9347 102.696C27.3907 102.408 26.9587 101.981 26.6387 101.416C26.3294 100.851 26.1747 100.168 26.1747 99.368V94.184H27.9827V99.096C27.9827 99.8853 28.18 100.493 28.5747 100.92C28.9694 101.336 29.508 101.544 30.1907 101.544C30.8734 101.544 31.412 101.336 31.8067 100.92C32.212 100.493 32.4147 99.8853 32.4147 99.096V94.184H34.2387ZM47.3173 94.04C48.0106 94.04 48.6293 94.184 49.1733 94.472C49.728 94.76 50.16 95.1867 50.4693 95.752C50.7893 96.3173 50.9493 97 50.9493 97.8V103H49.1413V98.072C49.1413 97.2827 48.944 96.68 48.5493 96.264C48.1546 95.8373 47.616 95.624 46.9333 95.624C46.2506 95.624 45.7066 95.8373 45.3013 96.264C44.9066 96.68 44.7093 97.2827 44.7093 98.072V103H42.9013V98.072C42.9013 97.2827 42.704 96.68 42.3093 96.264C41.9146 95.8373 41.376 95.624 40.6933 95.624C40.0106 95.624 39.4666 95.8373 39.0613 96.264C38.6666 96.68 38.4693 97.2827 38.4693 98.072V103H36.6453V94.184H38.4693V95.192C38.768 94.8293 39.1466 94.5467 39.6053 94.344C40.064 94.1413 40.5546 94.04 41.0773 94.04C41.7813 94.04 42.4106 94.1893 42.9653 94.488C43.52 94.7867 43.9466 95.2187 44.2453 95.784C44.512 95.2507 44.928 94.8293 45.4933 94.52C46.0586 94.2 46.6666 94.04 47.3173 94.04ZM54.1983 93.016C53.8676 93.016 53.5903 92.904 53.3663 92.68C53.1423 92.456 53.0303 92.1787 53.0303 91.848C53.0303 91.5173 53.1423 91.24 53.3663 91.016C53.5903 90.792 53.8676 90.68 54.1983 90.68C54.5183 90.68 54.7903 90.792 55.0143 91.016C55.2383 91.24 55.3503 91.5173 55.3503 91.848C55.3503 92.1787 55.2383 92.456 55.0143 92.68C54.7903 92.904 54.5183 93.016 54.1983 93.016ZM55.0943 94.184V103H53.2703V94.184H55.0943ZM61.9371 94.04C62.6304 94.04 63.2491 94.184 63.7931 94.472C64.3477 94.76 64.7797 95.1867 65.0891 95.752C65.3984 96.3173 65.5531 97 65.5531 97.8V103H63.7451V98.072C63.7451 97.2827 63.5477 96.68 63.1531 96.264C62.7584 95.8373 62.2197 95.624 61.5371 95.624C60.8544 95.624 60.3104 95.8373 59.9051 96.264C59.5104 96.68 59.3131 97.2827 59.3131 98.072V103H57.4891V94.184H59.3131V95.192C59.6117 94.8293 59.9904 94.5467 60.4491 94.344C60.9184 94.1413 61.4144 94.04 61.9371 94.04ZM71.7037 103.144C70.8717 103.144 70.1197 102.957 69.4477 102.584C68.7757 102.2 68.2477 101.667 67.8637 100.984C67.4797 100.291 67.2877 99.4907 67.2877 98.584C67.2877 97.688 67.485 96.8933 67.8797 96.2C68.2744 95.5067 68.813 94.9733 69.4957 94.6C70.1784 94.2267 70.941 94.04 71.7837 94.04C72.6264 94.04 73.389 94.2267 74.0717 94.6C74.7544 94.9733 75.293 95.5067 75.6877 96.2C76.0824 96.8933 76.2797 97.688 76.2797 98.584C76.2797 99.48 76.077 100.275 75.6717 100.968C75.2664 101.661 74.7117 102.2 74.0077 102.584C73.3144 102.957 72.5464 103.144 71.7037 103.144ZM71.7037 101.56C72.173 101.56 72.6104 101.448 73.0157 101.224C73.4317 101 73.7677 100.664 74.0237 100.216C74.2797 99.768 74.4077 99.224 74.4077 98.584C74.4077 97.944 74.285 97.4053 74.0397 96.968C73.7944 96.52 73.469 96.184 73.0637 95.96C72.6584 95.736 72.221 95.624 71.7517 95.624C71.2824 95.624 70.845 95.736 70.4397 95.96C70.045 96.184 69.7304 96.52 69.4957 96.968C69.261 97.4053 69.1437 97.944 69.1437 98.584C69.1437 99.5333 69.3837 100.269 69.8637 100.792C70.3544 101.304 70.9677 101.56 71.7037 101.56ZM81.2828 103.144C80.5895 103.144 79.9655 103.021 79.4108 102.776C78.8668 102.52 78.4348 102.179 78.1148 101.752C77.7948 101.315 77.6241 100.829 77.6028 100.296H79.4908C79.5228 100.669 79.6988 100.984 80.0188 101.24C80.3495 101.485 80.7601 101.608 81.2508 101.608C81.7628 101.608 82.1575 101.512 82.4348 101.32C82.7228 101.117 82.8668 100.861 82.8668 100.552C82.8668 100.221 82.7068 99.976 82.3868 99.816C82.0775 99.656 81.5815 99.48 80.8988 99.288C80.2375 99.1067 79.6988 98.9307 79.2828 98.76C78.8668 98.5893 78.5041 98.328 78.1948 97.976C77.8961 97.624 77.7468 97.16 77.7468 96.584C77.7468 96.1147 77.8855 95.688 78.1628 95.304C78.4401 94.9093 78.8348 94.6 79.3468 94.376C79.8695 94.152 80.4668 94.04 81.1388 94.04C82.1415 94.04 82.9468 94.296 83.5548 94.808C84.1735 95.3093 84.5041 95.9973 84.5468 96.872H82.7228C82.6908 96.4773 82.5308 96.1627 82.2428 95.928C81.9548 95.6933 81.5655 95.576 81.0748 95.576C80.5948 95.576 80.2268 95.6667 79.9708 95.848C79.7148 96.0293 79.5868 96.2693 79.5868 96.568C79.5868 96.8027 79.6721 97 79.8428 97.16C80.0135 97.32 80.2215 97.448 80.4668 97.544C80.7121 97.6293 81.0748 97.7413 81.5548 97.88C82.1948 98.0507 82.7175 98.2267 83.1228 98.408C83.5388 98.5787 83.8961 98.8347 84.1948 99.176C84.4935 99.5173 84.6481 99.9707 84.6588 100.536C84.6588 101.037 84.5201 101.485 84.2428 101.88C83.9655 102.275 83.5708 102.584 83.0588 102.808C82.5575 103.032 81.9655 103.144 81.2828 103.144ZM87.5577 93.016C87.227 93.016 86.9497 92.904 86.7257 92.68C86.5017 92.456 86.3897 92.1787 86.3897 91.848C86.3897 91.5173 86.5017 91.24 86.7257 91.016C86.9497 90.792 87.227 90.68 87.5577 90.68C87.8777 90.68 88.1497 90.792 88.3737 91.016C88.5977 91.24 88.7097 91.5173 88.7097 91.848C88.7097 92.1787 88.5977 92.456 88.3737 92.68C88.1497 92.904 87.8777 93.016 87.5577 93.016ZM88.4537 94.184V103H86.6297V94.184H88.4537ZM90.2404 98.552C90.2404 97.6667 90.4218 96.8827 90.7844 96.2C91.1578 95.5173 91.6591 94.9893 92.2884 94.616C92.9284 94.232 93.6378 94.04 94.4164 94.04C94.9924 94.04 95.5578 94.168 96.1124 94.424C96.6778 94.6693 97.1258 95 97.4564 95.416V91.16H99.2964V103H97.4564V101.672C97.1578 102.099 96.7418 102.451 96.2084 102.728C95.6858 103.005 95.0831 103.144 94.4004 103.144C93.6324 103.144 92.9284 102.952 92.2884 102.568C91.6591 102.173 91.1578 101.629 90.7844 100.936C90.4218 100.232 90.2404 99.4373 90.2404 98.552ZM97.4564 98.584C97.4564 97.976 97.3284 97.448 97.0724 97C96.8271 96.552 96.5018 96.2107 96.0964 95.976C95.6911 95.7413 95.2538 95.624 94.7844 95.624C94.3151 95.624 93.8778 95.7413 93.4724 95.976C93.0671 96.2 92.7364 96.536 92.4804 96.984C92.2351 97.4213 92.1124 97.944 92.1124 98.552C92.1124 99.16 92.2351 99.6933 92.4804 100.152C92.7364 100.611 93.0671 100.963 93.4724 101.208C93.8884 101.443 94.3258 101.56 94.7844 101.56C95.2538 101.56 95.6911 101.443 96.0964 101.208C96.5018 100.973 96.8271 100.632 97.0724 100.184C97.3284 99.7253 97.4564 99.192 97.4564 98.584ZM101.084 98.552C101.084 97.6667 101.266 96.8827 101.628 96.2C102.002 95.5173 102.503 94.9893 103.132 94.616C103.772 94.232 104.476 94.04 105.244 94.04C105.938 94.04 106.54 94.1787 107.052 94.456C107.575 94.7227 107.991 95.0587 108.3 95.464V94.184H110.14V103H108.3V101.688C107.991 102.104 107.57 102.451 107.036 102.728C106.503 103.005 105.895 103.144 105.212 103.144C104.455 103.144 103.762 102.952 103.132 102.568C102.503 102.173 102.002 101.629 101.628 100.936C101.266 100.232 101.084 99.4373 101.084 98.552ZM108.3 98.584C108.3 97.976 108.172 97.448 107.916 97C107.671 96.552 107.346 96.2107 106.94 95.976C106.535 95.7413 106.098 95.624 105.628 95.624C105.159 95.624 104.722 95.7413 104.316 95.976C103.911 96.2 103.58 96.536 103.324 96.984C103.079 97.4213 102.956 97.944 102.956 98.552C102.956 99.16 103.079 99.6933 103.324 100.152C103.58 100.611 103.911 100.963 104.316 101.208C104.732 101.443 105.17 101.56 105.628 101.56C106.098 101.56 106.535 101.443 106.94 101.208C107.346 100.973 107.671 100.632 107.916 100.184C108.172 99.7253 108.3 99.192 108.3 98.584ZM111.928 98.552C111.928 97.6667 112.109 96.8827 112.472 96.2C112.845 95.5173 113.347 94.9893 113.976 94.616C114.616 94.232 115.325 94.04 116.104 94.04C116.68 94.04 117.245 94.168 117.8 94.424C118.365 94.6693 118.813 95 119.144 95.416V91.16H120.984V103H119.144V101.672C118.845 102.099 118.429 102.451 117.896 102.728C117.373 103.005 116.771 103.144 116.088 103.144C115.32 103.144 114.616 102.952 113.976 102.568C113.347 102.173 112.845 101.629 112.472 100.936C112.109 100.232 111.928 99.4373 111.928 98.552ZM119.144 98.584C119.144 97.976 119.016 97.448 118.76 97C118.515 96.552 118.189 96.2107 117.784 95.976C117.379 95.7413 116.941 95.624 116.472 95.624C116.003 95.624 115.565 95.7413 115.16 95.976C114.755 96.2 114.424 96.536 114.168 96.984C113.923 97.4213 113.8 97.944 113.8 98.552C113.8 99.16 113.923 99.6933 114.168 100.152C114.424 100.611 114.755 100.963 115.16 101.208C115.576 101.443 116.013 101.56 116.472 101.56C116.941 101.56 117.379 101.443 117.784 101.208C118.189 100.973 118.515 100.632 118.76 100.184C119.016 99.7253 119.144 99.192 119.144 98.584ZM131.46 98.376C131.46 98.7067 131.438 99.0053 131.396 99.272H124.66C124.713 99.976 124.974 100.541 125.444 100.968C125.913 101.395 126.489 101.608 127.172 101.608C128.153 101.608 128.846 101.197 129.252 100.376H131.22C130.953 101.187 130.468 101.853 129.764 102.376C129.07 102.888 128.206 103.144 127.172 103.144C126.329 103.144 125.572 102.957 124.9 102.584C124.238 102.2 123.716 101.667 123.332 100.984C122.958 100.291 122.772 99.4907 122.772 98.584C122.772 97.6773 122.953 96.8827 123.316 96.2C123.689 95.5067 124.206 94.9733 124.868 94.6C125.54 94.2267 126.308 94.04 127.172 94.04C128.004 94.04 128.745 94.2213 129.396 94.584C130.046 94.9467 130.553 95.4587 130.916 96.12C131.278 96.7707 131.46 97.5227 131.46 98.376ZM129.556 97.8C129.545 97.128 129.305 96.5893 128.836 96.184C128.366 95.7787 127.785 95.576 127.092 95.576C126.462 95.576 125.924 95.7787 125.476 96.184C125.028 96.5787 124.761 97.1173 124.676 97.8H129.556Z" fill="#2F2E41"/>
<rect x="190.5" y="190.5" width="149" height="149" rx="3.5" fill="#F8F9FD" stroke="#84A5E3"/>
<path d="M271 251V235C271 231.68 268.32 229 265 229C261.68 229 259 231.68 259 235V251C256.58 252.82 255 255.74 255 259C255 264.52 259.48 269 265 269C270.52 269 275 264.52 275 259C275 255.74 273.42 252.82 271 251ZM263 247V235C263 233.9 263.9 233 265 233C266.1 233 267 233.9 267 235V237H265V239H267V241V243H265V245H267V247H263Z" fill="#84A5E3"/>
<path d="M220.103 283.88V285.368H217.143V295H215.319V285.368H212.343V283.88H220.103ZM230.03 290.376C230.03 290.707 230.009 291.005 229.966 291.272H223.23C223.283 291.976 223.545 292.541 224.014 292.968C224.483 293.395 225.059 293.608 225.742 293.608C226.723 293.608 227.417 293.197 227.822 292.376H229.79C229.523 293.187 229.038 293.853 228.334 294.376C227.641 294.888 226.777 295.144 225.742 295.144C224.899 295.144 224.142 294.957 223.47 294.584C222.809 294.2 222.286 293.667 221.902 292.984C221.529 292.291 221.342 291.491 221.342 290.584C221.342 289.677 221.523 288.883 221.886 288.2C222.259 287.507 222.777 286.973 223.438 286.6C224.11 286.227 224.878 286.04 225.742 286.04C226.574 286.04 227.315 286.221 227.966 286.584C228.617 286.947 229.123 287.459 229.486 288.12C229.849 288.771 230.03 289.523 230.03 290.376ZM228.126 289.8C228.115 289.128 227.875 288.589 227.406 288.184C226.937 287.779 226.355 287.576 225.662 287.576C225.033 287.576 224.494 287.779 224.046 288.184C223.598 288.579 223.331 289.117 223.246 289.8H228.126ZM242.497 286.04C243.19 286.04 243.809 286.184 244.353 286.472C244.908 286.76 245.34 287.187 245.649 287.752C245.969 288.317 246.129 289 246.129 289.8V295H244.321V290.072C244.321 289.283 244.124 288.68 243.729 288.264C243.334 287.837 242.796 287.624 242.113 287.624C241.43 287.624 240.886 287.837 240.481 288.264C240.086 288.68 239.889 289.283 239.889 290.072V295H238.081V290.072C238.081 289.283 237.884 288.68 237.489 288.264C237.094 287.837 236.556 287.624 235.873 287.624C235.19 287.624 234.646 287.837 234.241 288.264C233.846 288.68 233.649 289.283 233.649 290.072V295H231.825V286.184H233.649V287.192C233.948 286.829 234.326 286.547 234.785 286.344C235.244 286.141 235.734 286.04 236.257 286.04C236.961 286.04 237.59 286.189 238.145 286.488C238.7 286.787 239.126 287.219 239.425 287.784C239.692 287.251 240.108 286.829 240.673 286.52C241.238 286.2 241.846 286.04 242.497 286.04ZM250.274 287.48C250.583 287.075 251.005 286.733 251.538 286.456C252.071 286.179 252.674 286.04 253.346 286.04C254.114 286.04 254.813 286.232 255.442 286.616C256.082 286.989 256.583 287.517 256.946 288.2C257.309 288.883 257.49 289.667 257.49 290.552C257.49 291.437 257.309 292.232 256.946 292.936C256.583 293.629 256.082 294.173 255.442 294.568C254.813 294.952 254.114 295.144 253.346 295.144C252.674 295.144 252.077 295.011 251.554 294.744C251.031 294.467 250.605 294.125 250.274 293.72V299.192H248.45V286.184H250.274V287.48ZM255.634 290.552C255.634 289.944 255.506 289.421 255.25 288.984C255.005 288.536 254.674 288.2 254.258 287.976C253.853 287.741 253.415 287.624 252.946 287.624C252.487 287.624 252.05 287.741 251.634 287.976C251.229 288.211 250.898 288.552 250.642 289C250.397 289.448 250.274 289.976 250.274 290.584C250.274 291.192 250.397 291.725 250.642 292.184C250.898 292.632 251.229 292.973 251.634 293.208C252.05 293.443 252.487 293.56 252.946 293.56C253.415 293.56 253.853 293.443 254.258 293.208C254.674 292.963 255.005 292.611 255.25 292.152C255.506 291.693 255.634 291.16 255.634 290.552ZM267.374 290.376C267.374 290.707 267.352 291.005 267.31 291.272H260.574C260.627 291.976 260.888 292.541 261.358 292.968C261.827 293.395 262.403 293.608 263.086 293.608C264.067 293.608 264.76 293.197 265.166 292.376H267.134C266.867 293.187 266.382 293.853 265.678 294.376C264.984 294.888 264.12 295.144 263.086 295.144C262.243 295.144 261.486 294.957 260.814 294.584C260.152 294.2 259.63 293.667 259.246 292.984C258.872 292.291 258.686 291.491 258.686 290.584C258.686 289.677 258.867 288.883 259.23 288.2C259.603 287.507 260.12 286.973 260.782 286.6C261.454 286.227 262.222 286.04 263.086 286.04C263.918 286.04 264.659 286.221 265.31 286.584C265.96 286.947 266.467 287.459 266.83 288.12C267.192 288.771 267.374 289.523 267.374 290.376ZM265.47 289.8C265.459 289.128 265.219 288.589 264.75 288.184C264.28 287.779 263.699 287.576 263.006 287.576C262.376 287.576 261.838 287.779 261.39 288.184C260.942 288.579 260.675 289.117 260.59 289.8H265.47ZM270.993 287.464C271.259 287.016 271.611 286.669 272.049 286.424C272.497 286.168 273.025 286.04 273.633 286.04V287.928H273.169C272.454 287.928 271.91 288.109 271.537 288.472C271.174 288.835 270.993 289.464 270.993 290.36V295H269.169V286.184H270.993V287.464ZM274.701 290.552C274.701 289.667 274.883 288.883 275.245 288.2C275.619 287.517 276.12 286.989 276.749 286.616C277.389 286.232 278.093 286.04 278.861 286.04C279.555 286.04 280.157 286.179 280.669 286.456C281.192 286.723 281.608 287.059 281.917 287.464V286.184H283.757V295H281.917V293.688C281.608 294.104 281.187 294.451 280.653 294.728C280.12 295.005 279.512 295.144 278.829 295.144C278.072 295.144 277.379 294.952 276.749 294.568C276.12 294.173 275.619 293.629 275.245 292.936C274.883 292.232 274.701 291.437 274.701 290.552ZM281.917 290.584C281.917 289.976 281.789 289.448 281.533 289C281.288 288.552 280.963 288.211 280.557 287.976C280.152 287.741 279.715 287.624 279.245 287.624C278.776 287.624 278.339 287.741 277.933 287.976C277.528 288.2 277.197 288.536 276.941 288.984C276.696 289.421 276.573 289.944 276.573 290.552C276.573 291.16 276.696 291.693 276.941 292.152C277.197 292.611 277.528 292.963 277.933 293.208C278.349 293.443 278.787 293.56 279.245 293.56C279.715 293.56 280.152 293.443 280.557 293.208C280.963 292.973 281.288 292.632 281.533 292.184C281.789 291.725 281.917 291.192 281.917 290.584ZM288.281 287.672V292.552C288.281 292.883 288.356 293.123 288.505 293.272C288.665 293.411 288.932 293.48 289.305 293.48H290.425V295H288.985C288.164 295 287.534 294.808 287.097 294.424C286.66 294.04 286.441 293.416 286.441 292.552V287.672H285.401V286.184H286.441V283.992H288.281V286.184H290.425V287.672H288.281ZM300.09 286.184V295H298.266V293.96C297.978 294.323 297.6 294.611 297.13 294.824C296.672 295.027 296.181 295.128 295.658 295.128C294.965 295.128 294.341 294.984 293.786 294.696C293.242 294.408 292.81 293.981 292.49 293.416C292.181 292.851 292.026 292.168 292.026 291.368V286.184H293.834V291.096C293.834 291.885 294.032 292.493 294.426 292.92C294.821 293.336 295.36 293.544 296.042 293.544C296.725 293.544 297.264 293.336 297.658 292.92C298.064 292.493 298.266 291.885 298.266 291.096V286.184H300.09ZM304.321 287.464C304.588 287.016 304.94 286.669 305.377 286.424C305.825 286.168 306.353 286.04 306.961 286.04V287.928H306.497C305.782 287.928 305.238 288.109 304.865 288.472C304.502 288.835 304.321 289.464 304.321 290.36V295H302.497V286.184H304.321V287.464ZM308.03 290.552C308.03 289.667 308.211 288.883 308.574 288.2C308.947 287.517 309.448 286.989 310.078 286.616C310.718 286.232 311.422 286.04 312.19 286.04C312.883 286.04 313.486 286.179 313.998 286.456C314.52 286.723 314.936 287.059 315.246 287.464V286.184H317.086V295H315.246V293.688C314.936 294.104 314.515 294.451 313.982 294.728C313.448 295.005 312.84 295.144 312.158 295.144C311.4 295.144 310.707 294.952 310.078 294.568C309.448 294.173 308.947 293.629 308.574 292.936C308.211 292.232 308.03 291.437 308.03 290.552ZM315.246 290.584C315.246 289.976 315.118 289.448 314.862 289C314.616 288.552 314.291 288.211 313.886 287.976C313.48 287.741 313.043 287.624 312.574 287.624C312.104 287.624 311.667 287.741 311.262 287.976C310.856 288.2 310.526 288.536 310.27 288.984C310.024 289.421 309.902 289.944 309.902 290.552C309.902 291.16 310.024 291.693 310.27 292.152C310.526 292.611 310.856 292.963 311.262 293.208C311.678 293.443 312.115 293.56 312.574 293.56C313.043 293.56 313.48 293.443 313.886 293.208C314.291 292.973 314.616 292.632 314.862 292.184C315.118 291.725 315.246 291.192 315.246 290.584Z" fill="#2F2E41"/>
<rect x="0.5" y="190.5" width="149" height="149" rx="3.5" fill="#F8F9FD" stroke="#84A5E3"/>
<path d="M76.32 230.16C75.56 229.5 74.42 229.5 73.66 230.16C63.9 238.76 59 246.24 59 252.6C59 262.56 66.6 269 75 269C83.4 269 91 262.56 91 252.6C91 246.24 86.1 238.76 76.32 230.16ZM66.66 253C67.4 253 68 253.52 68.14 254.24C68.96 258.68 72.7 260.2 75.42 259.98C76.28 259.94 77 260.62 77 261.48C77 262.28 76.36 262.94 75.56 262.98C71.3 263.24 66.32 260.8 65.18 254.74C65.02 253.84 65.74 253 66.66 253Z" fill="#84A5E3"/>
<path d="M40.8596 283.88V290.968C40.8596 291.811 41.0782 292.445 41.5156 292.872C41.9636 293.299 42.5822 293.512 43.3716 293.512C44.1716 293.512 44.7902 293.299 45.2276 292.872C45.6756 292.445 45.8996 291.811 45.8996 290.968V283.88H47.7236V290.936C47.7236 291.843 47.5262 292.611 47.1316 293.24C46.7369 293.869 46.2089 294.339 45.5476 294.648C44.8862 294.957 44.1556 295.112 43.3556 295.112C42.5556 295.112 41.8249 294.957 41.1636 294.648C40.5129 294.339 39.9956 293.869 39.6116 293.24C39.2276 292.611 39.0356 291.843 39.0356 290.936V283.88H40.8596ZM60.7704 286.04C61.4638 286.04 62.0824 286.184 62.6264 286.472C63.1811 286.76 63.6131 287.187 63.9224 287.752C64.2424 288.317 64.4024 289 64.4024 289.8V295H62.5944V290.072C62.5944 289.283 62.3971 288.68 62.0024 288.264C61.6078 287.837 61.0691 287.624 60.3864 287.624C59.7038 287.624 59.1598 287.837 58.7544 288.264C58.3598 288.68 58.1624 289.283 58.1624 290.072V295H56.3544V290.072C56.3544 289.283 56.1571 288.68 55.7624 288.264C55.3678 287.837 54.8291 287.624 54.1464 287.624C53.4638 287.624 52.9198 287.837 52.5144 288.264C52.1198 288.68 51.9224 289.283 51.9224 290.072V295H50.0984V286.184H51.9224V287.192C52.2211 286.829 52.5998 286.547 53.0584 286.344C53.5171 286.141 54.0078 286.04 54.5304 286.04C55.2344 286.04 55.8638 286.189 56.4184 286.488C56.9731 286.787 57.3998 287.219 57.6984 287.784C57.9651 287.251 58.3811 286.829 58.9464 286.52C59.5118 286.2 60.1198 286.04 60.7704 286.04ZM67.6514 285.016C67.3208 285.016 67.0434 284.904 66.8194 284.68C66.5954 284.456 66.4834 284.179 66.4834 283.848C66.4834 283.517 66.5954 283.24 66.8194 283.016C67.0434 282.792 67.3208 282.68 67.6514 282.68C67.9714 282.68 68.2434 282.792 68.4674 283.016C68.6914 283.24 68.8034 283.517 68.8034 283.848C68.8034 284.179 68.6914 284.456 68.4674 284.68C68.2434 284.904 67.9714 285.016 67.6514 285.016ZM68.5474 286.184V295H66.7234V286.184H68.5474ZM70.3342 290.552C70.3342 289.667 70.5155 288.883 70.8782 288.2C71.2515 287.517 71.7529 286.989 72.3822 286.616C73.0222 286.232 73.7315 286.04 74.5102 286.04C75.0862 286.04 75.6515 286.168 76.2062 286.424C76.7715 286.669 77.2195 287 77.5502 287.416V283.16H79.3902V295H77.5502V293.672C77.2515 294.099 76.8355 294.451 76.3022 294.728C75.7795 295.005 75.1769 295.144 74.4942 295.144C73.7262 295.144 73.0222 294.952 72.3822 294.568C71.7529 294.173 71.2515 293.629 70.8782 292.936C70.5155 292.232 70.3342 291.437 70.3342 290.552ZM77.5502 290.584C77.5502 289.976 77.4222 289.448 77.1662 289C76.9209 288.552 76.5955 288.211 76.1902 287.976C75.7849 287.741 75.3475 287.624 74.8782 287.624C74.4089 287.624 73.9715 287.741 73.5662 287.976C73.1609 288.2 72.8302 288.536 72.5742 288.984C72.3289 289.421 72.2062 289.944 72.2062 290.552C72.2062 291.16 72.3289 291.693 72.5742 292.152C72.8302 292.611 73.1609 292.963 73.5662 293.208C73.9822 293.443 74.4195 293.56 74.8782 293.56C75.3475 293.56 75.7849 293.443 76.1902 293.208C76.5955 292.973 76.9209 292.632 77.1662 292.184C77.4222 291.725 77.5502 291.192 77.5502 290.584ZM81.1779 290.552C81.1779 289.667 81.3593 288.883 81.7219 288.2C82.0953 287.517 82.5966 286.989 83.2259 286.616C83.8659 286.232 84.5699 286.04 85.3379 286.04C86.0313 286.04 86.6339 286.179 87.1459 286.456C87.6686 286.723 88.0846 287.059 88.3939 287.464V286.184H90.2339V295H88.3939V293.688C88.0846 294.104 87.6633 294.451 87.1299 294.728C86.5966 295.005 85.9886 295.144 85.3059 295.144C84.5486 295.144 83.8553 294.952 83.2259 294.568C82.5966 294.173 82.0953 293.629 81.7219 292.936C81.3593 292.232 81.1779 291.437 81.1779 290.552ZM88.3939 290.584C88.3939 289.976 88.2659 289.448 88.0099 289C87.7646 288.552 87.4393 288.211 87.0339 287.976C86.6286 287.741 86.1913 287.624 85.7219 287.624C85.2526 287.624 84.8153 287.741 84.4099 287.976C84.0046 288.2 83.6739 288.536 83.4179 288.984C83.1726 289.421 83.0499 289.944 83.0499 290.552C83.0499 291.16 83.1726 291.693 83.4179 292.152C83.6739 292.611 84.0046 292.963 84.4099 293.208C84.8259 293.443 85.2633 293.56 85.7219 293.56C86.1913 293.56 86.6286 293.443 87.0339 293.208C87.4393 292.973 87.7646 292.632 88.0099 292.184C88.2659 291.725 88.3939 291.192 88.3939 290.584ZM92.0217 290.552C92.0217 289.667 92.203 288.883 92.5657 288.2C92.939 287.517 93.4404 286.989 94.0697 286.616C94.7097 286.232 95.419 286.04 96.1977 286.04C96.7737 286.04 97.339 286.168 97.8937 286.424C98.459 286.669 98.907 287 99.2377 287.416V283.16H101.078V295H99.2377V293.672C98.939 294.099 98.523 294.451 97.9897 294.728C97.467 295.005 96.8644 295.144 96.1817 295.144C95.4137 295.144 94.7097 294.952 94.0697 294.568C93.4404 294.173 92.939 293.629 92.5657 292.936C92.203 292.232 92.0217 291.437 92.0217 290.552ZM99.2377 290.584C99.2377 289.976 99.1097 289.448 98.8537 289C98.6084 288.552 98.283 288.211 97.8777 287.976C97.4724 287.741 97.035 287.624 96.5657 287.624C96.0964 287.624 95.659 287.741 95.2537 287.976C94.8484 288.2 94.5177 288.536 94.2617 288.984C94.0164 289.421 93.8937 289.944 93.8937 290.552C93.8937 291.16 94.0164 291.693 94.2617 292.152C94.5177 292.611 94.8484 292.963 95.2537 293.208C95.6697 293.443 96.107 293.56 96.5657 293.56C97.035 293.56 97.4724 293.443 97.8777 293.208C98.283 292.973 98.6084 292.632 98.8537 292.184C99.1097 291.725 99.2377 291.192 99.2377 290.584ZM111.553 290.376C111.553 290.707 111.532 291.005 111.489 291.272H104.753C104.807 291.976 105.068 292.541 105.537 292.968C106.007 293.395 106.583 293.608 107.265 293.608C108.247 293.608 108.94 293.197 109.345 292.376H111.313C111.047 293.187 110.561 293.853 109.857 294.376C109.164 294.888 108.3 295.144 107.265 295.144C106.423 295.144 105.665 294.957 104.993 294.584C104.332 294.2 103.809 293.667 103.425 292.984C103.052 292.291 102.865 291.491 102.865 290.584C102.865 289.677 103.047 288.883 103.409 288.2C103.783 287.507 104.3 286.973 104.961 286.6C105.633 286.227 106.401 286.04 107.265 286.04C108.097 286.04 108.839 286.221 109.489 286.584C110.14 286.947 110.647 287.459 111.009 288.12C111.372 288.771 111.553 289.523 111.553 290.376ZM109.649 289.8C109.639 289.128 109.399 288.589 108.929 288.184C108.46 287.779 107.879 287.576 107.185 287.576C106.556 287.576 106.017 287.779 105.569 288.184C105.121 288.579 104.855 289.117 104.769 289.8H109.649Z" fill="#2F2E41"/>
<rect x="190.5" y="0.5" width="149" height="149" rx="3.5" fill="#F8F9FD" stroke="#84A5E3"/>
<path d="M249.093 103L246.533 98.552H245.141V103H243.317V91.88H247.157C248.011 91.88 248.731 92.0293 249.317 92.328C249.915 92.6267 250.357 93.0267 250.645 93.528C250.944 94.0293 251.093 94.5893 251.093 95.208C251.093 95.9333 250.88 96.5947 250.453 97.192C250.037 97.7787 249.392 98.1787 248.517 98.392L251.269 103H249.093ZM245.141 97.096H247.157C247.84 97.096 248.352 96.9253 248.693 96.584C249.045 96.2427 249.221 95.784 249.221 95.208C249.221 94.632 249.051 94.184 248.709 93.864C248.368 93.5333 247.851 93.368 247.157 93.368H245.141V97.096ZM261.411 94.184V103H259.587V101.96C259.299 102.323 258.92 102.611 258.451 102.824C257.992 103.027 257.501 103.128 256.979 103.128C256.285 103.128 255.661 102.984 255.107 102.696C254.563 102.408 254.131 101.981 253.811 101.416C253.501 100.851 253.347 100.168 253.347 99.368V94.184H255.155V99.096C255.155 99.8853 255.352 100.493 255.747 100.92C256.141 101.336 256.68 101.544 257.363 101.544C258.045 101.544 258.584 101.336 258.979 100.92C259.384 100.493 259.587 99.8853 259.587 99.096V94.184H261.411ZM265.641 94.184V103H263.817V94.184H265.641ZM266.377 91.816L262.841 93.56V92.216L266.377 90.264V91.816ZM267.428 98.552C267.428 97.6667 267.609 96.8827 267.972 96.2C268.345 95.5173 268.847 94.9893 269.476 94.616C270.116 94.232 270.825 94.04 271.604 94.04C272.18 94.04 272.745 94.168 273.3 94.424C273.865 94.6693 274.313 95 274.644 95.416V91.16H276.484V103H274.644V101.672C274.345 102.099 273.929 102.451 273.396 102.728C272.873 103.005 272.271 103.144 271.588 103.144C270.82 103.144 270.116 102.952 269.476 102.568C268.847 102.173 268.345 101.629 267.972 100.936C267.609 100.232 267.428 99.4373 267.428 98.552ZM274.644 98.584C274.644 97.976 274.516 97.448 274.26 97C274.015 96.552 273.689 96.2107 273.284 95.976C272.879 95.7413 272.441 95.624 271.972 95.624C271.503 95.624 271.065 95.7413 270.66 95.976C270.255 96.2 269.924 96.536 269.668 96.984C269.423 97.4213 269.3 97.944 269.3 98.552C269.3 99.16 269.423 99.6933 269.668 100.152C269.924 100.611 270.255 100.963 270.66 101.208C271.076 101.443 271.513 101.56 271.972 101.56C272.441 101.56 272.879 101.443 273.284 101.208C273.689 100.973 274.015 100.632 274.26 100.184C274.516 99.7253 274.644 99.192 274.644 98.584ZM282.704 103.144C281.872 103.144 281.12 102.957 280.448 102.584C279.776 102.2 279.248 101.667 278.864 100.984C278.48 100.291 278.288 99.4907 278.288 98.584C278.288 97.688 278.485 96.8933 278.88 96.2C279.274 95.5067 279.813 94.9733 280.496 94.6C281.178 94.2267 281.941 94.04 282.784 94.04C283.626 94.04 284.389 94.2267 285.072 94.6C285.754 94.9733 286.293 95.5067 286.688 96.2C287.082 96.8933 287.28 97.688 287.28 98.584C287.28 99.48 287.077 100.275 286.672 100.968C286.266 101.661 285.712 102.2 285.008 102.584C284.314 102.957 283.546 103.144 282.704 103.144ZM282.704 101.56C283.173 101.56 283.61 101.448 284.016 101.224C284.432 101 284.768 100.664 285.024 100.216C285.28 99.768 285.408 99.224 285.408 98.584C285.408 97.944 285.285 97.4053 285.04 96.968C284.794 96.52 284.469 96.184 284.064 95.96C283.658 95.736 283.221 95.624 282.752 95.624C282.282 95.624 281.845 95.736 281.44 95.96C281.045 96.184 280.73 96.52 280.496 96.968C280.261 97.4053 280.144 97.944 280.144 98.584C280.144 99.5333 280.384 100.269 280.864 100.792C281.354 101.304 281.968 101.56 282.704 101.56Z" fill="#2F2E41"/>
<path d="M265 73C267.2 73 269 71.2 269 69V45C269 42.8 267.2 41 265 41C262.8 41 261 42.8 261 45V69C261 71.2 262.8 73 265 73ZM253 73C255.2 73 257 71.2 257 69V61C257 58.8 255.2 57 253 57C250.8 57 249 58.8 249 61V69C249 71.2 250.8 73 253 73ZM273 55V69C273 71.2 274.8 73 277 73C279.2 73 281 71.2 281 69V55C281 52.8 279.2 51 277 51C274.8 51 273 52.8 273 55Z" fill="#84A5E3"/>
</svg>
