<svg width="340" height="240" viewBox="0 0 340 240" fill="none" xmlns="http://www.w3.org/2000/svg">
<path d="M277.158 158.869C277.538 158.373 277.806 157.8 277.942 157.19C278.077 156.579 278.078 155.946 277.944 155.335C277.809 154.725 277.543 154.151 277.164 153.655C276.784 153.158 276.301 152.751 275.748 152.463L276.591 142.722L270.815 140.765L269.817 154.537C269.396 155.501 269.341 156.587 269.664 157.589C269.987 158.591 270.665 159.439 271.569 159.973C272.474 160.507 273.542 160.689 274.572 160.486C275.602 160.282 276.521 159.707 277.157 158.869L277.158 158.869Z" fill="#FFB8B8"/>
<path d="M305.974 234.598H300.777L298.304 214.477H305.978L305.974 234.598Z" fill="#FFB8B8"/>
<path d="M297.063 233.107H307.09V239.441H290.75C290.75 237.762 291.415 236.15 292.599 234.963C293.783 233.775 295.389 233.107 297.063 233.107Z" fill="#2F2E41"/>
<path d="M294.175 221.248L289.127 222.492L281.938 203.546L289.39 201.709L294.175 221.248Z" fill="#FFB8B8"/>
<path d="M285.236 221.754L294.972 219.349L296.481 225.5L280.615 229.418C280.215 227.787 280.477 226.063 281.343 224.626C282.21 223.188 283.61 222.155 285.236 221.754Z" fill="#2F2E41"/>
<path d="M299.891 228.183C299.416 228.184 298.958 228.009 298.605 227.69C298.252 227.371 298.03 226.932 297.981 226.459L292 170.542L286.794 187.642L294.167 214.349C294.294 214.806 294.248 215.295 294.038 215.721C293.827 216.147 293.468 216.479 293.028 216.656L287.166 219.008C286.925 219.105 286.666 219.152 286.406 219.145C286.146 219.139 285.891 219.08 285.654 218.972C285.418 218.864 285.205 218.709 285.03 218.516C284.855 218.324 284.721 218.097 284.635 217.851L275.599 191.84C274.61 189 274.172 185.996 274.31 182.99L275.571 154.919L308.789 156.33L308.271 225.782C308.265 226.265 308.079 226.729 307.75 227.082C307.421 227.436 306.972 227.653 306.492 227.692L300.041 228.18C299.99 228.182 299.94 228.183 299.891 228.183Z" fill="#2F2E41"/>
<path d="M294.389 92.7939C300.558 92.7939 305.559 87.7766 305.559 81.5874C305.559 75.3982 300.558 70.3809 294.389 70.3809C288.221 70.3809 283.22 75.3982 283.22 81.5874C283.22 87.7766 288.221 92.7939 294.389 92.7939Z" fill="#FFB8B8"/>
<path d="M302.604 158.156C299.662 158.156 296.009 157.915 292.227 157.665C287.061 157.324 281.719 156.971 277.731 157.203C277.192 157.257 276.649 157.171 276.153 156.954C275.657 156.738 275.224 156.397 274.897 155.965C270.786 150.684 277.125 130.09 277.398 129.217L282.557 106.189L282.779 106.24L282.557 106.189C283.694 101.125 287.319 97.3889 292.022 96.4398C296.424 95.5528 300.683 97.3209 303.413 101.174C303.558 101.378 303.703 101.588 303.848 101.803C312.74 115.015 307.71 147.841 307.373 149.958C307.843 150.522 310.383 153.714 309.685 155.931C309.401 156.833 308.629 157.447 307.392 157.756C305.815 158.069 304.209 158.203 302.602 158.155L302.604 158.156Z" fill="#3F77DF"/>
<path d="M277.911 158.166C276.899 158.166 275.534 157.791 273.694 157.025C272.903 156.695 270.497 155.69 273.419 130.072C274.854 117.488 276.91 104.991 276.931 104.867L276.95 104.746L277.061 104.696C277.114 104.672 282.365 102.257 283.278 99.1543C283.308 99.0469 283.344 98.9427 283.384 98.8418C283.635 98.152 284.143 97.5862 284.8 97.2624C285.457 96.9387 286.213 96.882 286.911 97.1043C287.648 97.281 288.29 97.7324 288.707 98.3669C289.125 99.0014 289.286 99.7715 289.158 100.521C288.84 102.545 288.229 104.511 287.343 106.358C284.872 111.472 283.198 125.032 283.182 125.168C283.087 126.326 280.845 153.764 280.413 155.846C280.262 156.573 279.985 157.463 279.17 157.895C278.78 158.088 278.347 158.182 277.912 158.168L277.911 158.166Z" fill="#2F2E41"/>
<path d="M290.113 157.115C289.909 157.115 289.711 157.047 289.55 156.921C286.264 154.416 291.582 124.046 294.734 113.568C295.366 111.469 295.928 109.673 296.406 108.227C297.277 105.632 297.885 102.956 298.22 100.239C298.394 98.7673 298.771 97.9268 299.374 97.669C299.793 97.4897 300.284 97.6116 300.838 98.0309C303.752 97.8867 306.583 99.0803 309.206 100.395L311.567 101.577L314.217 148.641C314.142 151.644 308.241 153.765 305.667 153.9C301.534 154.118 294.111 154.793 290.841 156.87C290.627 157.02 290.375 157.105 290.114 157.115L290.113 157.115Z" fill="#2F2E41"/>
<path d="M275.353 148.284C275.314 148.284 275.275 148.284 275.235 148.28L269.883 147.95C269.617 147.933 269.357 147.861 269.119 147.739C268.882 147.616 268.673 147.445 268.505 147.237C268.337 147.028 268.215 146.787 268.145 146.529C268.075 146.27 268.059 146 268.099 145.735L270.521 129.638L275.08 107.053C275.192 106.496 275.419 105.97 275.748 105.508C276.076 105.045 276.497 104.657 276.984 104.368C277.471 104.08 278.013 103.897 278.576 103.832C279.138 103.767 279.707 103.822 280.247 103.992C281.17 104.287 281.957 104.904 282.466 105.73C282.975 106.557 283.174 107.539 283.025 108.499L279.403 131.13L277.258 146.62C277.193 147.08 276.964 147.502 276.614 147.807C276.264 148.113 275.816 148.282 275.352 148.284H275.353Z" fill="#2F2E41"/>
<path d="M293.635 130.664C293.962 130.132 294.401 129.677 294.921 129.333C295.442 128.988 296.031 128.763 296.648 128.672C297.265 128.581 297.894 128.626 298.491 128.806C299.088 128.985 299.639 129.294 300.105 129.71L308.88 125.457L312.756 130.177L300.28 136.007C299.532 136.746 298.539 137.183 297.491 137.236C296.443 137.29 295.412 136.955 294.593 136.297C293.774 135.638 293.224 134.701 293.047 133.663C292.871 132.625 293.08 131.558 293.635 130.664Z" fill="#FFB8B8"/>
<path d="M305.825 135.232C305.393 135.232 304.974 135.086 304.635 134.818C304.295 134.55 304.056 134.175 303.954 133.753L302.681 128.438C302.584 128.038 302.617 127.617 302.776 127.238C302.935 126.858 303.211 126.54 303.563 126.33L311.249 121.714L307.32 107.281C306.98 106.045 307.136 104.724 307.754 103.602C308.372 102.48 309.404 101.645 310.628 101.276C311.852 100.908 313.171 101.035 314.303 101.63C315.435 102.225 316.29 103.241 316.685 104.46L321.023 117.749C321.556 119.369 321.56 121.117 321.035 122.74C320.51 124.362 319.483 125.775 318.103 126.771L306.952 134.866C306.624 135.104 306.23 135.232 305.825 135.232Z" fill="#2F2E41"/>
<path d="M222.783 0H7.58567C5.57456 0.002415 3.64651 0.805027 2.22445 2.23178C0.802379 3.65853 0.00240707 5.59292 0 7.61064V30.8441C0.00240707 32.8618 0.802379 34.7962 2.22445 36.223C3.64651 37.6497 5.57456 38.4523 7.58567 38.4548H222.783C224.794 38.4523 226.722 37.6497 228.144 36.223C229.566 34.7962 230.366 32.8618 230.369 30.8441V7.61064C230.366 5.59292 229.566 3.65853 228.144 2.23178C226.722 0.805027 224.794 0.002415 222.783 0ZM229.57 30.8441C229.568 32.6493 228.852 34.3797 227.579 35.6562C226.307 36.9326 224.582 37.6509 222.783 37.6535H7.58567C5.78643 37.6509 4.06165 36.9326 2.7894 35.6562C1.51715 34.3797 0.801233 32.6493 0.798586 30.8441V7.61064C0.801233 5.80548 1.51715 4.07502 2.7894 2.79858C4.06165 1.52214 5.78643 0.80387 7.58567 0.801215H222.783C224.582 0.80387 226.307 1.52214 227.579 2.79858C228.852 4.07502 229.568 5.80548 229.57 7.61064V30.8441Z" fill="#3F3D56"/>
<path d="M222.783 93.3322H7.58567C5.57456 93.3298 3.64651 92.5272 2.22445 91.1004C0.802379 89.6737 0.00240707 87.7393 0 85.7216V62.4886C0.00240707 60.4709 0.802379 58.5365 2.22445 57.1097C3.64651 55.683 5.57456 54.8803 7.58567 54.8779H222.783C224.794 54.8803 226.722 55.683 228.144 57.1097C229.566 58.5365 230.366 60.4709 230.369 62.4886V85.7216C230.366 87.7393 229.566 89.6737 228.144 91.1004C226.722 92.5272 224.794 93.3298 222.783 93.3322ZM7.58567 55.6792C5.78625 55.6812 4.06112 56.3993 2.78874 57.6759C1.51636 58.9524 0.800632 60.6832 0.798586 62.4886V85.7216C0.800271 87.5272 1.51583 89.2583 2.78825 90.5352C4.06068 91.8121 5.78601 92.5303 7.58567 92.5324H222.783C224.583 92.5304 226.308 91.8124 227.58 90.5358C228.853 89.2593 229.569 87.5284 229.571 85.723V62.4886C229.569 60.6832 228.853 58.9524 227.581 57.6759C226.308 56.3993 224.583 55.6812 222.784 55.6792H7.58567Z" fill="#CCCCCC"/>
<path d="M222.783 148.21H7.58567C5.57456 148.208 3.64651 147.405 2.22445 145.978C0.802379 144.552 0.00240707 142.617 0 140.6V117.367C0.00240707 115.349 0.802379 113.414 2.22445 111.988C3.64651 110.561 5.57456 109.758 7.58567 109.756H222.783C224.794 109.758 226.722 110.561 228.144 111.988C229.566 113.414 230.366 115.349 230.369 117.367V140.6C230.366 142.617 229.566 144.552 228.144 145.978C226.722 147.405 224.794 148.208 222.783 148.21ZM7.58567 110.555C5.78625 110.557 4.06112 111.275 2.78874 112.552C1.51636 113.829 0.800632 115.559 0.798586 117.365V140.598C0.800512 142.403 1.51619 144.134 2.78858 145.411C4.06098 146.687 5.78617 147.406 7.58567 147.408H222.783C224.583 147.406 226.308 146.688 227.58 145.411C228.853 144.134 229.569 142.404 229.571 140.598V117.367C229.569 115.561 228.854 113.829 227.581 112.552C226.309 111.275 224.583 110.557 222.783 110.555H7.58567Z" fill="#CCCCCC"/>
<path d="M36.6635 32.4736C34.0522 32.4736 31.4995 31.6967 29.3283 30.2411C27.1571 28.7856 25.4648 26.7167 24.4655 24.2962C23.4662 21.8758 23.2047 19.2123 23.7141 16.6427C24.2236 14.0732 25.4811 11.7129 27.3275 9.8603C29.174 8.00774 31.5266 6.74612 34.0877 6.235C36.6489 5.72388 39.3036 5.98621 41.7161 6.98881C44.1287 7.99141 46.1907 9.68925 47.6415 11.8676C49.0922 14.046 49.8666 16.6071 49.8666 19.227C49.8666 22.7402 48.4756 26.1095 45.9995 28.5937C43.5235 31.0779 40.1652 32.4736 36.6635 32.4736Z" fill="#3F77DF"/>
<path d="M203.29 30.0421H62.3543C61.5071 30.0421 60.6947 29.7045 60.0957 29.1035C59.4967 28.5025 59.1602 27.6874 59.1602 26.8375C59.1602 25.9875 59.4967 25.1724 60.0957 24.5714C60.6947 23.9704 61.5071 23.6328 62.3543 23.6328H203.29C204.137 23.6328 204.949 23.9704 205.548 24.5714C206.147 25.1724 206.484 25.9875 206.484 26.8375C206.484 27.6874 206.147 28.5025 205.548 29.1035C204.949 29.7045 204.137 30.0421 203.29 30.0421Z" fill="#CCCCCC"/>
<path d="M157.373 16.4229H62.3513C61.5042 16.4229 60.6918 16.0853 60.0928 15.4843C59.4937 14.8833 59.1572 14.0682 59.1572 13.2183C59.1572 12.3684 59.4937 11.5533 60.0928 10.9523C60.6918 10.3513 61.5042 10.0137 62.3513 10.0137H157.373C158.22 10.0137 159.033 10.3513 159.632 10.9523C160.231 11.5533 160.567 12.3684 160.567 13.2183C160.567 14.0682 160.231 14.8833 159.632 15.4843C159.033 16.0853 158.22 16.4229 157.373 16.4229Z" fill="#CCCCCC"/>
<path d="M36.6635 87.3515C34.0522 87.3515 31.4995 86.5746 29.3283 85.119C27.1571 83.6635 25.4648 81.5947 24.4655 79.1742C23.4662 76.7537 23.2047 74.0902 23.7141 71.5207C24.2236 68.9511 25.4811 66.5908 27.3275 64.7382C29.174 62.8857 31.5266 61.6241 34.0877 61.1129C36.6489 60.6018 39.3036 60.8641 41.7161 61.8667C44.1287 62.8693 46.1907 64.5672 47.6415 66.7456C49.0922 68.9239 49.8666 71.485 49.8666 74.1049C49.8666 77.6181 48.4756 80.9874 45.9995 83.4716C43.5235 85.9558 40.1652 87.3515 36.6635 87.3515Z" fill="#E6E6E6"/>
<path d="M203.29 84.92H62.3543C61.5071 84.92 60.6947 84.5824 60.0957 83.9814C59.4967 83.3804 59.1602 82.5653 59.1602 81.7154C59.1602 80.8655 59.4967 80.0503 60.0957 79.4494C60.6947 78.8484 61.5071 78.5107 62.3543 78.5107H203.29C204.137 78.5107 204.949 78.8484 205.548 79.4494C206.147 80.0503 206.484 80.8655 206.484 81.7154C206.484 82.5653 206.147 83.3804 205.548 83.9814C204.949 84.5824 204.137 84.92 203.29 84.92Z" fill="#E6E6E6"/>
<path d="M157.373 71.3009H62.3513C61.5042 71.3009 60.6918 70.9632 60.0928 70.3623C59.4937 69.7613 59.1572 68.9462 59.1572 68.0962C59.1572 67.2463 59.4937 66.4312 60.0928 65.8302C60.6918 65.2292 61.5042 64.8916 62.3513 64.8916H157.373C158.22 64.8916 159.033 65.2292 159.632 65.8302C160.231 66.4312 160.567 67.2463 160.567 68.0962C160.567 68.9462 160.231 69.7613 159.632 70.3623C159.033 70.9632 158.22 71.3009 157.373 71.3009Z" fill="#E6E6E6"/>
<path d="M36.6635 142.229C34.0522 142.229 31.4995 141.453 29.3283 139.997C27.1571 138.541 25.4648 136.473 24.4655 134.052C23.4662 131.632 23.2047 128.968 23.7141 126.399C24.2236 123.829 25.4811 121.469 27.3275 119.616C29.174 117.764 31.5266 116.502 34.0877 115.991C36.6489 115.48 39.3036 115.742 41.7161 116.745C44.1287 117.747 46.1907 119.445 47.6415 121.623C49.0922 123.802 49.8666 126.363 49.8666 128.983C49.8666 132.496 48.4756 135.865 45.9995 138.35C43.5235 140.834 40.1652 142.229 36.6635 142.229Z" fill="#E6E6E6"/>
<path d="M203.29 139.798H62.3543C61.5071 139.798 60.6947 139.46 60.0957 138.859C59.4967 138.258 59.1602 137.443 59.1602 136.593C59.1602 135.743 59.4967 134.928 60.0957 134.327C60.6947 133.726 61.5071 133.389 62.3543 133.389H203.29C204.137 133.389 204.949 133.726 205.548 134.327C206.147 134.928 206.484 135.743 206.484 136.593C206.484 137.443 206.147 138.258 205.548 138.859C204.949 139.46 204.137 139.798 203.29 139.798Z" fill="#E6E6E6"/>
<path d="M157.373 126.179H62.3513C61.5042 126.179 60.6918 125.841 60.0928 125.24C59.4937 124.639 59.1572 123.824 59.1572 122.974C59.1572 122.124 59.4937 121.309 60.0928 120.708C60.6918 120.107 61.5042 119.77 62.3513 119.77H157.373C158.22 119.77 159.033 120.107 159.632 120.708C160.231 121.309 160.567 122.124 160.567 122.974C160.567 123.824 160.231 124.639 159.632 125.24C159.033 125.841 158.22 126.179 157.373 126.179Z" fill="#E6E6E6"/>
<path d="M35.9896 23.8873C35.6617 23.8881 35.3424 23.7817 35.08 23.5844L35.0637 23.572L31.6415 20.9457C31.483 20.8238 31.3499 20.6718 31.25 20.4983C31.1501 20.3248 31.0852 20.1333 31.059 19.9346C31.0328 19.736 31.0459 19.5341 31.0975 19.3406C31.1491 19.147 31.2382 18.9655 31.3597 18.8065C31.4812 18.6475 31.6328 18.514 31.8057 18.4137C31.9786 18.3135 32.1695 18.2484 32.3675 18.2221C32.5655 18.1959 32.7667 18.209 32.9596 18.2608C33.1526 18.3125 33.3334 18.4019 33.492 18.5238L35.7085 20.2294L40.9462 13.3734C41.1915 13.0525 41.5538 12.8425 41.9534 12.7895C42.3531 12.7365 42.7573 12.845 43.0773 13.091L43.045 13.1366L43.0782 13.091C43.3977 13.3375 43.6067 13.701 43.6594 14.102C43.7121 14.5029 43.6042 14.9084 43.3592 15.2295L37.1984 23.2901C37.0556 23.4754 36.8723 23.6254 36.6625 23.7282C36.4527 23.8311 36.2222 23.8841 35.9887 23.8832L35.9896 23.8873Z" fill="white"/>
<path d="M339.545 240H249.499C249.379 240 249.263 239.952 249.178 239.867C249.092 239.781 249.044 239.665 249.044 239.544C249.044 239.423 249.092 239.307 249.178 239.222C249.263 239.136 249.379 239.088 249.499 239.088H339.545C339.666 239.088 339.781 239.136 339.867 239.222C339.952 239.307 340 239.423 340 239.544C340 239.665 339.952 239.781 339.867 239.867C339.781 239.952 339.666 240 339.545 240Z" fill="#CCCCCC"/>
<path d="M298.496 84.5743C298.496 84.5743 297.137 77.0339 294.044 77.9348C290.951 78.8357 282.991 79.7575 282.976 76.2063C282.961 72.6552 290.469 69.5163 294.895 69.9411C299.321 70.366 306.848 71.6656 306.433 78.3258C306.102 82.5205 304.809 86.5817 302.657 90.1935L298.496 84.5743Z" fill="#2F2E41"/>
</svg>
